<?xml version="1.0" encoding="UTF-8" standalone="no"?>
<!DOCTYPE svg PUBLIC "-//W3C//DTD SVG 1.1//EN" "http://www.w3.org/Graphics/SVG/1.1/DTD/svg11.dtd">
<svg width="100%" height="100%" viewBox="0 0 1714 1714" version="1.1" xmlns="http://www.w3.org/2000/svg" xmlns:xlink="http://www.w3.org/1999/xlink" xml:space="preserve" xmlns:serif="http://www.serif.com/" style="fill-rule:evenodd;clip-rule:evenodd;stroke-linecap:round;stroke-linejoin:round;stroke-miterlimit:1.5;">
    <g transform="matrix(1,0,0,1,-2060.4,-3234)">
        <g id="Adventurers" transform="matrix(1,0,0,1,-2302.6,545)">
            <rect x="4363" y="2689" width="1714" height="1714" style="fill:none;"/>
            <g transform="matrix(1,0,0,1,-5955,1743.09)">
                <g transform="matrix(1,0,0,1,10180.7,-2288.09)">
                    <circle cx="994.316" cy="4085.15" r="380.301" style="fill:rgb(62,99,174);"/>
                </g>
                <g transform="matrix(1.07048,0,0,2.13247,-8748.27,-14525.6)">
                    <ellipse cx="18604" cy="7716" rx="391" ry="110" style="fill:none;stroke:black;stroke-width:27.17px;"/>
                    <ellipse cx="18604" cy="7716" rx="391" ry="110" style="fill:rgb(22,92,55);"/>
                </g>
                <g transform="matrix(1,0,0,1,-7410.63,-5795.1)">
                    <path d="M18359,7846C18359,7846 18500.9,7796.33 18485.1,7772C18469.3,7747.67 18264,7700 18264,7700L18254,7680C18254,7680 18516.2,7711.67 18593,7725C18634.7,7732.23 18693.8,7748.33 18715,7760C18725.3,7765.69 18727.5,7785.95 18720,7795C18705.8,7812 18633.7,7843.33 18630,7862C18626.3,7880.67 18698,7907 18698,7907C18580.2,7948.28 18466.9,7931.27 18359,7846Z" style="fill:none;stroke:black;stroke-width:37.5px;"/>
                    <path d="M18359,7846C18359,7846 18500.9,7796.33 18485.1,7772C18469.3,7747.67 18264,7700 18264,7700L18254,7680C18254,7680 18516.2,7711.67 18593,7725C18634.7,7732.23 18693.8,7748.33 18715,7760C18725.3,7765.69 18727.5,7785.95 18720,7795C18705.8,7812 18633.7,7843.33 18630,7862C18626.3,7880.67 18698,7907 18698,7907C18580.2,7948.28 18466.9,7931.27 18359,7846Z" style="fill:rgb(62,99,174);"/>
                </g>
                <g transform="matrix(1.32486,0,0,1.33051,-15601.7,-7737.5)">
                    <path d="M20211,6807C20406.4,6807 20565,6965.62 20565,7161C20565,7356.38 20406.4,7515 20211,7515C20015.6,7515 19857,7356.38 19857,7161C19857,6965.62 20015.6,6807 20211,6807ZM20211,6895.5C20357.5,6895.5 20476.5,7014.47 20476.5,7161C20476.5,7307.53 20357.5,7426.5 20211,7426.5C20064.5,7426.5 19945.5,7307.53 19945.5,7161C19945.5,7014.47 20064.5,6895.5 20211,6895.5Z" style="fill:rgb(21,166,92);stroke:black;stroke-width:18.83px;"/>
                </g>
                <g transform="matrix(1.12723,0,0,1.13204,-11605.2,-6295.76)">
                    <path d="M19963.2,6908.19L19949.5,6893.9L19966.5,6877.81L19958.6,6869.65L19941.7,6885.74L19936.3,6880.09L19953.6,6863.64L19945.8,6855.48L19919.1,6880.86L19953.8,6917.12L19963.2,6908.19Z" style="fill-rule:nonzero;"/>
                    <path d="M20020.4,6861.91L20001.3,6853.07C20004.1,6848.94 20005.6,6842.08 20000.5,6835.03C19994.9,6827.51 19985.5,6825.28 19976.4,6831.85L19956.1,6846.65L19985.8,6887.14L19996.2,6879.51L19986.3,6865.91L19991.6,6862.01L20008.4,6870.64L20020.4,6861.91ZM19987.9,6850.78L19979.6,6856.81L19973.2,6848.13L19981.5,6842.1C19984.3,6840.06 19987.7,6839.94 19989.7,6842.73C19991.8,6845.59 19990.7,6848.74 19987.9,6850.78Z" style="fill-rule:nonzero;"/>
                    <path d="M20058.9,6840.78L20053.5,6830.87L20032.5,6842.26L20028.4,6834.81L20048.9,6823.66L20043.5,6813.76L20023,6824.9L20019.2,6818.04L20040.2,6806.65L20034.8,6796.74L20002.4,6814.32L20026.5,6858.35L20058.9,6840.78Z" style="fill-rule:nonzero;"/>
                    <path d="M20100.2,6824.2L20096.1,6813.7L20073.8,6822.36L20070.7,6814.45L20092.5,6805.98L20088.4,6795.48L20066.6,6803.94L20063.7,6796.66L20086,6788L20081.9,6777.5L20047.5,6790.86L20065.8,6837.56L20100.2,6824.2Z" style="fill-rule:nonzero;"/>
                    <path d="M20127.9,6816.81C20143.3,6813.24 20152.2,6801.37 20148.7,6786.22C20145.1,6771.07 20131.9,6764.42 20116.4,6768L20095.8,6772.77L20107.3,6821.6L20127.9,6816.81ZM20125.3,6805.84L20117.3,6807.69L20111.1,6780.82L20119.1,6778.96C20128,6776.88 20134,6781.68 20135.7,6789.22C20137.4,6796.47 20133.9,6803.85 20125.3,6805.84Z" style="fill-rule:nonzero;"/>
                    <path d="M20185.3,6808.83C20200.6,6807.72 20211.3,6796.25 20210.2,6781.03C20209.1,6765.81 20196.9,6755.99 20181.5,6757.1C20166.2,6758.21 20155.4,6769.69 20156.5,6784.9C20157.6,6800.12 20169.9,6809.94 20185.3,6808.83ZM20184.5,6797.43C20176.2,6798.03 20170.3,6792.05 20169.7,6783.95C20169.1,6775.78 20174.1,6769.09 20182.4,6768.5C20190.6,6767.9 20196.4,6773.81 20197,6781.98C20197.6,6790.08 20192.7,6796.83 20184.5,6797.43Z" style="fill-rule:nonzero;"/>
                    <path d="M20275.6,6811.72L20280.7,6761.85L20262.8,6760.02L20249.5,6786.48L20241.8,6757.89L20223.9,6756.07L20218.8,6805.94L20231.7,6807.25L20235,6774.28L20244.4,6808.54L20250.1,6809.12L20266.1,6777.43L20262.7,6810.41L20275.6,6811.72Z" style="fill-rule:nonzero;"/>
                    <path d="M20346.4,6833.07L20335.6,6801.19L20361.7,6785.28L20346.5,6780.14L20325.2,6794.65L20331.9,6775.16L20319.6,6770.98L20303.3,6818.42L20315.6,6822.6L20320.4,6808.73L20325,6805.84L20331.3,6827.94L20346.4,6833.07Z" style="fill-rule:nonzero;"/>
                    <path d="M20361.6,6840.51L20382.2,6794.8L20370.4,6789.49L20349.7,6835.19L20361.6,6840.51Z" style="fill-rule:nonzero;"/>
                    <path d="M20388.4,6854.63C20402,6862.66 20416.6,6860.26 20424.6,6846.88C20432.6,6833.51 20427.7,6819.57 20414.1,6811.51L20395.9,6800.75L20370.2,6843.84L20388.4,6854.63ZM20394.1,6844.9L20387.1,6840.76L20401.3,6817.05L20408.3,6821.23C20416.2,6825.92 20417.2,6833.47 20413.2,6840.12C20409.4,6846.52 20401.7,6849.4 20394.1,6844.9Z" style="fill-rule:nonzero;"/>
                    <path d="M20430.9,6884.82C20441.5,6893.22 20451.5,6892.63 20457.8,6884.76C20469.5,6870.19 20444.3,6856.15 20448.2,6851.34C20449.6,6849.63 20451.7,6849.67 20454.6,6852.01C20458.5,6855.1 20461.7,6859.88 20462.8,6865.26L20474.4,6862.09C20473.1,6855.18 20469.1,6848.94 20462.8,6843.92C20452.7,6835.91 20442.5,6837.38 20437.2,6843.96C20425.1,6859.06 20450.8,6872.44 20446.7,6877.61C20445.1,6879.55 20442,6879.03 20438.6,6876.32C20433.2,6872 20430.7,6866.19 20430.1,6861.11L20418.5,6864.72C20419.4,6871.56 20423,6878.5 20430.9,6884.82Z" style="fill-rule:nonzero;"/>
                </g>
                <g transform="matrix(1.24022,-0.268621,0.268621,1.24022,-3131.43,2674.74)">
                    <g>
                        <g transform="matrix(1,0,0,1,-7410.63,-5795.1)">
                            <circle cx="18579" cy="7489.73" r="203.734" style="fill:none;stroke:black;stroke-width:39.4px;"/>
                            <circle cx="18579" cy="7489.73" r="203.734" style="fill:rgb(232,62,62);"/>
                        </g>
                        <g transform="matrix(1,0,0,1,-7404.14,-5785.8)">
                            <circle cx="18572.5" cy="7234.5" r="22.5" style="fill:none;stroke:black;stroke-width:39.4px;"/>
                            <circle cx="18572.5" cy="7234.5" r="22.5" style="fill:rgb(232,62,62);"/>
                        </g>
                    </g>
                    <g transform="matrix(0.752458,0,0,0.752458,2758.19,393.037)">
                        <g transform="matrix(1,0,0,1,-7247,-5796.1)">
                            <circle cx="18422" cy="7527" r="228" style="fill:none;stroke:black;stroke-width:52.36px;"/>
                            <circle cx="18422" cy="7527" r="228" style="fill:rgb(255,209,80);"/>
                        </g>
                        <g transform="matrix(1.01925,-0.240701,0.240701,1.01925,-9583.14,-1487.29)">
                            <path d="M18393.1,7543.3L18782.8,7546.77C18782.8,7546.77 18756.5,7350.1 18583.8,7350.1C18409.1,7350.1 18393.1,7543.3 18393.1,7543.3Z" style="fill:rgb(255,198,41);"/>
                        </g>
                        <g transform="matrix(0.999443,0.0333636,-0.0333636,0.999443,-7153.17,-6418.71)">
                            <path d="M18532,7304.34C18532,7304.34 18554.6,7336.41 18568,7355.38C18570,7358.33 18573.5,7360 18577.1,7359.81C18580.7,7359.62 18583.9,7357.6 18585.7,7354.45C18597.2,7333.82 18616.7,7298.49 18616,7298C18615,7297.31 18532,7304.34 18532,7304.34Z"/>
                        </g>
                        <g transform="matrix(0.999443,-0.0333636,-0.0333636,-0.999443,-7153.17,9878.31)">
                            <path d="M18532,7304.34C18532,7304.34 18554.6,7336.41 18568,7355.38C18570,7358.33 18573.5,7360 18577.1,7359.81C18580.7,7359.62 18583.9,7357.6 18585.7,7354.45C18597.2,7333.82 18616.7,7298.49 18616,7298C18615,7297.31 18532,7304.34 18532,7304.34Z"/>
                        </g>
                        <g transform="matrix(0.0333636,-0.999443,0.999443,0.0333636,3028.42,20049.9)">
                            <path d="M18532,7304.34C18532,7304.34 18554.6,7336.41 18568,7355.38C18570,7358.33 18573.5,7360 18577.1,7359.81C18580.7,7359.62 18583.9,7357.6 18585.7,7354.45C18597.2,7333.82 18616.7,7298.49 18616,7298C18615,7297.31 18532,7304.34 18532,7304.34Z"/>
                        </g>
                        <g transform="matrix(-0.0333636,-0.999443,-0.999443,0.0333636,19325.4,20049.9)">
                            <path d="M18532,7304.34C18532,7304.34 18554.6,7336.41 18568,7355.38C18570,7358.33 18573.5,7360 18577.1,7359.81C18580.7,7359.62 18583.9,7357.6 18585.7,7354.45C18597.2,7333.82 18616.7,7298.49 18616,7298C18615,7297.31 18532,7304.34 18532,7304.34Z"/>
                        </g>
                    </g>
                    <g transform="matrix(0.998824,-0.0484832,0.0484832,0.998824,-7706.53,-4908.54)">
                        <path d="M18494.2,7511.71C18494.1,7511.25 18494.1,7510.75 18494.2,7510.29C18496.4,7503.42 18513.7,7448.55 18521.5,7423.9C18522,7422.27 18523.5,7421.15 18525.2,7421.15C18527,7421.15 18528.5,7422.27 18529,7423.9C18536.8,7448.55 18554.1,7503.42 18556.3,7510.29C18556.4,7510.75 18556.4,7511.25 18556.3,7511.71C18554.1,7518.58 18536.8,7573.45 18529,7598.1C18528.5,7599.73 18527,7600.85 18525.2,7600.85C18523.5,7600.85 18522,7599.73 18521.5,7598.1C18513.7,7573.45 18496.4,7518.58 18494.2,7511.71Z"/>
                    </g>
                </g>
            </g>
            <g transform="matrix(0.542543,0,0,0.542543,4400.8,3758.71)">
                <g transform="matrix(1,0,0,1,664.92,245.334)">
                    <path d="M0,0C3.308,0.621 6.622,1.142 9.944,1.643C25.13,3.934 30.224,7.095 37.053,10.955C48.794,17.592 66.08,40.758 69.305,50.055C70.818,54.418 71.723,54.907 72.944,59.428C73.535,61.612 74.238,63.719 74.987,65.854C83.007,89.83 85.25,123.696 76.198,145.873C67.146,168.05 44.085,188.358 20.674,198.916L18.646,199.84C5.114,205.701 -9.145,208.899 -23.535,211.834C-26.411,212.421 -29.283,213.021 -32.156,213.623C-34.013,214.008 -35.87,214.392 -37.728,214.776L-40.285,215.309C-61.405,219.592 -91.882,215.185 -104.086,214.995C-107.24,214.946 -110.428,214.822 -113.513,214.166C-116.907,213.445 -122.077,213.67 -124.451,210.666C-126.833,207.652 -127.874,201.751 -127.807,196.078L-127.813,193.528C-127.816,190.76 -127.798,187.993 -127.779,185.225C-127.776,183.295 -127.774,181.365 -127.773,179.435C-127.769,175.396 -127.754,171.357 -127.732,167.318C-127.704,162.144 -127.693,156.97 -127.688,151.796C-127.684,147.813 -127.674,143.83 -127.662,139.847C-127.657,137.939 -127.652,136.031 -127.648,134.124C-127.641,131.457 -127.618,127.855 -127.612,126.125C-127.609,125.331 -127.677,124.534 -127.608,123.743C-127.415,121.5 -126.381,106.784 -126.369,105.158C-126.363,104.41 -126.374,103.661 -126.378,102.913C-126.384,101.733 -126.395,99.693 -126.406,98.082C-126.424,95.493 -126.434,92.903 -126.442,90.313C-126.466,82.948 -126.501,75.582 -126.547,68.217C-126.664,48.629 -125.704,19.729 -125.509,9.541C-125.494,8.724 -125.477,7.904 -125.378,7.093C-125.035,4.28 -125.13,-4.027 -122.148,-6.728C-118.782,-9.776 -99.83,-7.318 -98.686,-7.236C-81.665,-6.024 -33.373,-6.548 0,0ZM-67.451,49.666C-72.757,68.133 -75.693,139.334 -67.451,156.666C-66.094,159.518 -51.115,163.812 -42.888,162.166C-31.222,159.833 -7.357,149.916 2.549,142.666C10.023,137.196 14.478,127.693 16.549,118.666C18.883,108.5 20.497,91.708 16.549,81.666C12.601,71.625 3.201,62.355 -7.138,58.416C-21.138,53.083 -66.066,44.848 -67.451,49.666Z" style="fill:none;stroke:black;stroke-width:65.28px;stroke-linecap:butt;stroke-miterlimit:2;"/>
                    <path d="M0,0C3.308,0.621 6.622,1.142 9.944,1.643C25.13,3.934 30.224,7.095 37.053,10.955C48.794,17.592 66.08,40.758 69.305,50.055C70.818,54.418 71.723,54.907 72.944,59.428C73.535,61.612 74.238,63.719 74.987,65.854C83.007,89.83 85.25,123.696 76.198,145.873C67.146,168.05 44.085,188.358 20.674,198.916L18.646,199.84C5.114,205.701 -9.145,208.899 -23.535,211.834C-26.411,212.421 -29.283,213.021 -32.156,213.623C-34.013,214.008 -35.87,214.392 -37.728,214.776L-40.285,215.309C-61.405,219.592 -91.882,215.185 -104.086,214.995C-107.24,214.946 -110.428,214.822 -113.513,214.166C-116.907,213.445 -122.077,213.67 -124.451,210.666C-126.833,207.652 -127.874,201.751 -127.807,196.078L-127.813,193.528C-127.816,190.76 -127.798,187.993 -127.779,185.225C-127.776,183.295 -127.774,181.365 -127.773,179.435C-127.769,175.396 -127.754,171.357 -127.732,167.318C-127.704,162.144 -127.693,156.97 -127.688,151.796C-127.684,147.813 -127.674,143.83 -127.662,139.847C-127.657,137.939 -127.652,136.031 -127.648,134.124C-127.641,131.457 -127.618,127.855 -127.612,126.125C-127.609,125.331 -127.677,124.534 -127.608,123.743C-127.415,121.5 -126.381,106.784 -126.369,105.158C-126.363,104.41 -126.374,103.661 -126.378,102.913C-126.384,101.733 -126.395,99.693 -126.406,98.082C-126.424,95.493 -126.434,92.903 -126.442,90.313C-126.466,82.948 -126.501,75.582 -126.547,68.217C-126.664,48.629 -125.704,19.729 -125.509,9.541C-125.494,8.724 -125.477,7.904 -125.378,7.093C-125.035,4.28 -125.13,-4.027 -122.148,-6.728C-118.782,-9.776 -99.83,-7.318 -98.686,-7.236C-81.665,-6.024 -33.373,-6.548 0,0ZM-67.451,49.666C-72.757,68.133 -75.693,139.334 -67.451,156.666C-66.094,159.518 -51.115,163.812 -42.888,162.166C-31.222,159.833 -7.357,149.916 2.549,142.666C10.023,137.196 14.478,127.693 16.549,118.666C18.883,108.5 20.497,91.708 16.549,81.666C12.601,71.625 3.201,62.355 -7.138,58.416C-21.138,53.083 -66.066,44.848 -67.451,49.666Z" style="fill:rgb(21,166,92);"/>
                </g>
                <g transform="matrix(1,0,0,1,2399.05,235)">
                    <path d="M0,0C1.1,-0.015 2.199,0.02 3.299,0.033C7.631,0.086 18.426,0.209 25.989,0.319C28.552,0.356 31.115,0.39 33.679,0.421C91.704,1.15 94.493,5.454 110.547,19.051C126.6,32.647 133.881,54.608 130,82C127.143,102.163 113.666,119.63 96.12,126.38C93.479,127.396 85.226,131.628 85,135C84.475,142.836 105.608,165.768 112.691,177.289C118.043,185.993 125.434,198.64 127.5,204.125C128.268,206.164 126.989,209.139 125.086,210.199C122.523,211.626 117.039,212.634 112.125,212.688C110.378,212.73 100.458,213.593 98.508,213.504C91.619,213.189 70.72,214.053 63,211C57.062,208.652 54.257,198.344 52.188,195.188C51.545,194.207 51.111,193.105 50.584,192.059C49.039,188.992 45.44,181.892 42.915,176.785C41.295,173.514 32.979,151.975 27.656,147.106C25.982,145.576 11.507,135.379 2,141C-2.789,143.832 -1.484,152.889 0.05,169.405C0.966,179.254 1.136,180 1.924,187.826C2.308,191.641 4.442,207.422 -0.171,213.865C-2.316,216.861 -7.119,216.17 -9.137,216.539C-9.812,216.663 -10.509,216.568 -11.196,216.575C-12.621,216.589 -15.523,216.619 -17.688,216.625C-20.525,216.647 -37.782,218.172 -41.904,218.545C-45.591,218.879 -51.492,219.342 -53.592,217.915C-57.715,215.114 -56.658,194.537 -56.695,190.859C-56.732,188.299 -56.77,185.738 -56.81,183.178C-56.901,177.108 -56.979,171.038 -57.05,164.968C-57.186,153.498 -57.876,142.024 -57.518,130.559C-56.967,112.965 -55.809,102.594 -54.95,82.292C-54.508,71.845 -58.888,27.862 -58.79,23.125C-58.764,21.72 -58.743,20.315 -58.73,18.91C-58.709,16.982 -59.733,6.246 -54,2C-49.751,-1.148 -8.203,0.108 0,0ZM2,50C-2.741,53.116 0.492,69.113 0.587,72.982C0.696,77.457 1.948,90.799 5,93C18.664,102.852 48.001,91.252 61,77.188C63.571,74.405 64.564,69.45 63,66C61.009,61.61 52.221,51.13 38.807,51C32.244,50.936 7.039,46.688 2,50Z" style="fill:none;stroke:black;stroke-width:65.28px;stroke-linecap:butt;stroke-miterlimit:2;"/>
                    <path d="M0,0C1.1,-0.015 2.199,0.02 3.299,0.033C7.631,0.086 18.426,0.209 25.989,0.319C28.552,0.356 31.115,0.39 33.679,0.421C91.704,1.15 94.493,5.454 110.547,19.051C126.6,32.647 133.881,54.608 130,82C127.143,102.163 113.666,119.63 96.12,126.38C93.479,127.396 85.226,131.628 85,135C84.475,142.836 105.608,165.768 112.691,177.289C118.043,185.993 125.434,198.64 127.5,204.125C128.268,206.164 126.989,209.139 125.086,210.199C122.523,211.626 117.039,212.634 112.125,212.688C110.378,212.73 100.458,213.593 98.508,213.504C91.619,213.189 70.72,214.053 63,211C57.062,208.652 54.257,198.344 52.188,195.188C51.545,194.207 51.111,193.105 50.584,192.059C49.039,188.992 45.44,181.892 42.915,176.785C41.295,173.514 32.979,151.975 27.656,147.106C25.982,145.576 11.507,135.379 2,141C-2.789,143.832 -1.484,152.889 0.05,169.405C0.966,179.254 1.136,180 1.924,187.826C2.308,191.641 4.442,207.422 -0.171,213.865C-2.316,216.861 -7.119,216.17 -9.137,216.539C-9.812,216.663 -10.509,216.568 -11.196,216.575C-12.621,216.589 -15.523,216.619 -17.688,216.625C-20.525,216.647 -37.782,218.172 -41.904,218.545C-45.591,218.879 -51.492,219.342 -53.592,217.915C-57.715,215.114 -56.658,194.537 -56.695,190.859C-56.732,188.299 -56.77,185.738 -56.81,183.178C-56.901,177.108 -56.979,171.038 -57.05,164.968C-57.186,153.498 -57.876,142.024 -57.518,130.559C-56.967,112.965 -55.809,102.594 -54.95,82.292C-54.508,71.845 -58.888,27.862 -58.79,23.125C-58.764,21.72 -58.743,20.315 -58.73,18.91C-58.709,16.982 -59.733,6.246 -54,2C-49.751,-1.148 -8.203,0.108 0,0ZM2,50C-2.741,53.116 0.492,69.113 0.587,72.982C0.696,77.457 1.948,90.799 5,93C18.664,102.852 48.001,91.252 61,77.188C63.571,74.405 64.564,69.45 63,66C61.009,61.61 52.221,51.13 38.807,51C32.244,50.936 7.039,46.688 2,50Z" style="fill:rgb(21,166,92);"/>
                </g>
                <g transform="matrix(1,0,0,1,1398.81,239.629)">
                    <path d="M0,0C7.673,0.114 24.596,1.563 28.786,4.371C32.346,6.756 32.17,11.825 32.185,16.769C32.191,18.029 32.196,19.289 32.202,20.588C32.19,21.974 32.176,23.36 32.161,24.746C32.157,25.834 32.157,25.834 32.153,26.945C32.109,37.563 31.464,48.04 30.497,58.609C28.708,78.337 28.473,98 28.475,117.794C28.474,120.145 28.469,122.496 28.464,124.846C28.434,142.219 28.872,159.403 30.33,176.727C30.874,183.199 31.121,189.624 31.099,196.121C31.115,197.133 31.131,198.144 31.148,199.187C31.152,205.001 30.225,211.274 27.786,214.371C25.359,217.453 21.215,217.754 16.517,217.769C15.305,217.775 14.094,217.781 12.845,217.787C11.568,217.774 -22.718,214.191 -30.716,210.028C-36.979,206.768 -38.766,198.423 -42.964,192.746C-49.437,183.99 -59.893,168.788 -69.553,157.496C-72.774,153.726 -75.909,149.888 -79.038,146.042C-80.493,144.256 -81.954,142.475 -83.421,140.699C-91.126,131.36 -107.586,102.476 -110.214,105.371C-112.499,107.888 -110.13,133.512 -110.11,145.636C-110.1,151.868 -110.085,158.101 -110.063,164.333C-110.041,170.351 -110.029,176.368 -110.024,182.385C-110.02,184.678 -110.013,186.971 -110.002,189.264C-109.988,192.481 -109.986,195.698 -109.987,198.916C-109.979,199.859 -109.972,200.803 -109.965,201.775C-110.006,215.168 -111.267,216.185 -114.194,219.347C-117.121,222.509 -122.842,220.812 -127.526,220.746C-128.524,220.738 -129.522,220.731 -130.551,220.724C-138.243,220.586 -145.83,219.931 -153.464,218.996C-154.493,218.87 -155.522,218.744 -156.582,218.614C-163.817,217.635 -163.722,218.923 -167.214,215.371C-170.595,211.93 -169.473,200.504 -169.409,192.67C-169.405,191.305 -169.402,189.94 -169.4,188.575C-169.394,185.647 -169.381,182.718 -169.364,179.79C-169.337,175.122 -169.325,170.453 -169.316,165.784C-169.292,154.999 -169.248,144.214 -169.203,133.428C-169.162,123.6 -169.126,113.772 -169.107,103.944C-169.099,100.082 -169.086,96.22 -169.063,92.359C-168.96,74.863 -170.139,55.03 -170.498,40.033C-170.797,27.48 -174.983,8.675 -171.214,2.371C-167.444,-3.934 -155.658,2.242 -147.88,2.206C-145.233,2.191 -142.586,2.17 -139.938,2.144C-136.138,2.108 -122.736,1.977 -121.603,2.03C-116.739,2.257 -113.327,5.839 -111.401,9.082C-109.822,11.74 -106.416,17.19 -103.214,20.996C-102.644,21.684 -102.074,22.372 -101.488,23.081C-99.739,25.185 -97.978,27.279 -96.214,29.371C-95.686,29.999 -95.159,30.627 -94.615,31.274C-88.947,38.01 -83.139,44.59 -77.149,51.041C-73.393,55.111 -69.392,60.27 -66.444,63.679C-64.159,66.322 -61.747,68.852 -59.464,71.496C-55.753,75.792 -52.332,82.56 -47.986,87.812C-44.329,92.231 -38.465,103.337 -36.214,102.371C-34.218,101.514 -35.301,60.712 -33.839,41.433C-33.781,40.644 -33.724,39.854 -33.665,39.041C-33.048,30.645 -32.191,22.308 -30.862,13.992C-30.759,13.284 -30.656,12.576 -30.549,11.847C-29.796,7.489 -28.593,3.681 -25.214,2.371C-20.122,0.396 -8.157,-0.121 0,0Z" style="fill:none;fill-rule:nonzero;stroke:black;stroke-width:65.28px;stroke-linecap:butt;stroke-miterlimit:2;"/>
                    <path d="M0,0C7.673,0.114 24.596,1.563 28.786,4.371C32.346,6.756 32.17,11.825 32.185,16.769C32.191,18.029 32.196,19.289 32.202,20.588C32.19,21.974 32.176,23.36 32.161,24.746C32.157,25.834 32.157,25.834 32.153,26.945C32.109,37.563 31.464,48.04 30.497,58.609C28.708,78.337 28.473,98 28.475,117.794C28.474,120.145 28.469,122.496 28.464,124.846C28.434,142.219 28.872,159.403 30.33,176.727C30.874,183.199 31.121,189.624 31.099,196.121C31.115,197.133 31.131,198.144 31.148,199.187C31.152,205.001 30.225,211.274 27.786,214.371C25.359,217.453 21.215,217.754 16.517,217.769C15.305,217.775 14.094,217.781 12.845,217.787C11.568,217.774 -22.718,214.191 -30.716,210.028C-36.979,206.768 -38.766,198.423 -42.964,192.746C-49.437,183.99 -59.893,168.788 -69.553,157.496C-72.774,153.726 -75.909,149.888 -79.038,146.042C-80.493,144.256 -81.954,142.475 -83.421,140.699C-91.126,131.36 -107.586,102.476 -110.214,105.371C-112.499,107.888 -110.13,133.512 -110.11,145.636C-110.1,151.868 -110.085,158.101 -110.063,164.333C-110.041,170.351 -110.029,176.368 -110.024,182.385C-110.02,184.678 -110.013,186.971 -110.002,189.264C-109.988,192.481 -109.986,195.698 -109.987,198.916C-109.979,199.859 -109.972,200.803 -109.965,201.775C-110.006,215.168 -111.267,216.185 -114.194,219.347C-117.121,222.509 -122.842,220.812 -127.526,220.746C-128.524,220.738 -129.522,220.731 -130.551,220.724C-138.243,220.586 -145.83,219.931 -153.464,218.996C-154.493,218.87 -155.522,218.744 -156.582,218.614C-163.817,217.635 -163.722,218.923 -167.214,215.371C-170.595,211.93 -169.473,200.504 -169.409,192.67C-169.405,191.305 -169.402,189.94 -169.4,188.575C-169.394,185.647 -169.381,182.718 -169.364,179.79C-169.337,175.122 -169.325,170.453 -169.316,165.784C-169.292,154.999 -169.248,144.214 -169.203,133.428C-169.162,123.6 -169.126,113.772 -169.107,103.944C-169.099,100.082 -169.086,96.22 -169.063,92.359C-168.96,74.863 -170.139,55.03 -170.498,40.033C-170.797,27.48 -174.983,8.675 -171.214,2.371C-167.444,-3.934 -155.658,2.242 -147.88,2.206C-145.233,2.191 -142.586,2.17 -139.938,2.144C-136.138,2.108 -122.736,1.977 -121.603,2.03C-116.739,2.257 -113.327,5.839 -111.401,9.082C-109.822,11.74 -106.416,17.19 -103.214,20.996C-102.644,21.684 -102.074,22.372 -101.488,23.081C-99.739,25.185 -97.978,27.279 -96.214,29.371C-95.686,29.999 -95.159,30.627 -94.615,31.274C-88.947,38.01 -83.139,44.59 -77.149,51.041C-73.393,55.111 -69.392,60.27 -66.444,63.679C-64.159,66.322 -61.747,68.852 -59.464,71.496C-55.753,75.792 -52.332,82.56 -47.986,87.812C-44.329,92.231 -38.465,103.337 -36.214,102.371C-34.218,101.514 -35.301,60.712 -33.839,41.433C-33.781,40.644 -33.724,39.854 -33.665,39.041C-33.048,30.645 -32.191,22.308 -30.862,13.992C-30.759,13.284 -30.656,12.576 -30.549,11.847C-29.796,7.489 -28.593,3.681 -25.214,2.371C-20.122,0.396 -8.157,-0.121 0,0Z" style="fill:rgb(21,166,92);fill-rule:nonzero;"/>
                </g>
                <g transform="matrix(1,0,0,1,1969.82,230.871)">
                    <path d="M0,0C13.803,-0.24 13.805,-0.005 16.074,-0.001C19.509,0.004 22.943,-0.001 26.377,-0.007C41.661,-0.015 56.537,-0.056 70.861,4.004C85.64,8.194 104.793,15.735 115.049,25.129C124.704,33.974 131.291,47.325 132.396,60.372C133.532,73.767 127.975,91.862 121.861,105.504C115.748,119.147 92.946,139.537 93.596,146.625C94.385,155.234 105.764,165.093 109.53,171.509C113.278,177.89 127.124,202.215 128.549,205.317C129.071,206.454 129.696,207.573 129.955,208.797C130.372,210.766 132.033,214.907 131.049,217.129C130.064,219.351 126.147,221.925 124.049,222.129C116.11,222.904 96.149,220.855 88.502,220.612C80.526,220.358 68.341,221.572 62.049,215.129C54.025,206.914 42.129,174.124 40.361,171.317C39.049,169.129 35.896,154.475 31.049,152.129C25.882,149.629 10.236,148.94 7.436,152.9C0.923,162.111 11.019,207.256 6.049,219.129C2.172,228.391 -13.28,223.343 -23.772,223.37C-26.078,223.379 -28.383,223.411 -30.689,223.442C-32.175,223.448 -47.836,223.981 -49.951,220.129C-52.523,215.447 -52.84,203.688 -52.639,195.399C-52.211,177.809 -47.347,141.844 -47.386,114.589C-47.389,112.113 -47.386,109.637 -47.382,107.162C-47.37,86.12 -48.413,65.341 -50.411,44.397C-50.971,38.337 -51.316,32.271 -51.602,26.193C-51.835,21.422 -53.388,10.318 -47.972,7.569C-39.372,3.204 -11.737,0.204 0,0ZM9.637,62.362C5.72,63.567 7.173,69.326 7.258,73.424C7.294,75.097 7.328,76.769 7.361,78.442C7.395,80.908 7.453,84.216 7.483,85.839C7.497,86.619 7.412,87.41 7.537,88.18C7.868,90.22 6.626,96.283 9.468,98.081C12.927,100.269 21.935,101.605 28.297,101.312C60.193,99.843 66.471,87.281 65.697,75.801C65.138,67.494 51.61,62.947 45.263,62.711C30.212,62.151 15.623,60.521 9.637,62.362Z" style="fill:none;stroke:black;stroke-width:65.28px;stroke-linecap:butt;stroke-miterlimit:2;"/>
                    <path d="M0,0C13.803,-0.24 13.805,-0.005 16.074,-0.001C19.509,0.004 22.943,-0.001 26.377,-0.007C41.661,-0.015 56.537,-0.056 70.861,4.004C85.64,8.194 104.793,15.735 115.049,25.129C124.704,33.974 131.291,47.325 132.396,60.372C133.532,73.767 127.975,91.862 121.861,105.504C115.748,119.147 92.946,139.537 93.596,146.625C94.385,155.234 105.764,165.093 109.53,171.509C113.278,177.89 127.124,202.215 128.549,205.317C129.071,206.454 129.696,207.573 129.955,208.797C130.372,210.766 132.033,214.907 131.049,217.129C130.064,219.351 126.147,221.925 124.049,222.129C116.11,222.904 96.149,220.855 88.502,220.612C80.526,220.358 68.341,221.572 62.049,215.129C54.025,206.914 42.129,174.124 40.361,171.317C39.049,169.129 35.896,154.475 31.049,152.129C25.882,149.629 10.236,148.94 7.436,152.9C0.923,162.111 11.019,207.256 6.049,219.129C2.172,228.391 -13.28,223.343 -23.772,223.37C-26.078,223.379 -28.383,223.411 -30.689,223.442C-32.175,223.448 -47.836,223.981 -49.951,220.129C-52.523,215.447 -52.84,203.688 -52.639,195.399C-52.211,177.809 -47.347,141.844 -47.386,114.589C-47.389,112.113 -47.386,109.637 -47.382,107.162C-47.37,86.12 -48.413,65.341 -50.411,44.397C-50.971,38.337 -51.316,32.271 -51.602,26.193C-51.835,21.422 -53.388,10.318 -47.972,7.569C-39.372,3.204 -11.737,0.204 0,0ZM9.637,62.362C5.72,63.567 7.173,69.326 7.258,73.424C7.294,75.097 7.328,76.769 7.361,78.442C7.395,80.908 7.453,84.216 7.483,85.839C7.497,86.619 7.412,87.41 7.537,88.18C7.868,90.22 6.626,96.283 9.468,98.081C12.927,100.269 21.935,101.605 28.297,101.312C60.193,99.843 66.471,87.281 65.697,75.801C65.138,67.494 51.61,62.947 45.263,62.711C30.212,62.151 15.623,60.521 9.637,62.362Z" style="fill:rgb(21,166,92);"/>
                </g>
                <g transform="matrix(1,0,0,1,386.261,236.52)">
                    <path d="M0,0C3.628,-0.02 7.257,0.035 10.88,-0.145C14.205,-0.309 16.16,-0.346 17.856,-0.176C25.529,0.593 32.959,2.782 36.23,4.904C38.696,6.503 39.589,9.513 40.739,12.48C42.397,16.585 44.521,20.202 46.497,24.02C48.924,28.707 53.577,37.304 55.302,40.605C55.853,41.661 56.379,42.732 56.846,43.828C59.841,50.857 68.091,69.665 73.274,82.781C74.574,86.062 75.887,89.337 77.208,92.609C81.174,102.504 86.227,116.941 88.29,122.563C88.749,123.812 89.16,125.078 89.588,126.338C92.662,135.398 101.048,160.054 106.738,176.925C107.955,180.532 109.172,184.138 110.391,187.743C111.067,189.744 111.872,192.137 112.415,193.748C112.826,194.967 113.265,196.263 113.651,197.406C114.012,198.473 114.346,199.549 114.731,200.607C115.264,202.075 116.098,204.362 116.851,206.213C117.805,208.649 117.926,211.566 118.052,213.105C118.306,216.225 116.233,219.563 114.739,220.48C113.245,221.398 110.651,220.822 109.138,220.9C107.98,220.96 106.819,220.941 105.659,220.949C104.453,220.957 103.153,220.945 101.899,220.949C100.63,220.953 99.326,220.969 98.04,220.972C96.049,220.978 92.648,220.987 89.952,220.981C86.501,220.976 83.051,221.006 79.599,221.047C76.303,221.079 71.985,221.061 69.712,221.074C68.461,221.081 67.166,221.12 65.959,221.124C64.796,221.127 63.561,221.153 62.47,221.096C56.998,220.808 54.11,217.761 52.739,215.48C51.368,213.2 51.554,210.202 51.177,207.418C50.943,205.903 50.643,204.007 50.466,202.875C50.348,202.124 50.279,201.365 50.111,200.624C49.582,198.278 47.852,191.658 47.29,188.801C46.946,187.051 47.251,184.006 44.816,183.628C41.992,183.191 18.497,187.254 5.974,187.989C2.911,188.169 -0.15,188.364 -3.212,188.561C-13.91,189.229 -31.642,185.996 -35.834,191.496C-38.686,195.238 -42.856,210.816 -46.261,215.48C-48.377,218.38 -54.39,220.251 -59.261,220.48C-64.917,220.747 -79.934,220.37 -90.237,219.736C-92.419,219.603 -94.602,219.485 -96.784,219.367C-98.196,219.283 -99.682,219.193 -101.019,219.113C-102.28,219.038 -103.564,219.138 -104.804,218.891C-107.011,218.452 -111.784,218.611 -113.275,216.185C-114.609,214.013 -113.614,211.355 -113.261,210.48C-112.542,208.699 -111.66,204.717 -110.948,201.793C-109.378,195.558 -107.68,189.431 -105.573,183.355C-103.996,178.782 -102.823,173.158 -101.751,169.584C-100.974,166.997 -99.96,164.487 -99.139,161.914C-97.747,157.548 -95.467,149.512 -93.397,143.387C-91.275,137.105 -89.115,130.53 -86.405,124.223C-85.435,121.898 -84.591,119.601 -83.823,117.203C-81.618,110.33 -78.885,103.64 -76.261,96.918C-75.455,94.85 -74.65,92.781 -73.846,90.713C-73.117,88.839 -72.386,86.965 -71.655,85.092C-70.682,82.571 -69.725,80.048 -68.784,77.515C-67.296,73.537 -65.014,68.017 -64.081,65.684C-63.791,64.958 -63.486,64.239 -63.188,63.517C-62.572,62.025 -61.32,58.992 -60.386,56.73C-59.767,55.231 -59.149,53.731 -58.53,52.23C-55.855,45.745 -53.171,39.264 -50.452,32.797C-48.851,28.959 -46.967,23.605 -46.073,21.168C-45.711,20.181 -45.379,19.182 -45.089,18.172C-44.631,16.578 -44.335,13.634 -43.323,11.605C-42.019,8.99 -40.788,3.425 -37.261,2.48C-30.04,0.546 -12.144,0.04 0,0ZM-1.261,58.48C-1.807,59.414 -2.234,62.761 -2.536,64.084C-2.714,64.862 -2.9,65.658 -3.073,66.418C-3.242,67.16 -3.406,67.904 -3.575,68.646C-3.745,69.391 -3.881,70.148 -4.093,70.883C-4.737,73.118 -6.19,78.358 -7.439,82.059C-7.971,83.627 -8.636,85.6 -9.029,86.765C-9.285,87.525 -9.541,88.286 -9.795,89.047C-10.481,91.103 -12.035,95.747 -13.146,99.1C-13.745,100.914 -14.346,102.729 -14.948,104.543C-15.861,107.252 -17.074,110.887 -17.67,112.674C-17.957,113.537 -18.315,114.38 -18.522,115.266C-19.16,117.986 -21.205,125.958 -21.494,128.994C-21.642,130.538 -21.803,133.317 -20.261,133.48C-13.222,134.228 15.333,140.065 20.739,133.48C26.146,126.896 21.03,120.435 12.178,93.973C11.301,91.354 10.432,88.732 9.565,86.109C9,84.397 8.434,82.685 7.868,80.973C5.625,74.213 2.572,64.374 1.384,60.625C1.158,59.914 1.18,58.838 0.739,58.48C0.299,58.123 -0.924,57.905 -1.261,58.48Z" style="fill:none;stroke:black;stroke-width:65.28px;stroke-linecap:butt;stroke-miterlimit:2;"/>
                    <path d="M0,0C3.628,-0.02 7.257,0.035 10.88,-0.145C14.205,-0.309 16.16,-0.346 17.856,-0.176C25.529,0.593 32.959,2.782 36.23,4.904C38.696,6.503 39.589,9.513 40.739,12.48C42.397,16.585 44.521,20.202 46.497,24.02C48.924,28.707 53.577,37.304 55.302,40.605C55.853,41.661 56.379,42.732 56.846,43.828C59.841,50.857 68.091,69.665 73.274,82.781C74.574,86.062 75.887,89.337 77.208,92.609C81.174,102.504 86.227,116.941 88.29,122.563C88.749,123.812 89.16,125.078 89.588,126.338C92.662,135.398 101.048,160.054 106.738,176.925C107.955,180.532 109.172,184.138 110.391,187.743C111.067,189.744 111.872,192.137 112.415,193.748C112.826,194.967 113.265,196.263 113.651,197.406C114.012,198.473 114.346,199.549 114.731,200.607C115.264,202.075 116.098,204.362 116.851,206.213C117.805,208.649 117.926,211.566 118.052,213.105C118.306,216.225 116.233,219.563 114.739,220.48C113.245,221.398 110.651,220.822 109.138,220.9C107.98,220.96 106.819,220.941 105.659,220.949C104.453,220.957 103.153,220.945 101.899,220.949C100.63,220.953 99.326,220.969 98.04,220.972C96.049,220.978 92.648,220.987 89.952,220.981C86.501,220.976 83.051,221.006 79.599,221.047C76.303,221.079 71.985,221.061 69.712,221.074C68.461,221.081 67.166,221.12 65.959,221.124C64.796,221.127 63.561,221.153 62.47,221.096C56.998,220.808 54.11,217.761 52.739,215.48C51.368,213.2 51.554,210.202 51.177,207.418C50.943,205.903 50.643,204.007 50.466,202.875C50.348,202.124 50.279,201.365 50.111,200.624C49.582,198.278 47.852,191.658 47.29,188.801C46.946,187.051 47.251,184.006 44.816,183.628C41.992,183.191 18.497,187.254 5.974,187.989C2.911,188.169 -0.15,188.364 -3.212,188.561C-13.91,189.229 -31.642,185.996 -35.834,191.496C-38.686,195.238 -42.856,210.816 -46.261,215.48C-48.377,218.38 -54.39,220.251 -59.261,220.48C-64.917,220.747 -79.934,220.37 -90.237,219.736C-92.419,219.603 -94.602,219.485 -96.784,219.367C-98.196,219.283 -99.682,219.193 -101.019,219.113C-102.28,219.038 -103.564,219.138 -104.804,218.891C-107.011,218.452 -111.784,218.611 -113.275,216.185C-114.609,214.013 -113.614,211.355 -113.261,210.48C-112.542,208.699 -111.66,204.717 -110.948,201.793C-109.378,195.558 -107.68,189.431 -105.573,183.355C-103.996,178.782 -102.823,173.158 -101.751,169.584C-100.974,166.997 -99.96,164.487 -99.139,161.914C-97.747,157.548 -95.467,149.512 -93.397,143.387C-91.275,137.105 -89.115,130.53 -86.405,124.223C-85.435,121.898 -84.591,119.601 -83.823,117.203C-81.618,110.33 -78.885,103.64 -76.261,96.918C-75.455,94.85 -74.65,92.781 -73.846,90.713C-73.117,88.839 -72.386,86.965 -71.655,85.092C-70.682,82.571 -69.725,80.048 -68.784,77.515C-67.296,73.537 -65.014,68.017 -64.081,65.684C-63.791,64.958 -63.486,64.239 -63.188,63.517C-62.572,62.025 -61.32,58.992 -60.386,56.73C-59.767,55.231 -59.149,53.731 -58.53,52.23C-55.855,45.745 -53.171,39.264 -50.452,32.797C-48.851,28.959 -46.967,23.605 -46.073,21.168C-45.711,20.181 -45.379,19.182 -45.089,18.172C-44.631,16.578 -44.335,13.634 -43.323,11.605C-42.019,8.99 -40.788,3.425 -37.261,2.48C-30.04,0.546 -12.144,0.04 0,0ZM-1.261,58.48C-1.807,59.414 -2.234,62.761 -2.536,64.084C-2.714,64.862 -2.9,65.658 -3.073,66.418C-3.242,67.16 -3.406,67.904 -3.575,68.646C-3.745,69.391 -3.881,70.148 -4.093,70.883C-4.737,73.118 -6.19,78.358 -7.439,82.059C-7.971,83.627 -8.636,85.6 -9.029,86.765C-9.285,87.525 -9.541,88.286 -9.795,89.047C-10.481,91.103 -12.035,95.747 -13.146,99.1C-13.745,100.914 -14.346,102.729 -14.948,104.543C-15.861,107.252 -17.074,110.887 -17.67,112.674C-17.957,113.537 -18.315,114.38 -18.522,115.266C-19.16,117.986 -21.205,125.958 -21.494,128.994C-21.642,130.538 -21.803,133.317 -20.261,133.48C-13.222,134.228 15.333,140.065 20.739,133.48C26.146,126.896 21.03,120.435 12.178,93.973C11.301,91.354 10.432,88.732 9.565,86.109C9,84.397 8.434,82.685 7.868,80.973C5.625,74.213 2.572,64.374 1.384,60.625C1.158,59.914 1.18,58.838 0.739,58.48C0.299,58.123 -0.924,57.905 -1.261,58.48Z" style="fill:rgb(21,166,92);"/>
                </g>
                <g transform="matrix(1,0,0,1,2161.49,234.867)">
                    <path d="M0,0C0.655,-0.001 1.311,-0.002 1.986,-0.003C3.371,-0.004 4.756,-0.002 6.141,0.002C8.188,0.008 10.234,0.003 12.281,-0.004C19.485,-0.007 26.641,0.195 33.832,0.633C45.091,1.3 56.347,1.284 67.622,1.263C71.205,1.258 74.787,1.263 78.369,1.27C80.672,1.269 82.975,1.268 85.277,1.266C86.336,1.268 87.394,1.27 88.485,1.272C94.087,1.254 99.476,-0.081 104.984,0.133C113.202,0.452 132.022,0.969 137.793,3.188C141.034,4.434 139.523,9.826 139.609,13.445C139.661,14.942 140.371,23.379 140.492,25.016C140.722,28.109 141.209,34.088 141.234,38.695C141.265,40.094 141.265,40.094 141.297,41.521C141.326,46.552 140.283,51.691 137.984,54.133C135.686,56.575 125.541,56.35 124.53,56.441C117.183,57.055 100.395,57.429 99.313,57.44C95.015,57.478 90.718,57.506 86.421,57.514C73.05,57.554 50.054,60.016 47.984,62.133C46.308,63.848 46.759,70.432 46.796,72.798C46.816,74.131 47.246,77.403 49.383,79.196C53.437,82.599 67.791,80.291 78.265,80.263C80.68,80.258 83.095,80.263 85.51,80.27C93.153,80.273 102.315,79.6 108.301,79.369C112.674,79.2 117.034,78.91 121.422,78.883C122.28,78.862 123.138,78.842 124.021,78.82C128.818,78.791 133.332,78.957 135.984,82.133C138.812,85.518 141.259,95.953 141.609,102.82C141.847,107.484 142.636,122.942 139.984,127.133C134.492,135.815 95.569,137 82.237,138.644C71.833,139.927 49.6,141.312 47.957,143.369C46.177,145.598 46.161,147.044 46.708,150.806C47.177,154.037 46.526,162.3 50.984,165.133C53.566,166.773 62.581,165.219 68.379,165.243C70.348,165.253 72.317,165.266 74.286,165.284C77.131,165.308 108.574,163.204 112.484,162.695C117.367,162.06 125.564,160.375 129.98,159.781C132.963,159.38 136.587,157.857 138.984,159.133C146.455,163.11 145.124,171.551 145.117,174.273C145.118,175.074 145.119,180.088 145.115,181.783C145.109,184.359 145.069,195.99 145.123,196.775C145.468,201.75 147.847,210.713 142.883,211.988C123.692,216.92 60.138,226.231 29.981,226.364C27.493,226.376 25.005,226.394 22.517,226.417C18.97,226.447 15.423,226.456 11.875,226.461C10.278,226.479 10.278,226.479 8.649,226.498C1.347,226.477 -7.688,223.63 -11.453,221.258C-16.41,218.135 -18.254,208.323 -18.48,205.484C-18.558,204.56 -18.636,203.636 -18.717,202.684C-18.871,200.772 -19.025,198.861 -19.178,196.949C-19.601,191.947 -20.148,186.998 -20.921,182.037C-21.099,180.897 -21.276,179.757 -21.459,178.583C-21.971,175.407 -22.84,172.278 -23.075,169.07C-23.89,157.927 -26.535,131.125 -26.349,111.728C-26.321,108.442 -26.313,105.156 -26.305,101.87C-26.234,73.045 -26.197,45.654 -23.236,16.961C-22.53,10.122 -23.636,7.209 -20.016,3.133C-17.102,-0.147 -6.849,0.007 0,0Z" style="fill:none;fill-rule:nonzero;stroke:black;stroke-width:65.28px;stroke-linecap:butt;stroke-miterlimit:2;"/>
                    <path d="M0,0C0.655,-0.001 1.311,-0.002 1.986,-0.003C3.371,-0.004 4.756,-0.002 6.141,0.002C8.188,0.008 10.234,0.003 12.281,-0.004C19.485,-0.007 26.641,0.195 33.832,0.633C45.091,1.3 56.347,1.284 67.622,1.263C71.205,1.258 74.787,1.263 78.369,1.27C80.672,1.269 82.975,1.268 85.277,1.266C86.336,1.268 87.394,1.27 88.485,1.272C94.087,1.254 99.476,-0.081 104.984,0.133C113.202,0.452 132.022,0.969 137.793,3.188C141.034,4.434 139.523,9.826 139.609,13.445C139.661,14.942 140.371,23.379 140.492,25.016C140.722,28.109 141.209,34.088 141.234,38.695C141.265,40.094 141.265,40.094 141.297,41.521C141.326,46.552 140.283,51.691 137.984,54.133C135.686,56.575 125.541,56.35 124.53,56.441C117.183,57.055 100.395,57.429 99.313,57.44C95.015,57.478 90.718,57.506 86.421,57.514C73.05,57.554 50.054,60.016 47.984,62.133C46.308,63.848 46.759,70.432 46.796,72.798C46.816,74.131 47.246,77.403 49.383,79.196C53.437,82.599 67.791,80.291 78.265,80.263C80.68,80.258 83.095,80.263 85.51,80.27C93.153,80.273 102.315,79.6 108.301,79.369C112.674,79.2 117.034,78.91 121.422,78.883C122.28,78.862 123.138,78.842 124.021,78.82C128.818,78.791 133.332,78.957 135.984,82.133C138.812,85.518 141.259,95.953 141.609,102.82C141.847,107.484 142.636,122.942 139.984,127.133C134.492,135.815 95.569,137 82.237,138.644C71.833,139.927 49.6,141.312 47.957,143.369C46.177,145.598 46.161,147.044 46.708,150.806C47.177,154.037 46.526,162.3 50.984,165.133C53.566,166.773 62.581,165.219 68.379,165.243C70.348,165.253 72.317,165.266 74.286,165.284C77.131,165.308 108.574,163.204 112.484,162.695C117.367,162.06 125.564,160.375 129.98,159.781C132.963,159.38 136.587,157.857 138.984,159.133C146.455,163.11 145.124,171.551 145.117,174.273C145.118,175.074 145.119,180.088 145.115,181.783C145.109,184.359 145.069,195.99 145.123,196.775C145.468,201.75 147.847,210.713 142.883,211.988C123.692,216.92 60.138,226.231 29.981,226.364C27.493,226.376 25.005,226.394 22.517,226.417C18.97,226.447 15.423,226.456 11.875,226.461C10.278,226.479 10.278,226.479 8.649,226.498C1.347,226.477 -7.688,223.63 -11.453,221.258C-16.41,218.135 -18.254,208.323 -18.48,205.484C-18.558,204.56 -18.636,203.636 -18.717,202.684C-18.871,200.772 -19.025,198.861 -19.178,196.949C-19.601,191.947 -20.148,186.998 -20.921,182.037C-21.099,180.897 -21.276,179.757 -21.459,178.583C-21.971,175.407 -22.84,172.278 -23.075,169.07C-23.89,157.927 -26.535,131.125 -26.349,111.728C-26.321,108.442 -26.313,105.156 -26.305,101.87C-26.234,73.045 -26.197,45.654 -23.236,16.961C-22.53,10.122 -23.636,7.209 -20.016,3.133C-17.102,-0.147 -6.849,0.007 0,0Z" style="fill:rgb(21,166,92);fill-rule:nonzero;"/>
                </g>
                <g transform="matrix(1,0,0,1,2651.88,227.312)">
                    <path d="M0,0C0.797,0.006 1.593,0.012 2.414,0.018C14.298,0.133 24.726,1.301 35.851,5.712C38.881,6.855 41.945,7.816 45.039,8.773C76.48,18.576 82.313,22.624 85.676,30.476C88.107,36.151 81.53,47.109 79.875,50.125C76.618,55.944 72.972,61.43 69.125,66.875C68.609,67.606 68.094,68.337 67.562,69.09C63.026,75.425 62.458,76.255 60.438,77.688C59.078,78.652 56.771,78.188 55.438,77.688C54.113,77.191 37.387,63.781 20.023,59.844C14.98,58.7 10.233,57.505 4.688,57.5C3.527,57.482 3.527,57.482 2.344,57.463C-5.124,57.444 -22.417,58.12 -21.563,67.688C-20.539,79.155 33.357,82.302 45.438,88.688C46.568,89.266 47.699,89.845 48.863,90.441C67.573,100.688 87.342,123.146 93.438,138.688C99.001,152.871 93.368,170.023 85.438,183.688C75.461,199.038 61.169,211.852 44.199,215.738C21.223,221 -24.483,225.882 -52.418,215.258C-60.026,212.2 -67.151,208.384 -74.188,204.188C-74.934,203.749 -75.68,203.311 -76.448,202.859C-81.317,199.856 -87.148,196.995 -88.563,191.688C-90.019,186.221 -87.993,176.325 -83.648,167.598C-81.393,163.066 -72.539,148.148 -70.563,145.688C-67.337,141.673 -64.43,139.438 -58.137,140.318C-55.757,140.651 -50.817,143.854 -48.563,144.688C-37.645,148.725 -12.917,166.422 10.944,164.913C18.316,164.246 30.242,162.103 31.438,158.688C32.92,154.452 28.272,150.782 25.016,148.375C21.182,145.542 14.247,143.393 8.438,141.688C7.49,141.409 6.542,141.13 5.565,140.843C-5.249,137.694 -20.847,133.985 -27.109,132.293C-28.768,131.845 -29.563,131.688 -32.008,130.691C-34.881,129.562 -37.855,129.393 -40.688,128.438C-58.276,122.506 -75.372,108.772 -81.563,89.688C-81.962,88.455 -85.04,75.804 -85,70.313C-85.02,69.335 -85.04,68.358 -85.061,67.352C-85.056,60.315 -79.848,46.993 -79.48,46.12C-72.232,29.062 -50.445,10.759 -27.83,4.429C-18.784,1.897 -10.083,-0.151 0,0Z" style="fill:none;fill-rule:nonzero;stroke:black;stroke-width:65.28px;stroke-linecap:butt;stroke-miterlimit:2;"/>
                    <path d="M0,0C0.797,0.006 1.593,0.012 2.414,0.018C14.298,0.133 24.726,1.301 35.851,5.712C38.881,6.855 41.945,7.816 45.039,8.773C76.48,18.576 82.313,22.624 85.676,30.476C88.107,36.151 81.53,47.109 79.875,50.125C76.618,55.944 72.972,61.43 69.125,66.875C68.609,67.606 68.094,68.337 67.562,69.09C63.026,75.425 62.458,76.255 60.438,77.688C59.078,78.652 56.771,78.188 55.438,77.688C54.113,77.191 37.387,63.781 20.023,59.844C14.98,58.7 10.233,57.505 4.688,57.5C3.527,57.482 3.527,57.482 2.344,57.463C-5.124,57.444 -22.417,58.12 -21.563,67.688C-20.539,79.155 33.357,82.302 45.438,88.688C46.568,89.266 47.699,89.845 48.863,90.441C67.573,100.688 87.342,123.146 93.438,138.688C99.001,152.871 93.368,170.023 85.438,183.688C75.461,199.038 61.169,211.852 44.199,215.738C21.223,221 -24.483,225.882 -52.418,215.258C-60.026,212.2 -67.151,208.384 -74.188,204.188C-74.934,203.749 -75.68,203.311 -76.448,202.859C-81.317,199.856 -87.148,196.995 -88.563,191.688C-90.019,186.221 -87.993,176.325 -83.648,167.598C-81.393,163.066 -72.539,148.148 -70.563,145.688C-67.337,141.673 -64.43,139.438 -58.137,140.318C-55.757,140.651 -50.817,143.854 -48.563,144.688C-37.645,148.725 -12.917,166.422 10.944,164.913C18.316,164.246 30.242,162.103 31.438,158.688C32.92,154.452 28.272,150.782 25.016,148.375C21.182,145.542 14.247,143.393 8.438,141.688C7.49,141.409 6.542,141.13 5.565,140.843C-5.249,137.694 -20.847,133.985 -27.109,132.293C-28.768,131.845 -29.563,131.688 -32.008,130.691C-34.881,129.562 -37.855,129.393 -40.688,128.438C-58.276,122.506 -75.372,108.772 -81.563,89.688C-81.962,88.455 -85.04,75.804 -85,70.313C-85.02,69.335 -85.04,68.358 -85.061,67.352C-85.056,60.315 -79.848,46.993 -79.48,46.12C-72.232,29.062 -50.445,10.759 -27.83,4.429C-18.784,1.897 -10.083,-0.151 0,0Z" style="fill:rgb(21,166,92);fill-rule:nonzero;"/>
                </g>
                <g transform="matrix(1,0,0,1,978.318,234.688)">
                    <path d="M0,0C1.347,-0.026 1.347,-0.026 2.721,-0.053C6.358,-0.05 10.837,-0.555 12.926,1.207C15.014,2.969 15.596,7.338 15.253,10.52C14.838,14.37 12.517,19.771 10.438,24.313C9.421,26.622 8.406,28.932 7.391,31.242C6.817,32.531 6.244,33.82 5.67,35.108C3.631,39.704 1.649,44.323 -0.328,48.945C-0.87,50.212 -0.87,50.212 -1.423,51.505C-2.171,53.256 -2.919,55.006 -3.667,56.757C-5.607,61.296 -7.552,65.834 -9.496,70.371C-10.082,71.738 -10.082,71.738 -10.679,73.133C-12.95,78.432 -15.228,83.728 -17.513,89.021C-31.851,122.26 -44.823,155.88 -56.735,190.065C-58.514,195.162 -60.336,200.242 -62.188,205.313C-62.451,206.046 -62.714,206.78 -62.985,207.536C-63.71,209.529 -65.679,217.563 -69.269,219.725C-72.753,221.823 -76.918,221.905 -78.813,222.004C-81.734,222.199 -84.594,222.735 -87.5,222.902C-95.083,223.339 -112.012,224.55 -124.313,224.625C-125.603,224.639 -125.603,224.639 -126.919,224.654C-129.387,224.678 -131.853,224.68 -134.32,224.676C-135.069,224.685 -135.819,224.694 -136.59,224.703C-141.726,224.658 -142.368,224.298 -143.877,223.047C-145.387,221.795 -145.061,219.147 -145.647,217.195C-146.64,213.886 -147.72,207.902 -149.836,203.195C-150.388,201.926 -150.388,201.926 -150.952,200.632C-151.738,198.829 -152.53,197.028 -153.326,195.23C-155.002,191.444 -156.649,187.646 -158.298,183.849C-159.52,181.035 -160.746,178.222 -161.973,175.41C-175.093,145.268 -188.35,105.505 -196.646,83.239C-201.778,69.466 -207.66,53.467 -211.75,41.813C-215.064,32.37 -219.485,18.414 -221.188,13.313C-221.425,12.602 -222.199,9.157 -220.471,7.922C-219.111,6.95 -215.76,6.626 -213.047,6.617C-207.962,6.601 -198.152,7.466 -190.625,7.444C-188.39,7.437 -186.156,7.44 -183.921,7.443C-175.328,7.435 -157.163,4.498 -153.188,6.313C-150.871,7.37 -148.927,13.201 -147.25,16.875C-145.5,20.708 -144.448,25.216 -142.688,29.313C-140.58,34.247 -138.704,40.37 -137.215,44.328C-136.112,47.26 -135.005,50.169 -133.75,53.063C-131.442,58.458 -129.688,63.922 -127.992,69.53C-126.874,73.202 -125.671,76.773 -124.188,80.313C-119.639,91.285 -116.669,104.346 -113.502,114.346C-110.758,123.01 -106.58,140.139 -105.188,140.313C-103.652,140.504 -98.054,116.632 -94.625,106.438C-94.107,104.887 -93.588,103.337 -93.07,101.786C-90.38,93.751 -87.651,85.73 -84.879,77.723C-84.61,76.944 -84.341,76.165 -84.064,75.363C-82.782,71.656 -81.495,67.95 -80.197,64.249C-77.484,56.457 -76.363,48.197 -73.095,40.666C-68.76,30.676 -59.985,10.611 -54.188,4.313C-50.589,0.403 -43.647,3.064 -38.313,2.875C-31.868,2.617 -25.568,1.729 -19.188,1.25C-12.802,0.771 -6.468,0.063 0,0Z" style="fill:none;fill-rule:nonzero;stroke:black;stroke-width:65.28px;stroke-linecap:butt;stroke-miterlimit:2;"/>
                    <path d="M0,0C1.347,-0.026 1.347,-0.026 2.721,-0.053C6.358,-0.05 10.837,-0.555 12.926,1.207C15.014,2.969 15.596,7.338 15.253,10.52C14.838,14.37 12.517,19.771 10.438,24.313C9.421,26.622 8.406,28.932 7.391,31.242C6.817,32.531 6.244,33.82 5.67,35.108C3.631,39.704 1.649,44.323 -0.328,48.945C-0.87,50.212 -0.87,50.212 -1.423,51.505C-2.171,53.256 -2.919,55.006 -3.667,56.757C-5.607,61.296 -7.552,65.834 -9.496,70.371C-10.082,71.738 -10.082,71.738 -10.679,73.133C-12.95,78.432 -15.228,83.728 -17.513,89.021C-31.851,122.26 -44.823,155.88 -56.735,190.065C-58.514,195.162 -60.336,200.242 -62.188,205.313C-62.451,206.046 -62.714,206.78 -62.985,207.536C-63.71,209.529 -65.679,217.563 -69.269,219.725C-72.753,221.823 -76.918,221.905 -78.813,222.004C-81.734,222.199 -84.594,222.735 -87.5,222.902C-95.083,223.339 -112.012,224.55 -124.313,224.625C-125.603,224.639 -125.603,224.639 -126.919,224.654C-129.387,224.678 -131.853,224.68 -134.32,224.676C-135.069,224.685 -135.819,224.694 -136.59,224.703C-141.726,224.658 -142.368,224.298 -143.877,223.047C-145.387,221.795 -145.061,219.147 -145.647,217.195C-146.64,213.886 -147.72,207.902 -149.836,203.195C-150.388,201.926 -150.388,201.926 -150.952,200.632C-151.738,198.829 -152.53,197.028 -153.326,195.23C-155.002,191.444 -156.649,187.646 -158.298,183.849C-159.52,181.035 -160.746,178.222 -161.973,175.41C-175.093,145.268 -188.35,105.505 -196.646,83.239C-201.778,69.466 -207.66,53.467 -211.75,41.813C-215.064,32.37 -219.485,18.414 -221.188,13.313C-221.425,12.602 -222.199,9.157 -220.471,7.922C-219.111,6.95 -215.76,6.626 -213.047,6.617C-207.962,6.601 -198.152,7.466 -190.625,7.444C-188.39,7.437 -186.156,7.44 -183.921,7.443C-175.328,7.435 -157.163,4.498 -153.188,6.313C-150.871,7.37 -148.927,13.201 -147.25,16.875C-145.5,20.708 -144.448,25.216 -142.688,29.313C-140.58,34.247 -138.704,40.37 -137.215,44.328C-136.112,47.26 -135.005,50.169 -133.75,53.063C-131.442,58.458 -129.688,63.922 -127.992,69.53C-126.874,73.202 -125.671,76.773 -124.188,80.313C-119.639,91.285 -116.669,104.346 -113.502,114.346C-110.758,123.01 -106.58,140.139 -105.188,140.313C-103.652,140.504 -98.054,116.632 -94.625,106.438C-94.107,104.887 -93.588,103.337 -93.07,101.786C-90.38,93.751 -87.651,85.73 -84.879,77.723C-84.61,76.944 -84.341,76.165 -84.064,75.363C-82.782,71.656 -81.495,67.95 -80.197,64.249C-77.484,56.457 -76.363,48.197 -73.095,40.666C-68.76,30.676 -59.985,10.611 -54.188,4.313C-50.589,0.403 -43.647,3.064 -38.313,2.875C-31.868,2.617 -25.568,1.729 -19.188,1.25C-12.802,0.771 -6.468,0.063 0,0Z" style="fill:rgb(21,166,92);fill-rule:nonzero;"/>
                </g>
                <g transform="matrix(1,0,0,1,1860.52,238.625)">
                    <path d="M0,0C0.77,-0.026 1.539,-0.052 2.333,-0.079C5.851,-0.09 9.79,-0.809 11.906,1.648C14.267,4.391 15.615,12.92 16.5,16.375C17,18.327 16.977,20.377 17.216,22.378C17.743,26.887 18.214,31.403 18.695,35.917C18.955,38.364 19.217,40.811 19.48,43.258C19.566,44.057 19.652,44.856 19.74,45.679C20.216,50.029 21.125,54.32 21.426,58.68C22.104,68.504 23.792,89.184 23.813,104.625C23.816,105.732 23.82,106.839 23.823,107.979C23.908,156.445 23.908,156.445 14.5,174.375C14.041,175.286 13.582,176.198 13.109,177.137C1.151,199.341 -7.316,210.44 -43.418,219.332C-52.933,221.676 -62.602,223.854 -72.625,222.688C-103.725,219.069 -129.139,217.076 -158.314,185.976C-172.259,171.112 -178.019,150.088 -180.07,128.832C-180.197,127.584 -180.323,126.335 -180.454,125.049C-180.785,121.76 -181.109,118.471 -181.429,115.181C-181.753,111.885 -182.091,108.59 -182.426,105.295C-185.003,79.652 -186.401,54.759 -184.125,29.063C-184.062,28.331 -183.999,27.599 -183.934,26.845C-183.749,24.733 -183.552,22.622 -183.352,20.512C-183.236,19.282 -183.393,17.969 -183.002,16.784C-182.18,14.286 -181.112,7.659 -178.417,5.525C-175.722,3.39 -171.03,3.945 -166.832,3.977C-165.58,3.972 -165.58,3.972 -164.302,3.968C-162.538,3.966 -160.774,3.971 -159.01,3.984C-156.339,4 -153.635,3.546 -150.998,3.965C-145.08,4.905 -128.621,1.792 -123.5,9.625C-118.062,17.942 -118.337,40.755 -118.37,53.868C-118.375,56.439 -118.37,59.009 -118.363,61.58C-118.36,70.523 -119.035,80.29 -119.264,88.281C-119.468,95.363 -119.724,102.444 -119.74,109.531C-119.75,112.071 -117.963,148.491 -106.938,160.75C-98.254,168.552 -88.913,171.259 -77.469,171.088C-68.733,170.615 -61.277,167.704 -55.188,161.25C-54.248,159.989 -53.357,158.693 -52.5,157.375C-51.916,156.487 -51.332,155.599 -50.73,154.684C-43.473,142.964 -35.719,131.463 -35.79,117.75C-35.786,117.032 -35.782,116.314 -35.778,115.574C-35.786,111.301 -36.277,107.096 -36.411,102.852C-36.632,95.882 -37.101,83.465 -37.1,73.758C-37.103,70.41 -37.121,67.063 -37.14,63.715C-37.174,50.148 -37.587,21.478 -37.676,19.543C-37.723,17.883 -38.942,6.902 -35.613,3.375C-32.916,0.517 -26.961,1.531 -22.375,1.188C-21.409,1.11 -20.443,1.032 -19.447,0.953C-12.971,0.471 -6.493,0.12 0,0Z" style="fill:none;fill-rule:nonzero;stroke:black;stroke-width:65.28px;stroke-linecap:butt;stroke-miterlimit:2;"/>
                    <path d="M0,0C0.77,-0.026 1.539,-0.052 2.333,-0.079C5.851,-0.09 9.79,-0.809 11.906,1.648C14.267,4.391 15.615,12.92 16.5,16.375C17,18.327 16.977,20.377 17.216,22.378C17.743,26.887 18.214,31.403 18.695,35.917C18.955,38.364 19.217,40.811 19.48,43.258C19.566,44.057 19.652,44.856 19.74,45.679C20.216,50.029 21.125,54.32 21.426,58.68C22.104,68.504 23.792,89.184 23.813,104.625C23.816,105.732 23.82,106.839 23.823,107.979C23.908,156.445 23.908,156.445 14.5,174.375C14.041,175.286 13.582,176.198 13.109,177.137C1.151,199.341 -7.316,210.44 -43.418,219.332C-52.933,221.676 -62.602,223.854 -72.625,222.688C-103.725,219.069 -129.139,217.076 -158.314,185.976C-172.259,171.112 -178.019,150.088 -180.07,128.832C-180.197,127.584 -180.323,126.335 -180.454,125.049C-180.785,121.76 -181.109,118.471 -181.429,115.181C-181.753,111.885 -182.091,108.59 -182.426,105.295C-185.003,79.652 -186.401,54.759 -184.125,29.063C-184.062,28.331 -183.999,27.599 -183.934,26.845C-183.749,24.733 -183.552,22.622 -183.352,20.512C-183.236,19.282 -183.393,17.969 -183.002,16.784C-182.18,14.286 -181.112,7.659 -178.417,5.525C-175.722,3.39 -171.03,3.945 -166.832,3.977C-165.58,3.972 -165.58,3.972 -164.302,3.968C-162.538,3.966 -160.774,3.971 -159.01,3.984C-156.339,4 -153.635,3.546 -150.998,3.965C-145.08,4.905 -128.621,1.792 -123.5,9.625C-118.062,17.942 -118.337,40.755 -118.37,53.868C-118.375,56.439 -118.37,59.009 -118.363,61.58C-118.36,70.523 -119.035,80.29 -119.264,88.281C-119.468,95.363 -119.724,102.444 -119.74,109.531C-119.75,112.071 -117.963,148.491 -106.938,160.75C-98.254,168.552 -88.913,171.259 -77.469,171.088C-68.733,170.615 -61.277,167.704 -55.188,161.25C-54.248,159.989 -53.357,158.693 -52.5,157.375C-51.916,156.487 -51.332,155.599 -50.73,154.684C-43.473,142.964 -35.719,131.463 -35.79,117.75C-35.786,117.032 -35.782,116.314 -35.778,115.574C-35.786,111.301 -36.277,107.096 -36.411,102.852C-36.632,95.882 -37.101,83.465 -37.1,73.758C-37.103,70.41 -37.121,67.063 -37.14,63.715C-37.174,50.148 -37.587,21.478 -37.676,19.543C-37.723,17.883 -38.942,6.902 -35.613,3.375C-32.916,0.517 -26.961,1.531 -22.375,1.188C-21.409,1.11 -20.443,1.032 -19.447,0.953C-12.971,0.471 -6.493,0.12 0,0Z" style="fill:rgb(21,166,92);fill-rule:nonzero;"/>
                </g>
                <g transform="matrix(1,0,0,1,1133.9,237.799)">
                    <path d="M0,0C6.343,-0.109 12.685,-0.187 19.029,-0.232C21.107,-0.25 23.185,-0.274 25.263,-0.305C28.203,-0.347 31.142,-0.363 34.082,-0.372C34.95,-0.389 35.817,-0.407 36.711,-0.425C43.38,-0.401 51.62,0.049 54.687,5.572C58.44,12.329 58.46,33.79 59.227,40.116C59.364,41.246 59.258,41.805 59.289,43.529C59.297,45.136 59.297,45.136 59.305,46.777C59.314,47.743 59.484,49.308 59.106,51.335C58.469,54.749 55.14,54.299 51.556,54.265C50.665,54.262 49.773,54.258 48.854,54.255C47.892,54.241 46.929,54.228 45.938,54.214C44.444,54.206 44.444,54.206 42.921,54.198C39.731,54.181 36.541,54.149 33.352,54.116C30.183,54.089 27.015,54.064 23.846,54.045C21.875,54.033 19.904,54.016 17.933,53.992C12.972,53.956 7.926,54.582 3.277,54.812C-1.136,55.03 -5.543,55.293 -9.965,55.37C-10.973,55.391 -11.981,55.412 -13.02,55.433C-16.209,55.498 -19.397,55.557 -22.586,55.616C-24.761,55.66 -26.936,55.703 -29.111,55.747C-34.415,55.854 -41.733,53.602 -43.272,55.723C-44.361,57.224 -43.852,64.009 -43.742,66.726C-43.686,67.969 -43.686,67.969 -43.629,69.238C-43.558,70.964 -43.488,72.691 -43.418,74.417C-43.362,75.653 -43.362,75.653 -43.305,76.913C-43.274,77.661 -43.244,78.408 -43.213,79.178C-43.126,81.144 -43.68,82.46 -42.023,83.054C-37.983,84.503 -25.813,84.199 -17.949,84.187C-16.613,84.187 -15.276,84.188 -13.939,84.19C-11.157,84.191 -8.374,84.189 -5.591,84.184C-2.041,84.179 1.509,84.182 5.06,84.188C7.813,84.192 10.566,84.19 13.319,84.188C15.259,84.187 17.199,84.19 19.14,84.193C24.865,84.178 32.056,83.285 35.977,83.054C38.203,82.922 40.434,82.836 42.664,82.804C44.31,82.765 51.994,83.668 52.977,86.054C54.329,89.338 54.139,96.898 54.102,102.429C54.097,103.194 54.092,103.959 54.087,104.748C54.062,107.183 54.022,109.618 53.977,112.054C53.964,112.891 53.951,113.727 53.939,114.59C53.892,117.058 53.815,119.524 53.727,121.991C53.713,122.754 53.699,123.517 53.684,124.303C53.445,129.548 53.393,130.455 51.18,131.995C48.773,133.67 43.609,134.208 39.244,134.351C38.087,134.391 36.93,134.431 35.737,134.472C34.483,134.511 33.23,134.549 31.938,134.589C30.629,134.632 29.32,134.675 27.971,134.719C25.186,134.81 22.4,134.898 19.614,134.984C16.127,135.091 12.64,135.206 9.153,135.323C-8.241,135.904 -38.299,134.307 -41.012,137.178C-44.189,140.542 -42.535,147.749 -42.455,149.724C-42.417,150.594 -42.379,151.465 -42.34,152.363C-42.303,153.237 -42.266,154.112 -42.229,155.013C-41.957,159.042 -44.588,165.166 -41.023,167.054C-37.201,169.078 -26.536,167.136 -19.293,167.158C-15.926,167.168 -12.559,167.183 -9.192,167.205C9.52,167.324 28.129,166.522 46.782,164.695C50.919,164.289 55.503,164.332 57.977,166.054C59.47,167.093 59.106,169.622 59.109,172.152C59.111,172.953 57.599,193.088 57.477,196.116C56.944,208.889 57.762,210.693 55.977,214.054C54.494,216.845 50.952,216.3 46.762,216.284C45.517,216.282 44.273,216.281 42.99,216.279C41.034,216.26 41.034,216.26 39.039,216.241C37.77,216.241 36.501,216.24 35.193,216.24C29.451,216.213 23.769,216.092 18.051,215.558C10.614,214.871 3.188,214.814 -4.273,214.804C-5.022,214.802 -5.77,214.8 -6.541,214.798C-18.076,214.79 -29.482,215.365 -40.961,216.491C-41.648,216.559 -42.336,216.626 -43.044,216.696C-51.101,217.484 -55.668,218.614 -59.023,219.054C-60.399,219.234 -77.31,221.127 -82.023,221.054C-87.367,220.971 -96.596,221.283 -100.023,219.054C-103.281,216.935 -102.434,212.064 -102.586,207.679C-102.646,206.171 -104.157,191.241 -104.169,188.312C-104.178,186.612 -104.178,186.612 -104.188,184.878C-104.189,183.657 -104.19,182.437 -104.191,181.179C-104.195,179.904 -104.198,178.629 -104.201,177.316C-104.207,174.609 -104.209,171.902 -104.209,169.196C-104.209,166.463 -104.215,163.731 -104.229,160.998C-104.297,147.377 -104.254,133.902 -102.757,120.353C-101.763,111.236 -101.632,102.157 -101.648,92.991C-101.647,92.115 -101.646,91.238 -101.645,90.335C-101.654,75.512 -104.629,58.411 -105.567,46.791C-106.27,38.076 -107.234,29.424 -107.273,20.616C-107.294,19.447 -107.315,18.277 -107.336,17.072C-107.344,15.394 -107.344,15.394 -107.352,13.683C-107.361,12.673 -107.591,11.621 -107.38,10.623C-107.116,9.372 -107.027,7.039 -105.766,6.177C-104.505,5.316 -101.805,5.615 -99.812,5.452C-96.751,5.203 -91.534,4.977 -87.398,4.679C-80.221,4.161 -67.05,2.551 -56.749,2.345C-55.464,2.319 -54.179,2.292 -52.855,2.265C-51.708,2.247 -50.56,2.23 -49.378,2.212C-45.873,2.047 -41.9,1.3 -39.023,1.054C-36.727,0.858 -34.42,0.81 -32.117,0.738C-31.124,0.706 -31.124,0.706 -30.111,0.674C-27.916,0.607 -25.72,0.548 -23.523,0.491C-22.38,0.462 -22.38,0.462 -21.214,0.431C-14.143,0.253 -7.072,0.126 0,0Z" style="fill:none;fill-rule:nonzero;stroke:black;stroke-width:65.28px;stroke-linecap:butt;stroke-miterlimit:2;"/>
                    <path d="M0,0C6.343,-0.109 12.685,-0.187 19.029,-0.232C21.107,-0.25 23.185,-0.274 25.263,-0.305C28.203,-0.347 31.142,-0.363 34.082,-0.372C34.95,-0.389 35.817,-0.407 36.711,-0.425C43.38,-0.401 51.62,0.049 54.687,5.572C58.44,12.329 58.46,33.79 59.227,40.116C59.364,41.246 59.258,41.805 59.289,43.529C59.297,45.136 59.297,45.136 59.305,46.777C59.314,47.743 59.484,49.308 59.106,51.335C58.469,54.749 55.14,54.299 51.556,54.265C50.665,54.262 49.773,54.258 48.854,54.255C47.892,54.241 46.929,54.228 45.938,54.214C44.444,54.206 44.444,54.206 42.921,54.198C39.731,54.181 36.541,54.149 33.352,54.116C30.183,54.089 27.015,54.064 23.846,54.045C21.875,54.033 19.904,54.016 17.933,53.992C12.972,53.956 7.926,54.582 3.277,54.812C-1.136,55.03 -5.543,55.293 -9.965,55.37C-10.973,55.391 -11.981,55.412 -13.02,55.433C-16.209,55.498 -19.397,55.557 -22.586,55.616C-24.761,55.66 -26.936,55.703 -29.111,55.747C-34.415,55.854 -41.733,53.602 -43.272,55.723C-44.361,57.224 -43.852,64.009 -43.742,66.726C-43.686,67.969 -43.686,67.969 -43.629,69.238C-43.558,70.964 -43.488,72.691 -43.418,74.417C-43.362,75.653 -43.362,75.653 -43.305,76.913C-43.274,77.661 -43.244,78.408 -43.213,79.178C-43.126,81.144 -43.68,82.46 -42.023,83.054C-37.983,84.503 -25.813,84.199 -17.949,84.187C-16.613,84.187 -15.276,84.188 -13.939,84.19C-11.157,84.191 -8.374,84.189 -5.591,84.184C-2.041,84.179 1.509,84.182 5.06,84.188C7.813,84.192 10.566,84.19 13.319,84.188C15.259,84.187 17.199,84.19 19.14,84.193C24.865,84.178 32.056,83.285 35.977,83.054C38.203,82.922 40.434,82.836 42.664,82.804C44.31,82.765 51.994,83.668 52.977,86.054C54.329,89.338 54.139,96.898 54.102,102.429C54.097,103.194 54.092,103.959 54.087,104.748C54.062,107.183 54.022,109.618 53.977,112.054C53.964,112.891 53.951,113.727 53.939,114.59C53.892,117.058 53.815,119.524 53.727,121.991C53.713,122.754 53.699,123.517 53.684,124.303C53.445,129.548 53.393,130.455 51.18,131.995C48.773,133.67 43.609,134.208 39.244,134.351C38.087,134.391 36.93,134.431 35.737,134.472C34.483,134.511 33.23,134.549 31.938,134.589C30.629,134.632 29.32,134.675 27.971,134.719C25.186,134.81 22.4,134.898 19.614,134.984C16.127,135.091 12.64,135.206 9.153,135.323C-8.241,135.904 -38.299,134.307 -41.012,137.178C-44.189,140.542 -42.535,147.749 -42.455,149.724C-42.417,150.594 -42.379,151.465 -42.34,152.363C-42.303,153.237 -42.266,154.112 -42.229,155.013C-41.957,159.042 -44.588,165.166 -41.023,167.054C-37.201,169.078 -26.536,167.136 -19.293,167.158C-15.926,167.168 -12.559,167.183 -9.192,167.205C9.52,167.324 28.129,166.522 46.782,164.695C50.919,164.289 55.503,164.332 57.977,166.054C59.47,167.093 59.106,169.622 59.109,172.152C59.111,172.953 57.599,193.088 57.477,196.116C56.944,208.889 57.762,210.693 55.977,214.054C54.494,216.845 50.952,216.3 46.762,216.284C45.517,216.282 44.273,216.281 42.99,216.279C41.034,216.26 41.034,216.26 39.039,216.241C37.77,216.241 36.501,216.24 35.193,216.24C29.451,216.213 23.769,216.092 18.051,215.558C10.614,214.871 3.188,214.814 -4.273,214.804C-5.022,214.802 -5.77,214.8 -6.541,214.798C-18.076,214.79 -29.482,215.365 -40.961,216.491C-41.648,216.559 -42.336,216.626 -43.044,216.696C-51.101,217.484 -55.668,218.614 -59.023,219.054C-60.399,219.234 -77.31,221.127 -82.023,221.054C-87.367,220.971 -96.596,221.283 -100.023,219.054C-103.281,216.935 -102.434,212.064 -102.586,207.679C-102.646,206.171 -104.157,191.241 -104.169,188.312C-104.178,186.612 -104.178,186.612 -104.188,184.878C-104.189,183.657 -104.19,182.437 -104.191,181.179C-104.195,179.904 -104.198,178.629 -104.201,177.316C-104.207,174.609 -104.209,171.902 -104.209,169.196C-104.209,166.463 -104.215,163.731 -104.229,160.998C-104.297,147.377 -104.254,133.902 -102.757,120.353C-101.763,111.236 -101.632,102.157 -101.648,92.991C-101.647,92.115 -101.646,91.238 -101.645,90.335C-101.654,75.512 -104.629,58.411 -105.567,46.791C-106.27,38.076 -107.234,29.424 -107.273,20.616C-107.294,19.447 -107.315,18.277 -107.336,17.072C-107.344,15.394 -107.344,15.394 -107.352,13.683C-107.361,12.673 -107.591,11.621 -107.38,10.623C-107.116,9.372 -107.027,7.039 -105.766,6.177C-104.505,5.316 -101.805,5.615 -99.812,5.452C-96.751,5.203 -91.534,4.977 -87.398,4.679C-80.221,4.161 -67.05,2.551 -56.749,2.345C-55.464,2.319 -54.179,2.292 -52.855,2.265C-51.708,2.247 -50.56,2.23 -49.378,2.212C-45.873,2.047 -41.9,1.3 -39.023,1.054C-36.727,0.858 -34.42,0.81 -32.117,0.738C-31.124,0.706 -31.124,0.706 -30.111,0.674C-27.916,0.607 -25.72,0.548 -23.523,0.491C-22.38,0.462 -22.38,0.462 -21.214,0.431C-14.143,0.253 -7.072,0.126 0,0Z" style="fill:rgb(21,166,92);fill-rule:nonzero;"/>
                </g>
                <g transform="matrix(1,0,0,1,1577.96,241.87)">
                    <path d="M0,0C5.79,0.006 11.58,0.002 17.37,-0.004C21.861,-0.007 26.351,-0.006 30.842,-0.003C32.981,-0.003 35.119,-0.004 37.257,-0.006C40.216,-0.008 43.174,-0.005 46.133,0.001C47.449,-0.002 47.449,-0.002 48.791,-0.005C52.168,0.007 56.811,0.206 58.177,1.13C61.233,3.197 61.136,8.547 61.615,11.255C61.749,12.016 61.884,12.776 62.023,13.56C62.289,15.067 62.553,16.574 62.814,18.081C63.108,19.741 63.611,21.37 63.759,23.048C64.028,26.088 64.401,31.857 64.427,36.318C64.458,37.67 64.433,37.671 64.49,39.05C64.734,44.964 63.017,48.272 61.177,49.13C59.204,50.051 55.593,49.571 52.697,49.572C51.851,49.585 51.005,49.598 50.134,49.612C47.419,49.653 44.705,49.674 41.99,49.693C29.56,49.805 10.302,48.22 6.538,53.077C4.09,56.236 6.311,67.388 6.275,74.087C6.272,75.638 6.272,75.638 6.27,77.221C6.266,79.446 6.26,81.672 6.252,83.897C6.239,87.43 6.233,90.963 6.228,94.496C6.215,103.269 6.191,112.042 6.167,120.814C6.147,128.239 6.131,135.664 6.121,143.09C6.115,146.551 6,150.013 6.089,153.473C6.265,160.313 8.362,191.88 8.365,195.255C8.377,196.194 8.389,197.132 8.402,198.099C8.415,204.402 7.643,212.029 4.783,215.289C1.923,218.549 -3.746,217.701 -8.757,217.662C-9.827,217.665 -10.897,217.669 -11.999,217.673C-14.261,217.676 -16.523,217.669 -18.785,217.652C-22.244,217.63 -25.702,217.652 -29.161,217.677C-31.359,217.675 -33.558,217.669 -35.757,217.662C-36.79,217.67 -37.824,217.678 -38.888,217.686C-46.065,217.593 -47.598,217.919 -49.952,215.222C-52.306,212.525 -53.015,206.945 -53.01,201.505C-53.01,200.495 -53.01,199.484 -53.01,198.443C-52.944,189.115 -52.377,179.835 -51.748,170.531C-50.749,155.739 -50.164,140.954 -49.823,126.13C-49.788,124.717 -49.788,124.717 -49.752,123.275C-49.356,105.457 -51.855,88.296 -54.502,70.699C-54.757,68.971 -54.776,58.112 -58.019,55.477C-61.297,52.813 -83.743,56.41 -96.823,56.13C-97.865,56.114 -98.906,56.097 -99.979,56.08C-104.416,55.851 -107.692,55.017 -109.885,52.755C-112.079,50.494 -112.953,46.687 -113.139,42.509C-113.182,41.583 -113.224,40.656 -113.267,39.702C-113.326,38.212 -113.326,38.212 -113.385,36.693C-113.426,35.675 -113.466,34.658 -113.508,33.61C-113.624,30.45 -113.727,27.291 -113.823,24.13C-113.853,23.143 -113.883,22.156 -113.914,21.14C-113.988,18.386 -114.036,15.634 -114.073,12.88C-114.094,12.042 -114.116,11.203 -114.138,10.34C-114.17,4.687 -114.485,3.983 -112.747,2.405C-111.009,0.827 -107.237,0.813 -103.71,0.873C-102.986,0.879 -102.262,0.886 -101.517,0.893C-99.181,0.916 -96.846,0.959 -94.51,1.005C-91.514,1.054 -88.518,1.092 -85.522,1.123C-84.292,1.135 -84.292,1.135 -83.036,1.149C-75.954,1.191 -68.895,0.744 -61.823,0.646C-47.984,0.455 -20.612,-0.021 0,0Z" style="fill:none;fill-rule:nonzero;stroke:black;stroke-width:65.28px;stroke-linecap:butt;stroke-miterlimit:2;"/>
                    <path d="M0,0C5.79,0.006 11.58,0.002 17.37,-0.004C21.861,-0.007 26.351,-0.006 30.842,-0.003C32.981,-0.003 35.119,-0.004 37.257,-0.006C40.216,-0.008 43.174,-0.005 46.133,0.001C47.449,-0.002 47.449,-0.002 48.791,-0.005C52.168,0.007 56.811,0.206 58.177,1.13C61.233,3.197 61.136,8.547 61.615,11.255C61.749,12.016 61.884,12.776 62.023,13.56C62.289,15.067 62.553,16.574 62.814,18.081C63.108,19.741 63.611,21.37 63.759,23.048C64.028,26.088 64.401,31.857 64.427,36.318C64.458,37.67 64.433,37.671 64.49,39.05C64.734,44.964 63.017,48.272 61.177,49.13C59.204,50.051 55.593,49.571 52.697,49.572C51.851,49.585 51.005,49.598 50.134,49.612C47.419,49.653 44.705,49.674 41.99,49.693C29.56,49.805 10.302,48.22 6.538,53.077C4.09,56.236 6.311,67.388 6.275,74.087C6.272,75.638 6.272,75.638 6.27,77.221C6.266,79.446 6.26,81.672 6.252,83.897C6.239,87.43 6.233,90.963 6.228,94.496C6.215,103.269 6.191,112.042 6.167,120.814C6.147,128.239 6.131,135.664 6.121,143.09C6.115,146.551 6,150.013 6.089,153.473C6.265,160.313 8.362,191.88 8.365,195.255C8.377,196.194 8.389,197.132 8.402,198.099C8.415,204.402 7.643,212.029 4.783,215.289C1.923,218.549 -3.746,217.701 -8.757,217.662C-9.827,217.665 -10.897,217.669 -11.999,217.673C-14.261,217.676 -16.523,217.669 -18.785,217.652C-22.244,217.63 -25.702,217.652 -29.161,217.677C-31.359,217.675 -33.558,217.669 -35.757,217.662C-36.79,217.67 -37.824,217.678 -38.888,217.686C-46.065,217.593 -47.598,217.919 -49.952,215.222C-52.306,212.525 -53.015,206.945 -53.01,201.505C-53.01,200.495 -53.01,199.484 -53.01,198.443C-52.944,189.115 -52.377,179.835 -51.748,170.531C-50.749,155.739 -50.164,140.954 -49.823,126.13C-49.788,124.717 -49.788,124.717 -49.752,123.275C-49.356,105.457 -51.855,88.296 -54.502,70.699C-54.757,68.971 -54.776,58.112 -58.019,55.477C-61.297,52.813 -83.743,56.41 -96.823,56.13C-97.865,56.114 -98.906,56.097 -99.979,56.08C-104.416,55.851 -107.692,55.017 -109.885,52.755C-112.079,50.494 -112.953,46.687 -113.139,42.509C-113.182,41.583 -113.224,40.656 -113.267,39.702C-113.326,38.212 -113.326,38.212 -113.385,36.693C-113.426,35.675 -113.466,34.658 -113.508,33.61C-113.624,30.45 -113.727,27.291 -113.823,24.13C-113.853,23.143 -113.883,22.156 -113.914,21.14C-113.988,18.386 -114.036,15.634 -114.073,12.88C-114.094,12.042 -114.116,11.203 -114.138,10.34C-114.17,4.687 -114.485,3.983 -112.747,2.405C-111.009,0.827 -107.237,0.813 -103.71,0.873C-102.986,0.879 -102.262,0.886 -101.517,0.893C-99.181,0.916 -96.846,0.959 -94.51,1.005C-91.514,1.054 -88.518,1.092 -85.522,1.123C-84.292,1.135 -84.292,1.135 -83.036,1.149C-75.954,1.191 -68.895,0.744 -61.823,0.646C-47.984,0.455 -20.612,-0.021 0,0Z" style="fill:rgb(21,166,92);fill-rule:nonzero;"/>
                </g>
                <g transform="matrix(4.04993,0,0,2.90342,-9245.95,-12708.4)">
                    <ellipse cx="2440.26" cy="4497.57" rx="6.264" ry="10.431"/>
                </g>
                <g transform="matrix(1.58796,0.935772,-0.935772,1.58796,1230.45,-10036.8)">
                    <ellipse cx="3479.76" cy="4503.07" rx="8.89" ry="15.931"/>
                </g>
                <g transform="matrix(1.84317,0,0,1.84317,-3867.33,-7932.48)">
                    <ellipse cx="3239" cy="4511.03" rx="6" ry="7.965"/>
                </g>
            </g>
        </g>
    </g>
</svg>
