<?xml version="1.0" encoding="UTF-8" standalone="no"?>
<!DOCTYPE svg PUBLIC "-//W3C//DTD SVG 1.1//EN" "http://www.w3.org/Graphics/SVG/1.1/DTD/svg11.dtd">
<svg width="100%" height="100%" viewBox="0 0 1714 1714" version="1.1" xmlns="http://www.w3.org/2000/svg" xmlns:xlink="http://www.w3.org/1999/xlink" xml:space="preserve" xmlns:serif="http://www.serif.com/" style="fill-rule:evenodd;clip-rule:evenodd;stroke-linecap:round;stroke-linejoin:round;stroke-miterlimit:1.5;">
    <g transform="matrix(1,0,0,1,-3912.96,-3231.71)">
        <g id="Explorers" transform="matrix(1,0,0,1,-450.042,542.709)">
            <rect x="4363" y="2689" width="1714" height="1714" style="fill:none;"/>
            <g transform="matrix(1,0,0,1,-5962,1732.76)">
                <g transform="matrix(1,0,0,1,-9000.98,-5772.16)">
                    <ellipse cx="20177" cy="7555" rx="416" ry="405" style="fill:none;stroke:black;stroke-width:8.33px;"/>
                    <ellipse cx="20177" cy="7555" rx="416" ry="405" style="fill:rgb(62,99,174);"/>
                </g>
                <g transform="matrix(1.07048,0,0,3.54996,-8732.17,-25349.9)">
                    <path d="M18604,7606C18756.5,7606 18888.8,7630.63 18953.2,7666.51C18979.9,7681.39 18810,7757.68 18594.2,7757.68C18378.4,7757.68 18227.4,7682.18 18252.9,7667.57C18316.6,7631.11 18450,7606 18604,7606Z" style="fill:none;stroke:black;stroke-width:20.66px;"/>
                    <path d="M18604,7606C18756.5,7606 18888.8,7630.63 18953.2,7666.51C18979.9,7681.39 18810,7757.68 18594.2,7757.68C18378.4,7757.68 18227.4,7682.18 18252.9,7667.57C18316.6,7631.11 18450,7606 18604,7606Z" style="fill:rgb(21,166,92);"/>
                </g>
                <g transform="matrix(1.32486,0,0,1.33051,-15601.7,-7737.5)">
                    <path d="M20211,6807C20406.4,6807 20565,6965.62 20565,7161C20565,7356.38 20406.4,7515 20211,7515C20015.6,7515 19857,7356.38 19857,7161C19857,6965.62 20015.6,6807 20211,6807ZM20211,6895.5C20357.5,6895.5 20476.5,7014.47 20476.5,7161C20476.5,7307.53 20357.5,7426.5 20211,7426.5C20064.5,7426.5 19945.5,7307.53 19945.5,7161C19945.5,7014.47 20064.5,6895.5 20211,6895.5Z" style="fill:rgb(232,63,63);stroke:black;stroke-width:18.83px;"/>
                </g>
                <g transform="matrix(1.12723,0,0,1.13204,-11605.2,-6295.76)">
                    <path d="M19963.2,6908.19L19949.5,6893.9L19966.5,6877.81L19958.6,6869.65L19941.7,6885.74L19936.3,6880.09L19953.6,6863.64L19945.8,6855.48L19919.1,6880.86L19953.8,6917.12L19963.2,6908.19Z" style="fill-rule:nonzero;"/>
                    <path d="M20020.4,6861.91L20001.3,6853.07C20004.1,6848.94 20005.6,6842.08 20000.5,6835.03C19994.9,6827.51 19985.5,6825.28 19976.4,6831.85L19956.1,6846.65L19985.8,6887.14L19996.2,6879.51L19986.3,6865.91L19991.6,6862.01L20008.4,6870.64L20020.4,6861.91ZM19987.9,6850.78L19979.6,6856.81L19973.2,6848.13L19981.5,6842.1C19984.3,6840.06 19987.7,6839.94 19989.7,6842.73C19991.8,6845.59 19990.7,6848.74 19987.9,6850.78Z" style="fill-rule:nonzero;"/>
                    <path d="M20058.9,6840.78L20053.5,6830.87L20032.5,6842.26L20028.4,6834.81L20048.9,6823.66L20043.5,6813.76L20023,6824.9L20019.2,6818.04L20040.2,6806.65L20034.8,6796.74L20002.4,6814.32L20026.5,6858.35L20058.9,6840.78Z" style="fill-rule:nonzero;"/>
                    <path d="M20100.2,6824.2L20096.1,6813.7L20073.8,6822.36L20070.7,6814.45L20092.5,6805.98L20088.4,6795.48L20066.6,6803.94L20063.7,6796.66L20086,6788L20081.9,6777.5L20047.5,6790.86L20065.8,6837.56L20100.2,6824.2Z" style="fill-rule:nonzero;"/>
                    <path d="M20127.9,6816.81C20143.3,6813.24 20152.2,6801.37 20148.7,6786.22C20145.1,6771.07 20131.9,6764.42 20116.4,6768L20095.8,6772.77L20107.3,6821.6L20127.9,6816.81ZM20125.3,6805.84L20117.3,6807.69L20111.1,6780.82L20119.1,6778.96C20128,6776.88 20134,6781.68 20135.7,6789.22C20137.4,6796.47 20133.9,6803.85 20125.3,6805.84Z" style="fill-rule:nonzero;"/>
                    <path d="M20185.3,6808.83C20200.6,6807.72 20211.3,6796.25 20210.2,6781.03C20209.1,6765.81 20196.9,6755.99 20181.5,6757.1C20166.2,6758.21 20155.4,6769.69 20156.5,6784.9C20157.6,6800.12 20169.9,6809.94 20185.3,6808.83ZM20184.5,6797.43C20176.2,6798.03 20170.3,6792.05 20169.7,6783.95C20169.1,6775.78 20174.1,6769.09 20182.4,6768.5C20190.6,6767.9 20196.4,6773.81 20197,6781.98C20197.6,6790.08 20192.7,6796.83 20184.5,6797.43Z" style="fill-rule:nonzero;"/>
                    <path d="M20275.6,6811.72L20280.7,6761.85L20262.8,6760.02L20249.5,6786.48L20241.8,6757.89L20223.9,6756.07L20218.8,6805.94L20231.7,6807.25L20235,6774.28L20244.4,6808.54L20250.1,6809.12L20266.1,6777.43L20262.7,6810.41L20275.6,6811.72Z" style="fill-rule:nonzero;"/>
                    <path d="M20346.4,6833.07L20335.6,6801.19L20361.7,6785.28L20346.5,6780.14L20325.2,6794.65L20331.9,6775.16L20319.6,6770.98L20303.3,6818.42L20315.6,6822.6L20320.4,6808.73L20325,6805.84L20331.3,6827.94L20346.4,6833.07Z" style="fill-rule:nonzero;"/>
                    <path d="M20361.6,6840.51L20382.2,6794.8L20370.4,6789.49L20349.7,6835.19L20361.6,6840.51Z" style="fill-rule:nonzero;"/>
                    <path d="M20388.4,6854.63C20402,6862.66 20416.6,6860.26 20424.6,6846.88C20432.6,6833.51 20427.7,6819.57 20414.1,6811.51L20395.9,6800.75L20370.2,6843.84L20388.4,6854.63ZM20394.1,6844.9L20387.1,6840.76L20401.3,6817.05L20408.3,6821.23C20416.2,6825.92 20417.2,6833.47 20413.2,6840.12C20409.4,6846.52 20401.7,6849.4 20394.1,6844.9Z" style="fill-rule:nonzero;"/>
                    <path d="M20430.9,6884.82C20441.5,6893.22 20451.5,6892.63 20457.8,6884.76C20469.5,6870.19 20444.3,6856.15 20448.2,6851.34C20449.6,6849.63 20451.7,6849.67 20454.6,6852.01C20458.5,6855.1 20461.7,6859.88 20462.8,6865.26L20474.4,6862.09C20473.1,6855.18 20469.1,6848.94 20462.8,6843.92C20452.7,6835.91 20442.5,6837.38 20437.2,6843.96C20425.1,6859.06 20450.8,6872.44 20446.7,6877.61C20445.1,6879.55 20442,6879.03 20438.6,6876.32C20433.2,6872 20430.7,6866.19 20430.1,6861.11L20418.5,6864.72C20419.4,6871.56 20423,6878.5 20430.9,6884.82Z" style="fill-rule:nonzero;"/>
                </g>
                <g transform="matrix(1.05142,0.427844,-0.427844,1.05142,666.302,-4047.01)">
                    <g transform="matrix(1,0,0,1,10325,956.237)">
                        <path d="M83.563,366.818C83.563,366.818 20.634,417.499 3.995,430.899C1.541,432.875 0.395,436.055 1.025,439.143C5.786,462.493 25.808,560.701 32.861,595.292C33.203,596.97 34.592,598.233 36.295,598.415C37.998,598.598 39.622,597.657 40.312,596.089C53.047,567.138 85.806,492.67 85.806,492.67L83.563,366.818Z" style="fill:none;stroke:black;stroke-width:36.94px;stroke-linecap:butt;stroke-miterlimit:2;"/>
                        <path d="M83.563,366.818C83.563,366.818 20.634,417.499 3.995,430.899C1.541,432.875 0.395,436.055 1.025,439.143C5.786,462.493 25.808,560.701 32.861,595.292C33.203,596.97 34.592,598.233 36.295,598.415C37.998,598.598 39.622,597.657 40.312,596.089C53.047,567.138 85.806,492.67 85.806,492.67L83.563,366.818Z" style="fill:rgb(232,63,63);"/>
                    </g>
                    <g transform="matrix(1,0,0,1,10325,956.237)">
                        <path d="M281.033,366.818C281.033,366.818 343.962,417.499 360.601,430.899C363.054,432.875 364.2,436.055 363.571,439.143C358.81,462.493 338.787,560.701 331.735,595.292C331.393,596.97 330.004,598.233 328.301,598.415C326.598,598.598 324.973,597.657 324.284,596.089C311.548,567.138 278.79,492.67 278.79,492.67L281.033,366.818Z" style="fill:none;stroke:black;stroke-width:36.94px;stroke-linecap:butt;stroke-miterlimit:2;"/>
                        <path d="M281.033,366.818C281.033,366.818 343.962,417.499 360.601,430.899C363.054,432.875 364.2,436.055 363.571,439.143C358.81,462.493 338.787,560.701 331.735,595.292C331.393,596.97 330.004,598.233 328.301,598.415C326.598,598.598 324.973,597.657 324.284,596.089C311.548,567.138 278.79,492.67 278.79,492.67L281.033,366.818Z" style="fill:rgb(232,63,63);"/>
                    </g>
                    <g transform="matrix(1,0,0,1,10325,956.237)">
                        <path d="M182.011,533.189L249.811,531.052C249.811,531.052 258.441,554.065 263.085,566.448C263.739,568.192 263.496,570.147 262.435,571.678C261.374,573.209 259.629,574.123 257.766,574.123L106.257,574.123C104.394,574.123 102.649,573.209 101.588,571.678C100.527,570.147 100.284,568.192 100.938,566.448C105.581,554.065 114.211,531.052 114.211,531.052L182.011,533.189Z" style="fill:none;stroke:black;stroke-width:36.94px;stroke-linecap:butt;stroke-miterlimit:2;"/>
                        <path d="M182.011,533.189L249.811,531.052C249.811,531.052 258.441,554.065 263.085,566.448C263.739,568.192 263.496,570.147 262.435,571.678C261.374,573.209 259.629,574.123 257.766,574.123L106.257,574.123C104.394,574.123 102.649,573.209 101.588,571.678C100.527,570.147 100.284,568.192 100.938,566.448C105.581,554.065 114.211,531.052 114.211,531.052L182.011,533.189Z" style="fill:rgb(232,63,63);"/>
                    </g>
                    <g transform="matrix(1,0,0,1,10325,956.237)">
                        <path d="M181.655,0.005L181.655,0C181.774,0 181.893,0 182.011,0.001C182.13,0 182.249,0 182.368,0L182.368,0.005C272.357,1.349 296.381,257.133 297.005,497.143C297.016,502.807 293.085,507.716 287.556,508.942C283.239,509.9 278.193,511.019 274.115,511.924C269.367,512.977 265.559,516.517 264.163,521.176L260.549,533.237C259.189,537.777 255.01,540.887 250.27,540.887L113.752,540.887C109.012,540.887 104.834,537.777 103.473,533.237L99.859,521.176C98.463,516.517 94.656,512.977 89.908,511.924C85.829,511.019 80.783,509.9 76.467,508.942C70.937,507.716 67.006,502.807 67.018,497.143C67.641,257.133 91.665,1.349 181.655,0.005Z" style="fill:none;stroke:black;stroke-width:36.94px;stroke-linecap:butt;stroke-miterlimit:2;"/>
                        <path d="M181.655,0.005L181.655,0C181.774,0 181.893,0 182.011,0.001C182.13,0 182.249,0 182.368,0L182.368,0.005C272.357,1.349 296.381,257.133 297.005,497.143C297.016,502.807 293.085,507.716 287.556,508.942C283.239,509.9 278.193,511.019 274.115,511.924C269.367,512.977 265.559,516.517 264.163,521.176L260.549,533.237C259.189,537.777 255.01,540.887 250.27,540.887L113.752,540.887C109.012,540.887 104.834,537.777 103.473,533.237L99.859,521.176C98.463,516.517 94.656,512.977 89.908,511.924C85.829,511.019 80.783,509.9 76.467,508.942C70.937,507.716 67.006,502.807 67.018,497.143C67.641,257.133 91.665,1.349 181.655,0.005Z" style="fill:rgb(255,209,80);"/>
                    </g>
                    <g transform="matrix(1,0,0,1,10325,956.237)">
                        <circle cx="182.011" cy="335.781" r="65.337"/>
                    </g>
                    <g transform="matrix(1,0,0,1,10325,956.237)">
                        <path d="M94.79,139.005C112.395,55.936 139.936,0.628 181.655,0.005L181.655,-0C181.774,-0 181.893,-0 182.011,0.001C182.13,-0 182.249,-0 182.368,-0L182.368,0.005C224.087,0.628 251.628,55.936 269.233,139.005C244.879,157.154 214.69,167.9 182.011,167.9C149.333,167.9 119.144,157.154 94.79,139.005Z" style="fill:none;stroke:black;stroke-width:36.94px;stroke-linecap:butt;stroke-miterlimit:2;"/>
                        <path d="M94.79,139.005C112.395,55.936 139.936,0.628 181.655,0.005L181.655,-0C181.774,-0 181.893,-0 182.011,0.001C182.13,-0 182.249,-0 182.368,-0L182.368,0.005C224.087,0.628 251.628,55.936 269.233,139.005C244.879,157.154 214.69,167.9 182.011,167.9C149.333,167.9 119.144,157.154 94.79,139.005Z" style="fill:rgb(232,63,63);"/>
                    </g>
                </g>
            </g>
            <g transform="matrix(0.61841,0,0,0.61841,4342.1,2863.13)">
                <g transform="matrix(1.61705,0,0,1.61705,-6261.31,-5523.59)">
                    <ellipse cx="4764.88" cy="4480" rx="28.117" ry="32"/>
                </g>
                <g transform="matrix(1.61705,0,0,1.61705,-6293.65,-5507.42)">
                    <ellipse cx="4994.02" cy="4501" rx="15.016" ry="13"/>
                </g>
                <g transform="matrix(3.4116,2.58233,-1.30836,1.72852,-9857.44,-19593.8)">
                    <ellipse cx="5258.15" cy="4485.5" rx="5.847" ry="15.5"/>
                </g>
                <g transform="matrix(1.61705,0,0,1.61705,-6293.65,-5507.42)">
                    <ellipse cx="4593.5" cy="4493.25" rx="9.5" ry="7.75"/>
                </g>
                <g transform="matrix(1.61705,0,0,1.61705,-6293.65,-5507.42)">
                    <ellipse cx="4342" cy="4483.48" rx="32" ry="48.484"/>
                </g>
                <g transform="matrix(1.61705,0,0,1.61705,-6293.65,-5507.42)">
                    <ellipse cx="4465.5" cy="4474.5" rx="34.5" ry="39.5"/>
                </g>
                <g transform="matrix(1,0,0,1,1488.32,1612)">
                    <path d="M0,0C5.671,2.024 10.638,5.689 15.625,9.063C21.292,12.896 28.309,17.832 34,23C40.229,28.656 50.372,42.752 53.313,51.464C58.261,66.12 64.078,96.959 63.688,110.938C63.118,131.314 57.83,147.855 53.503,154.996C44.482,169.882 40.683,182.864 9.563,200.25C4.848,202.884 -15.542,218.819 -82.582,214.969C-98.057,214.08 -112.585,203.917 -123.543,192.953C-135.737,180.753 -149.278,153.845 -155.746,141.77C-159.251,135.225 -161.098,127.817 -162.352,120.5C-167.164,92.42 -163.19,64.756 -147,41C-140.393,32.01 -132.412,24.175 -124.441,16.41C-123.057,15.056 -121.688,13.687 -120.32,12.316C-107.983,0 -85.251,-6.357 -83,-7L-79.188,-8.102C-55.848,-13.761 -30.849,-11.011 0,0ZM-56.313,43.625C-63.104,43.631 -69.559,43.908 -75.258,46.832C-97.115,58.048 -99.901,77.799 -103.191,91.66C-106.21,104.375 -101.554,118.694 -95,130C-88.301,141.557 -74.167,155.333 -63,161C-52.558,166.299 -43.994,167.979 -28,164C-25.107,163.28 -22.108,162.109 -20,160C-15.684,155.682 -4.383,147.243 -2.102,138.094C0.947,125.872 5.135,107.046 -1.711,86.668C-3.245,82.1 -5.452,76.67 -8,72C-13.011,62.814 -16.703,52.936 -39,46C-44.562,44.27 -56.313,43.625 -56.313,43.625Z" style="fill:none;stroke:black;stroke-width:57.27px;stroke-linecap:butt;stroke-miterlimit:2;"/>
                    <path d="M0,0C5.671,2.024 10.638,5.689 15.625,9.063C21.292,12.896 28.309,17.832 34,23C40.229,28.656 50.372,42.752 53.313,51.464C58.261,66.12 64.078,96.959 63.688,110.938C63.118,131.314 57.83,147.855 53.503,154.996C44.482,169.882 40.683,182.864 9.563,200.25C4.848,202.884 -15.542,218.819 -82.582,214.969C-98.057,214.08 -112.585,203.917 -123.543,192.953C-135.737,180.753 -149.278,153.845 -155.746,141.77C-159.251,135.225 -161.098,127.817 -162.352,120.5C-167.164,92.42 -163.19,64.756 -147,41C-140.393,32.01 -132.412,24.175 -124.441,16.41C-123.057,15.056 -121.688,13.687 -120.32,12.316C-107.983,0 -85.251,-6.357 -83,-7L-79.188,-8.102C-55.848,-13.761 -30.849,-11.011 0,0ZM-56.313,43.625C-63.104,43.631 -69.559,43.908 -75.258,46.832C-97.115,58.048 -99.901,77.799 -103.191,91.66C-106.21,104.375 -101.554,118.694 -95,130C-88.301,141.557 -74.167,155.333 -63,161C-52.558,166.299 -43.994,167.979 -28,164C-25.107,163.28 -22.108,162.109 -20,160C-15.684,155.682 -4.383,147.243 -2.102,138.094C0.947,125.872 5.135,107.046 -1.711,86.668C-3.245,82.1 -5.452,76.67 -8,72C-13.011,62.814 -16.703,52.936 -39,46C-44.562,44.27 -56.313,43.625 -56.313,43.625Z" style="fill:rgb(232,63,63);"/>
                </g>
                <g transform="matrix(1,0,0,1,767.449,1610.62)">
                    <path d="M-18.267,2.333C-9.695,2.164 0.757,-2.449 7.403,-0.208C10.857,0.956 18.149,8.342 21.805,13.973C22.354,14.803 22.904,15.633 23.47,16.488C25.218,19.132 26.953,21.785 28.688,24.438C29.844,26.193 31.002,27.947 32.16,29.701C36.236,35.878 40.305,42.06 44.345,48.261C45.059,49.349 48.103,56.68 51.073,55.814C52.783,55.315 55.39,49.96 57.313,47.375C58.025,46.415 58.738,45.454 59.473,44.465C62.305,40.725 65.154,37 68.025,33.29C70.867,29.616 73.663,25.912 76.438,22.188C80.449,16.83 85.753,8.795 88.813,6.375C95.078,1.419 101.054,0.589 107.125,0.563C109.083,0.528 109.083,0.528 111.081,0.493C114.591,0.434 118.101,0.408 121.611,0.39C123.848,0.375 126.084,0.348 128.32,0.317C132.021,0.267 135.722,0.229 139.423,0.203C140.848,0.193 142.272,0.18 143.696,0.166C145.688,0.148 156.451,-0.409 157.813,2.375C158.896,4.592 155.3,10.898 153.25,14.938C152.892,15.646 152.534,16.355 152.166,17.086C148.85,23.523 143.496,31.15 140.813,35.375C139.291,37.77 137.638,40.078 136.063,42.438C135.645,43.063 135.227,43.688 134.796,44.332C129.877,51.729 125.171,59.26 120.444,66.78C117.553,71.379 114.656,75.974 111.75,80.563C111.168,81.483 110.586,82.404 109.987,83.353C107.226,87.696 104.421,91.985 101.445,96.184C100.926,96.917 100.406,97.651 99.871,98.407C98.901,99.765 97.919,101.114 96.924,102.454C94.451,105.613 92.993,107.168 94.098,109.414C96.563,114.423 105.8,125.766 111.712,132.505C115.859,137.242 119.899,142.055 123.875,146.938C124.679,147.919 124.679,147.919 125.499,148.921C128.494,152.616 131.739,157.476 133.813,160.375C135.214,162.335 136.559,164.336 137.938,166.313C139.145,168.057 140.351,169.804 141.555,171.551C142.393,172.767 143.233,173.981 144.074,175.195C164.158,204.264 163.359,208.678 162.813,216.375C162.506,220.697 154.46,220.514 150.813,221.375C147.605,222.132 134.124,221.56 132.145,221.56C129.152,221.562 126.138,221.95 123.166,221.6C116.493,220.814 96.573,220.199 92.109,216.844C87.531,213.402 80.849,199.921 80.282,199.09C79.694,198.215 79.106,197.339 78.5,196.438C72.139,187.153 65.406,178.254 58.426,169.431C56.859,167.434 55.315,165.421 53.781,163.398C53.319,162.789 52.856,162.18 52.38,161.552C51.152,159.931 49.928,158.307 48.703,156.684C47.021,154.309 46.152,153 44.813,153.375C42.997,153.883 41.398,160.989 39.828,163.672C39.229,164.701 38.631,165.73 38.014,166.79C37.37,167.891 36.726,168.991 36.063,170.125C34.699,172.467 33.339,174.811 31.98,177.156C31.634,177.754 31.288,178.351 30.931,178.967C26.787,186.125 22.757,193.347 18.733,200.573C14.481,208.206 10.236,221.847 5.813,223.375C0.527,225.201 -5.104,223.284 -9.007,223.265C-10.678,223.255 -12.35,223.242 -14.021,223.224C-23.788,223.124 -33.334,223.38 -43.027,224.659C-50.096,225.583 -61.65,227.995 -64.188,225.375C-66.725,222.755 -61.418,214.464 -58.25,208.938C-57.753,208.055 -57.257,207.172 -56.745,206.263C-52.573,198.909 -48.176,191.715 -43.611,184.599C-41.998,182.079 -40.399,179.549 -38.801,177.02C-32.447,166.974 -26.014,156.993 -19.369,147.137C-18.148,145.316 -16.941,143.485 -15.738,141.652C-9.835,132.677 -0.561,120.159 2.813,115.375C3.381,114.569 8.047,110.099 3.219,102.192C1.095,98.714 -0.424,94.901 -2.219,91.242C-11.914,71.532 -23.475,53.679 -36.78,36.232C-38.09,34.504 -39.383,32.764 -40.668,31.016C-44.778,25.442 -58.91,12.992 -56.236,7.635C-53.59,2.334 -49.986,3.051 -45.324,2.996C-44.573,2.979 -43.823,2.962 -43.049,2.945C-40.658,2.892 -38.267,2.851 -35.875,2.813C-33.494,2.768 -31.114,2.721 -28.733,2.67C-27.256,2.638 -19.744,2.354 -18.267,2.333Z" style="fill:none;fill-rule:nonzero;stroke:black;stroke-width:57.27px;stroke-linecap:butt;stroke-miterlimit:2;"/>
                    <path d="M-18.267,2.333C-9.695,2.164 0.757,-2.449 7.403,-0.208C10.857,0.956 18.149,8.342 21.805,13.973C22.354,14.803 22.904,15.633 23.47,16.488C25.218,19.132 26.953,21.785 28.688,24.438C29.844,26.193 31.002,27.947 32.16,29.701C36.236,35.878 40.305,42.06 44.345,48.261C45.059,49.349 48.103,56.68 51.073,55.814C52.783,55.315 55.39,49.96 57.313,47.375C58.025,46.415 58.738,45.454 59.473,44.465C62.305,40.725 65.154,37 68.025,33.29C70.867,29.616 73.663,25.912 76.438,22.188C80.449,16.83 85.753,8.795 88.813,6.375C95.078,1.419 101.054,0.589 107.125,0.563C109.083,0.528 109.083,0.528 111.081,0.493C114.591,0.434 118.101,0.408 121.611,0.39C123.848,0.375 126.084,0.348 128.32,0.317C132.021,0.267 135.722,0.229 139.423,0.203C140.848,0.193 142.272,0.18 143.696,0.166C145.688,0.148 156.451,-0.409 157.813,2.375C158.896,4.592 155.3,10.898 153.25,14.938C152.892,15.646 152.534,16.355 152.166,17.086C148.85,23.523 143.496,31.15 140.813,35.375C139.291,37.77 137.638,40.078 136.063,42.438C135.645,43.063 135.227,43.688 134.796,44.332C129.877,51.729 125.171,59.26 120.444,66.78C117.553,71.379 114.656,75.974 111.75,80.563C111.168,81.483 110.586,82.404 109.987,83.353C107.226,87.696 104.421,91.985 101.445,96.184C100.926,96.917 100.406,97.651 99.871,98.407C98.901,99.765 97.919,101.114 96.924,102.454C94.451,105.613 92.993,107.168 94.098,109.414C96.563,114.423 105.8,125.766 111.712,132.505C115.859,137.242 119.899,142.055 123.875,146.938C124.679,147.919 124.679,147.919 125.499,148.921C128.494,152.616 131.739,157.476 133.813,160.375C135.214,162.335 136.559,164.336 137.938,166.313C139.145,168.057 140.351,169.804 141.555,171.551C142.393,172.767 143.233,173.981 144.074,175.195C164.158,204.264 163.359,208.678 162.813,216.375C162.506,220.697 154.46,220.514 150.813,221.375C147.605,222.132 134.124,221.56 132.145,221.56C129.152,221.562 126.138,221.95 123.166,221.6C116.493,220.814 96.573,220.199 92.109,216.844C87.531,213.402 80.849,199.921 80.282,199.09C79.694,198.215 79.106,197.339 78.5,196.438C72.139,187.153 65.406,178.254 58.426,169.431C56.859,167.434 55.315,165.421 53.781,163.398C53.319,162.789 52.856,162.18 52.38,161.552C51.152,159.931 49.928,158.307 48.703,156.684C47.021,154.309 46.152,153 44.813,153.375C42.997,153.883 41.398,160.989 39.828,163.672C39.229,164.701 38.631,165.73 38.014,166.79C37.37,167.891 36.726,168.991 36.063,170.125C34.699,172.467 33.339,174.811 31.98,177.156C31.634,177.754 31.288,178.351 30.931,178.967C26.787,186.125 22.757,193.347 18.733,200.573C14.481,208.206 10.236,221.847 5.813,223.375C0.527,225.201 -5.104,223.284 -9.007,223.265C-10.678,223.255 -12.35,223.242 -14.021,223.224C-23.788,223.124 -33.334,223.38 -43.027,224.659C-50.096,225.583 -61.65,227.995 -64.188,225.375C-66.725,222.755 -61.418,214.464 -58.25,208.938C-57.753,208.055 -57.257,207.172 -56.745,206.263C-52.573,198.909 -48.176,191.715 -43.611,184.599C-41.998,182.079 -40.399,179.549 -38.801,177.02C-32.447,166.974 -26.014,156.993 -19.369,147.137C-18.148,145.316 -16.941,143.485 -15.738,141.652C-9.835,132.677 -0.561,120.159 2.813,115.375C3.381,114.569 8.047,110.099 3.219,102.192C1.095,98.714 -0.424,94.901 -2.219,91.242C-11.914,71.532 -23.475,53.679 -36.78,36.232C-38.09,34.504 -39.383,32.764 -40.668,31.016C-44.778,25.442 -58.91,12.992 -56.236,7.635C-53.59,2.334 -49.986,3.051 -45.324,2.996C-44.573,2.979 -43.823,2.962 -43.049,2.945C-40.658,2.892 -38.267,2.851 -35.875,2.813C-33.494,2.768 -31.114,2.721 -28.733,2.67C-27.256,2.638 -19.744,2.354 -18.267,2.333Z" style="fill:rgb(232,63,63);fill-rule:nonzero;"/>
                </g>
                <g transform="matrix(1,0,0,1,950.925,1608)">
                    <path d="M-2.63,2.998C0.074,-0.437 5.649,0.345 7.188,0.438C7.868,0.479 8.551,0.486 9.229,0.557C10.936,0.735 14.686,1.301 17.43,1.509C21.007,1.781 28.011,2.068 30.688,2.188C31.62,2.229 32.555,2.277 33.486,2.225C36.969,2.027 45.527,1.75 51.582,1.004C60.277,-0.049 68.864,-0.308 77.617,-0.261C80.027,-0.25 82.437,-0.261 84.848,-0.273C92.751,-0.282 120.08,1.342 133.496,9.223C141.361,13.843 164.321,24.321 171.238,38.617C178.156,52.913 179.873,78.27 175,95C170.127,111.73 158.027,130.097 142,139C125.76,148.021 88.935,149.339 77.563,149.125C71.934,149.019 59.053,145.989 57,148C55.54,149.429 60.132,186.305 60.375,194.188C60.516,198.779 61.777,212.994 57,219C54.46,222.193 38.337,224.368 26.928,224.24C23.447,224.201 19.967,224.281 16.486,224.313C14.281,224.319 2.353,226.862 -3.106,221.421C-4.724,219.808 -4.546,213.982 -4.675,211.976C-4.739,210.973 -4.765,209.968 -4.775,208.964C-4.862,200.035 -5.185,175.256 -5.2,158.406C-5.203,155.358 -5.207,152.31 -5.212,149.262C-5.225,139.696 -5.235,130.129 -5.239,120.563C-5.243,109.571 -5.261,98.579 -5.29,87.586C-5.312,79.041 -5.322,70.496 -5.323,61.952C-5.324,56.866 -5.33,51.781 -5.348,46.695C-5.364,41.926 -5.366,37.157 -5.358,32.388C-5.357,30.644 -5.361,28.899 -5.371,27.155C-5.472,8.209 -5.673,6.864 -2.63,2.998ZM80.246,53.59C72.779,53.06 59.146,51.946 56,57C51.746,63.835 54.281,90.384 58.642,93.642C65.112,98.476 100.731,90.851 109,82C110.793,80.08 114.186,73.104 114.438,69.688C114.66,66.669 113.25,62.789 110.512,61.5C104.813,58.817 86.03,54 80.246,53.59Z" style="fill:none;stroke:black;stroke-width:57.27px;stroke-linecap:butt;stroke-miterlimit:2;"/>
                    <path d="M-2.63,2.998C0.074,-0.437 5.649,0.345 7.188,0.438C7.868,0.479 8.551,0.486 9.229,0.557C10.936,0.735 14.686,1.301 17.43,1.509C21.007,1.781 28.011,2.068 30.688,2.188C31.62,2.229 32.555,2.277 33.486,2.225C36.969,2.027 45.527,1.75 51.582,1.004C60.277,-0.049 68.864,-0.308 77.617,-0.261C80.027,-0.25 82.437,-0.261 84.848,-0.273C92.751,-0.282 120.08,1.342 133.496,9.223C141.361,13.843 164.321,24.321 171.238,38.617C178.156,52.913 179.873,78.27 175,95C170.127,111.73 158.027,130.097 142,139C125.76,148.021 88.935,149.339 77.563,149.125C71.934,149.019 59.053,145.989 57,148C55.54,149.429 60.132,186.305 60.375,194.188C60.516,198.779 61.777,212.994 57,219C54.46,222.193 38.337,224.368 26.928,224.24C23.447,224.201 19.967,224.281 16.486,224.313C14.281,224.319 2.353,226.862 -3.106,221.421C-4.724,219.808 -4.546,213.982 -4.675,211.976C-4.739,210.973 -4.765,209.968 -4.775,208.964C-4.862,200.035 -5.185,175.256 -5.2,158.406C-5.203,155.358 -5.207,152.31 -5.212,149.262C-5.225,139.696 -5.235,130.129 -5.239,120.563C-5.243,109.571 -5.261,98.579 -5.29,87.586C-5.312,79.041 -5.322,70.496 -5.323,61.952C-5.324,56.866 -5.33,51.781 -5.348,46.695C-5.364,41.926 -5.366,37.157 -5.358,32.388C-5.357,30.644 -5.361,28.899 -5.371,27.155C-5.472,8.209 -5.673,6.864 -2.63,2.998ZM80.246,53.59C72.779,53.06 59.146,51.946 56,57C51.746,63.835 54.281,90.384 58.642,93.642C65.112,98.476 100.731,90.851 109,82C110.793,80.08 114.186,73.104 114.438,69.688C114.66,66.669 113.25,62.789 110.512,61.5C104.813,58.817 86.03,54 80.246,53.59Z" style="fill:rgb(232,63,63);"/>
                </g>
                <g transform="matrix(1,0,0,1,628.195,1615.23)">
                    <path d="M0,0C6.343,-0.109 12.685,-0.187 19.029,-0.232C21.107,-0.25 23.185,-0.274 25.263,-0.305C28.203,-0.347 31.142,-0.363 34.082,-0.372C34.95,-0.389 35.817,-0.407 36.711,-0.425C43.38,-0.401 51.62,0.049 54.687,5.572C58.44,12.329 58.46,33.79 59.227,40.116C59.364,41.246 59.258,41.805 59.289,43.529C59.297,45.136 59.297,45.136 59.305,46.777C59.314,47.743 59.484,49.308 59.106,51.335C58.469,54.749 55.14,54.299 51.556,54.265C50.665,54.262 49.773,54.258 48.854,54.255C47.892,54.241 46.929,54.228 45.938,54.214C44.444,54.206 44.444,54.206 42.921,54.198C39.731,54.181 36.541,54.149 33.352,54.116C30.183,54.089 27.015,54.064 23.846,54.045C21.875,54.033 19.904,54.016 17.933,53.992C12.972,53.956 7.926,54.582 3.277,54.812C-1.136,55.03 -5.543,55.293 -9.965,55.37C-10.973,55.391 -11.981,55.412 -13.02,55.433C-16.209,55.498 -19.397,55.557 -22.586,55.616C-24.761,55.66 -26.936,55.703 -29.111,55.747C-34.415,55.854 -41.733,53.602 -43.272,55.723C-44.361,57.224 -43.852,64.009 -43.742,66.726C-43.686,67.969 -43.686,67.969 -43.629,69.238C-43.558,70.964 -43.488,72.691 -43.418,74.417C-43.362,75.653 -43.362,75.653 -43.305,76.913C-43.274,77.661 -43.244,78.408 -43.213,79.178C-43.126,81.144 -43.68,82.46 -42.023,83.054C-37.983,84.503 -25.813,84.199 -17.949,84.187C-16.613,84.187 -15.276,84.188 -13.939,84.19C-11.157,84.191 -8.374,84.189 -5.591,84.184C-2.041,84.179 1.509,84.182 5.06,84.188C7.813,84.192 10.566,84.19 13.319,84.188C15.259,84.187 17.199,84.19 19.14,84.193C24.865,84.178 32.056,83.285 35.977,83.054C38.203,82.922 40.434,82.836 42.664,82.804C44.31,82.765 51.994,83.668 52.977,86.054C54.329,89.338 54.139,96.898 54.102,102.429C54.097,103.194 54.092,103.959 54.087,104.748C54.062,107.183 54.022,109.618 53.977,112.054C53.964,112.891 53.951,113.727 53.939,114.59C53.892,117.058 53.815,119.524 53.727,121.991C53.713,122.754 53.699,123.517 53.684,124.303C53.445,129.548 53.393,130.455 51.18,131.995C48.773,133.67 43.609,134.208 39.244,134.351C38.087,134.391 36.93,134.431 35.737,134.472C34.483,134.511 33.23,134.549 31.938,134.589C30.629,134.632 29.32,134.675 27.971,134.719C25.186,134.81 22.4,134.898 19.614,134.984C16.127,135.091 12.64,135.206 9.153,135.323C-8.241,135.904 -38.299,134.307 -41.012,137.178C-44.189,140.542 -42.535,147.749 -42.455,149.724C-42.417,150.594 -42.379,151.465 -42.34,152.363C-42.303,153.237 -42.266,154.112 -42.229,155.013C-41.957,159.042 -44.588,165.166 -41.023,167.054C-37.201,169.078 -26.536,167.136 -19.293,167.158C-15.926,167.168 -12.559,167.183 -9.192,167.205C9.52,167.324 28.129,166.522 46.782,164.695C50.919,164.289 55.503,164.332 57.977,166.054C59.47,167.093 59.106,169.622 59.109,172.152C59.111,172.953 57.599,193.088 57.477,196.116C56.944,208.889 57.762,210.693 55.977,214.054C54.494,216.845 50.952,216.3 46.762,216.284C45.517,216.282 44.273,216.281 42.99,216.279C41.034,216.26 41.034,216.26 39.039,216.241C37.77,216.241 36.501,216.24 35.193,216.24C29.451,216.213 23.769,216.092 18.051,215.558C10.614,214.871 3.188,214.814 -4.273,214.804C-5.022,214.802 -5.77,214.8 -6.541,214.798C-18.076,214.79 -29.482,215.365 -40.961,216.491C-41.648,216.559 -42.336,216.626 -43.044,216.696C-51.101,217.484 -55.668,218.614 -59.023,219.054C-60.399,219.234 -77.31,221.127 -82.023,221.054C-87.367,220.971 -96.596,221.283 -100.023,219.054C-103.281,216.935 -102.434,212.064 -102.586,207.679C-102.646,206.171 -104.157,191.241 -104.169,188.312C-104.178,186.612 -104.178,186.612 -104.188,184.878C-104.189,183.657 -104.19,182.437 -104.191,181.179C-104.195,179.904 -104.198,178.629 -104.201,177.316C-104.207,174.609 -104.209,171.902 -104.209,169.196C-104.209,166.463 -104.215,163.731 -104.229,160.998C-104.297,147.377 -104.254,133.902 -102.757,120.353C-101.763,111.236 -101.632,102.157 -101.648,92.991C-101.647,92.115 -101.646,91.238 -101.645,90.335C-101.654,75.512 -104.629,58.411 -105.567,46.791C-106.27,38.076 -107.234,29.424 -107.273,20.616C-107.294,19.447 -107.315,18.277 -107.336,17.072C-107.344,15.394 -107.344,15.394 -107.352,13.683C-107.361,12.673 -107.591,11.621 -107.38,10.623C-107.116,9.372 -107.027,7.039 -105.766,6.177C-104.505,5.316 -101.805,5.615 -99.812,5.452C-96.751,5.203 -91.534,4.977 -87.398,4.679C-80.221,4.161 -67.05,2.551 -56.749,2.345C-55.464,2.319 -54.179,2.292 -52.855,2.265C-51.708,2.247 -50.56,2.23 -49.378,2.212C-45.873,2.047 -41.9,1.3 -39.023,1.054C-36.727,0.858 -34.42,0.81 -32.117,0.738C-31.124,0.706 -31.124,0.706 -30.111,0.674C-27.916,0.607 -25.72,0.548 -23.523,0.491C-22.38,0.462 -22.38,0.462 -21.214,0.431C-14.143,0.253 -7.072,0.126 0,0Z" style="fill:none;fill-rule:nonzero;stroke:black;stroke-width:57.27px;stroke-linecap:butt;stroke-miterlimit:2;"/>
                    <path d="M0,0C6.343,-0.109 12.685,-0.187 19.029,-0.232C21.107,-0.25 23.185,-0.274 25.263,-0.305C28.203,-0.347 31.142,-0.363 34.082,-0.372C34.95,-0.389 35.817,-0.407 36.711,-0.425C43.38,-0.401 51.62,0.049 54.687,5.572C58.44,12.329 58.46,33.79 59.227,40.116C59.364,41.246 59.258,41.805 59.289,43.529C59.297,45.136 59.297,45.136 59.305,46.777C59.314,47.743 59.484,49.308 59.106,51.335C58.469,54.749 55.14,54.299 51.556,54.265C50.665,54.262 49.773,54.258 48.854,54.255C47.892,54.241 46.929,54.228 45.938,54.214C44.444,54.206 44.444,54.206 42.921,54.198C39.731,54.181 36.541,54.149 33.352,54.116C30.183,54.089 27.015,54.064 23.846,54.045C21.875,54.033 19.904,54.016 17.933,53.992C12.972,53.956 7.926,54.582 3.277,54.812C-1.136,55.03 -5.543,55.293 -9.965,55.37C-10.973,55.391 -11.981,55.412 -13.02,55.433C-16.209,55.498 -19.397,55.557 -22.586,55.616C-24.761,55.66 -26.936,55.703 -29.111,55.747C-34.415,55.854 -41.733,53.602 -43.272,55.723C-44.361,57.224 -43.852,64.009 -43.742,66.726C-43.686,67.969 -43.686,67.969 -43.629,69.238C-43.558,70.964 -43.488,72.691 -43.418,74.417C-43.362,75.653 -43.362,75.653 -43.305,76.913C-43.274,77.661 -43.244,78.408 -43.213,79.178C-43.126,81.144 -43.68,82.46 -42.023,83.054C-37.983,84.503 -25.813,84.199 -17.949,84.187C-16.613,84.187 -15.276,84.188 -13.939,84.19C-11.157,84.191 -8.374,84.189 -5.591,84.184C-2.041,84.179 1.509,84.182 5.06,84.188C7.813,84.192 10.566,84.19 13.319,84.188C15.259,84.187 17.199,84.19 19.14,84.193C24.865,84.178 32.056,83.285 35.977,83.054C38.203,82.922 40.434,82.836 42.664,82.804C44.31,82.765 51.994,83.668 52.977,86.054C54.329,89.338 54.139,96.898 54.102,102.429C54.097,103.194 54.092,103.959 54.087,104.748C54.062,107.183 54.022,109.618 53.977,112.054C53.964,112.891 53.951,113.727 53.939,114.59C53.892,117.058 53.815,119.524 53.727,121.991C53.713,122.754 53.699,123.517 53.684,124.303C53.445,129.548 53.393,130.455 51.18,131.995C48.773,133.67 43.609,134.208 39.244,134.351C38.087,134.391 36.93,134.431 35.737,134.472C34.483,134.511 33.23,134.549 31.938,134.589C30.629,134.632 29.32,134.675 27.971,134.719C25.186,134.81 22.4,134.898 19.614,134.984C16.127,135.091 12.64,135.206 9.153,135.323C-8.241,135.904 -38.299,134.307 -41.012,137.178C-44.189,140.542 -42.535,147.749 -42.455,149.724C-42.417,150.594 -42.379,151.465 -42.34,152.363C-42.303,153.237 -42.266,154.112 -42.229,155.013C-41.957,159.042 -44.588,165.166 -41.023,167.054C-37.201,169.078 -26.536,167.136 -19.293,167.158C-15.926,167.168 -12.559,167.183 -9.192,167.205C9.52,167.324 28.129,166.522 46.782,164.695C50.919,164.289 55.503,164.332 57.977,166.054C59.47,167.093 59.106,169.622 59.109,172.152C59.111,172.953 57.599,193.088 57.477,196.116C56.944,208.889 57.762,210.693 55.977,214.054C54.494,216.845 50.952,216.3 46.762,216.284C45.517,216.282 44.273,216.281 42.99,216.279C41.034,216.26 41.034,216.26 39.039,216.241C37.77,216.241 36.501,216.24 35.193,216.24C29.451,216.213 23.769,216.092 18.051,215.558C10.614,214.871 3.188,214.814 -4.273,214.804C-5.022,214.802 -5.77,214.8 -6.541,214.798C-18.076,214.79 -29.482,215.365 -40.961,216.491C-41.648,216.559 -42.336,216.626 -43.044,216.696C-51.101,217.484 -55.668,218.614 -59.023,219.054C-60.399,219.234 -77.31,221.127 -82.023,221.054C-87.367,220.971 -96.596,221.283 -100.023,219.054C-103.281,216.935 -102.434,212.064 -102.586,207.679C-102.646,206.171 -104.157,191.241 -104.169,188.312C-104.178,186.612 -104.178,186.612 -104.188,184.878C-104.189,183.657 -104.19,182.437 -104.191,181.179C-104.195,179.904 -104.198,178.629 -104.201,177.316C-104.207,174.609 -104.209,171.902 -104.209,169.196C-104.209,166.463 -104.215,163.731 -104.229,160.998C-104.297,147.377 -104.254,133.902 -102.757,120.353C-101.763,111.236 -101.632,102.157 -101.648,92.991C-101.647,92.115 -101.646,91.238 -101.645,90.335C-101.654,75.512 -104.629,58.411 -105.567,46.791C-106.27,38.076 -107.234,29.424 -107.273,20.616C-107.294,19.447 -107.315,18.277 -107.336,17.072C-107.344,15.394 -107.344,15.394 -107.352,13.683C-107.361,12.673 -107.591,11.621 -107.38,10.623C-107.116,9.372 -107.027,7.039 -105.766,6.177C-104.505,5.316 -101.805,5.615 -99.812,5.452C-96.751,5.203 -91.534,4.977 -87.398,4.679C-80.221,4.161 -67.05,2.551 -56.749,2.345C-55.464,2.319 -54.179,2.292 -52.855,2.265C-51.708,2.247 -50.56,2.23 -49.378,2.212C-45.873,2.047 -41.9,1.3 -39.023,1.054C-36.727,0.858 -34.42,0.81 -32.117,0.738C-31.124,0.706 -31.124,0.706 -30.111,0.674C-27.916,0.607 -25.72,0.548 -23.523,0.491C-22.38,0.462 -22.38,0.462 -21.214,0.431C-14.143,0.253 -7.072,0.126 0,0Z" style="fill:rgb(232,63,63);fill-rule:nonzero;"/>
                </g>
                <g transform="matrix(1,0,0,1,1198.56,1608.93)">
                    <path d="M0,0C1.326,-0.032 1.326,-0.032 2.678,-0.065C8.916,-0.097 15.821,0.781 18.875,5C21.929,9.219 20.813,21.375 21,25.25C21.051,26.303 18.837,49.261 18.832,59.789C18.829,61.328 18.825,62.868 18.822,64.407C18.816,67.605 18.814,70.804 18.815,74.002C18.815,78.064 18.801,82.126 18.784,86.188C18.773,89.357 18.771,92.526 18.771,95.696C18.77,97.192 18.766,98.689 18.758,100.185C18.719,108.388 19.94,117.493 20.516,124.404C20.995,130.162 21.783,135.891 22.211,141.654C22.611,146.689 21.952,159.336 25,162.25C27.253,164.405 45.67,161.892 54.572,161.755C59.149,161.684 63.726,161.61 68.303,161.526C72.718,161.446 77.134,161.376 81.55,161.312C83.236,161.286 84.922,161.257 86.608,161.224C88.966,161.178 99.36,160.562 102.696,164.849C104.882,167.659 104.549,172.733 104.563,173.75C104.683,180.361 106.105,188.151 106.552,192.964C106.852,196.179 107.346,203.251 107.266,206.148C107.18,209.24 106.968,211.811 105,213.25C103.032,214.689 98.783,214.611 95.458,214.781C94.319,214.844 94.319,214.844 93.157,214.907C85.76,215.295 78.36,215.519 70.955,215.696C68.587,215.752 66.219,215.812 63.851,215.873C58.817,216.002 53.783,216.105 48.75,216.25C37.871,216.563 23.658,216.823 -1.422,217.75C-2.22,217.785 -3.018,217.821 -3.841,217.857C-8.278,218.081 -13.432,218.966 -17,219.25C-19.743,219.468 -22.491,219.524 -25.25,219.563C-25.956,219.592 -26.663,219.621 -27.391,219.65C-30.541,219.689 -33.478,219.439 -34.965,217.633C-36.452,215.826 -36.362,212.199 -36.313,208.813C-36.303,208.158 -36.294,207.504 -36.285,206.83C-36.134,200.547 -35.21,194.337 -34.787,188.082C-34.302,180.912 -33.635,171.927 -33.375,163.813C-33.335,162.581 -33.295,161.35 -33.254,160.082C-32.943,149.351 -33.25,136.996 -33.438,127.875C-33.592,120.363 -34.176,112.871 -34.381,105.355C-34.717,93.158 -35.247,80.991 -36,68.813C-36.798,55.857 -37.52,42.906 -37.908,29.93C-37.997,27.345 -40.619,9.702 -35.375,5.813C-27.499,-0.029 -10.634,0.143 0,0Z" style="fill:none;fill-rule:nonzero;stroke:black;stroke-width:57.27px;stroke-linecap:butt;stroke-miterlimit:2;"/>
                    <path d="M0,0C1.326,-0.032 1.326,-0.032 2.678,-0.065C8.916,-0.097 15.821,0.781 18.875,5C21.929,9.219 20.813,21.375 21,25.25C21.051,26.303 18.837,49.261 18.832,59.789C18.829,61.328 18.825,62.868 18.822,64.407C18.816,67.605 18.814,70.804 18.815,74.002C18.815,78.064 18.801,82.126 18.784,86.188C18.773,89.357 18.771,92.526 18.771,95.696C18.77,97.192 18.766,98.689 18.758,100.185C18.719,108.388 19.94,117.493 20.516,124.404C20.995,130.162 21.783,135.891 22.211,141.654C22.611,146.689 21.952,159.336 25,162.25C27.253,164.405 45.67,161.892 54.572,161.755C59.149,161.684 63.726,161.61 68.303,161.526C72.718,161.446 77.134,161.376 81.55,161.312C83.236,161.286 84.922,161.257 86.608,161.224C88.966,161.178 99.36,160.562 102.696,164.849C104.882,167.659 104.549,172.733 104.563,173.75C104.683,180.361 106.105,188.151 106.552,192.964C106.852,196.179 107.346,203.251 107.266,206.148C107.18,209.24 106.968,211.811 105,213.25C103.032,214.689 98.783,214.611 95.458,214.781C94.319,214.844 94.319,214.844 93.157,214.907C85.76,215.295 78.36,215.519 70.955,215.696C68.587,215.752 66.219,215.812 63.851,215.873C58.817,216.002 53.783,216.105 48.75,216.25C37.871,216.563 23.658,216.823 -1.422,217.75C-2.22,217.785 -3.018,217.821 -3.841,217.857C-8.278,218.081 -13.432,218.966 -17,219.25C-19.743,219.468 -22.491,219.524 -25.25,219.563C-25.956,219.592 -26.663,219.621 -27.391,219.65C-30.541,219.689 -33.478,219.439 -34.965,217.633C-36.452,215.826 -36.362,212.199 -36.313,208.813C-36.303,208.158 -36.294,207.504 -36.285,206.83C-36.134,200.547 -35.21,194.337 -34.787,188.082C-34.302,180.912 -33.635,171.927 -33.375,163.813C-33.335,162.581 -33.295,161.35 -33.254,160.082C-32.943,149.351 -33.25,136.996 -33.438,127.875C-33.592,120.363 -34.176,112.871 -34.381,105.355C-34.717,93.158 -35.247,80.991 -36,68.813C-36.798,55.857 -37.52,42.906 -37.908,29.93C-37.997,27.345 -40.619,9.702 -35.375,5.813C-27.499,-0.029 -10.634,0.143 0,0Z" style="fill:rgb(232,63,63);fill-rule:nonzero;"/>
                </g>
                <g transform="matrix(1,0,0,1,2319.84,1594.63)">
                    <path d="M0,0C0.797,0.006 1.593,0.012 2.414,0.018C14.298,0.133 24.726,1.301 35.851,5.712C38.881,6.855 41.945,7.816 45.039,8.773C76.48,18.576 82.313,22.624 85.676,30.476C88.107,36.151 81.53,47.109 79.875,50.125C76.618,55.944 72.972,61.43 69.125,66.875C68.609,67.606 68.094,68.337 67.562,69.09C63.026,75.425 62.458,76.255 60.438,77.688C59.078,78.652 56.771,78.188 55.438,77.688C54.113,77.191 37.387,63.781 20.023,59.844C14.98,58.7 10.233,57.505 4.688,57.5C3.527,57.482 3.527,57.482 2.344,57.463C-5.124,57.444 -22.417,58.12 -21.563,67.688C-20.539,79.155 33.357,82.302 45.438,88.688C46.568,89.266 47.699,89.845 48.863,90.441C67.573,100.688 87.342,123.146 93.438,138.688C99.001,152.871 93.368,170.023 85.438,183.688C75.461,199.038 61.169,211.852 44.199,215.738C21.223,221 -24.483,225.882 -52.418,215.258C-60.026,212.2 -67.151,208.384 -74.188,204.188C-74.934,203.749 -75.68,203.311 -76.448,202.859C-81.317,199.856 -87.148,196.995 -88.563,191.688C-90.019,186.221 -87.993,176.325 -83.648,167.598C-81.393,163.066 -72.539,148.148 -70.563,145.688C-67.337,141.673 -64.43,139.438 -58.137,140.318C-55.757,140.651 -50.817,143.854 -48.563,144.688C-37.645,148.725 -12.917,166.422 10.944,164.913C18.316,164.246 30.242,162.103 31.438,158.688C32.92,154.452 28.272,150.782 25.016,148.375C21.182,145.542 14.247,143.393 8.438,141.688C7.49,141.409 6.542,141.13 5.565,140.843C-5.249,137.694 -20.847,133.985 -27.109,132.293C-28.768,131.845 -29.563,131.688 -32.008,130.691C-34.881,129.562 -37.855,129.393 -40.688,128.438C-58.276,122.506 -75.372,108.772 -81.563,89.688C-81.962,88.455 -85.04,75.804 -85,70.313C-85.02,69.335 -85.04,68.358 -85.061,67.352C-85.056,60.315 -79.848,46.993 -79.48,46.12C-72.232,29.062 -50.445,10.759 -27.83,4.429C-18.784,1.897 -10.083,-0.151 0,0Z" style="fill:none;fill-rule:nonzero;stroke:black;stroke-width:57.27px;stroke-linecap:butt;stroke-miterlimit:2;"/>
                    <path d="M0,0C0.797,0.006 1.593,0.012 2.414,0.018C14.298,0.133 24.726,1.301 35.851,5.712C38.881,6.855 41.945,7.816 45.039,8.773C76.48,18.576 82.313,22.624 85.676,30.476C88.107,36.151 81.53,47.109 79.875,50.125C76.618,55.944 72.972,61.43 69.125,66.875C68.609,67.606 68.094,68.337 67.562,69.09C63.026,75.425 62.458,76.255 60.438,77.688C59.078,78.652 56.771,78.188 55.438,77.688C54.113,77.191 37.387,63.781 20.023,59.844C14.98,58.7 10.233,57.505 4.688,57.5C3.527,57.482 3.527,57.482 2.344,57.463C-5.124,57.444 -22.417,58.12 -21.563,67.688C-20.539,79.155 33.357,82.302 45.438,88.688C46.568,89.266 47.699,89.845 48.863,90.441C67.573,100.688 87.342,123.146 93.438,138.688C99.001,152.871 93.368,170.023 85.438,183.688C75.461,199.038 61.169,211.852 44.199,215.738C21.223,221 -24.483,225.882 -52.418,215.258C-60.026,212.2 -67.151,208.384 -74.188,204.188C-74.934,203.749 -75.68,203.311 -76.448,202.859C-81.317,199.856 -87.148,196.995 -88.563,191.688C-90.019,186.221 -87.993,176.325 -83.648,167.598C-81.393,163.066 -72.539,148.148 -70.563,145.688C-67.337,141.673 -64.43,139.438 -58.137,140.318C-55.757,140.651 -50.817,143.854 -48.563,144.688C-37.645,148.725 -12.917,166.422 10.944,164.913C18.316,164.246 30.242,162.103 31.438,158.688C32.92,154.452 28.272,150.782 25.016,148.375C21.182,145.542 14.247,143.393 8.438,141.688C7.49,141.409 6.542,141.13 5.565,140.843C-5.249,137.694 -20.847,133.985 -27.109,132.293C-28.768,131.845 -29.563,131.688 -32.008,130.691C-34.881,129.562 -37.855,129.393 -40.688,128.438C-58.276,122.506 -75.372,108.772 -81.563,89.688C-81.962,88.455 -85.04,75.804 -85,70.313C-85.02,69.335 -85.04,68.358 -85.061,67.352C-85.056,60.315 -79.848,46.993 -79.48,46.12C-72.232,29.062 -50.445,10.759 -27.83,4.429C-18.784,1.897 -10.083,-0.151 0,0Z" style="fill:rgb(232,63,63);fill-rule:nonzero;"/>
                </g>
                <g transform="matrix(1,0,0,1,1832.56,1601.62)">
                    <path d="M0,0C0.655,-0.001 1.311,-0.002 1.986,-0.003C3.371,-0.004 4.756,-0.002 6.141,0.002C8.188,0.008 10.234,0.003 12.281,-0.004C19.485,-0.007 26.641,0.195 33.832,0.633C45.091,1.3 56.347,1.284 67.622,1.263C71.205,1.258 74.787,1.263 78.369,1.27C80.672,1.269 82.975,1.268 85.277,1.266C86.336,1.268 87.394,1.27 88.485,1.272C94.087,1.254 99.476,-0.081 104.984,0.133C113.202,0.452 132.022,0.969 137.793,3.188C141.034,4.434 139.523,9.826 139.609,13.445C139.661,14.942 140.371,23.379 140.492,25.016C140.722,28.109 141.209,34.088 141.234,38.695C141.265,40.094 141.265,40.094 141.297,41.521C141.326,46.552 140.283,51.691 137.984,54.133C135.686,56.575 125.541,56.35 124.53,56.441C117.183,57.055 100.395,57.429 99.313,57.44C95.015,57.478 90.718,57.506 86.421,57.514C73.05,57.554 50.054,60.016 47.984,62.133C46.308,63.848 46.759,70.432 46.796,72.798C46.816,74.131 47.246,77.403 49.383,79.196C53.437,82.599 67.791,80.291 78.265,80.263C80.68,80.258 83.095,80.263 85.51,80.27C93.153,80.273 102.315,79.6 108.301,79.369C112.674,79.2 117.034,78.91 121.422,78.883C122.28,78.862 123.138,78.842 124.021,78.82C128.818,78.791 133.332,78.957 135.984,82.133C138.812,85.518 141.259,95.953 141.609,102.82C141.847,107.484 142.636,122.942 139.984,127.133C134.492,135.815 95.569,137 82.237,138.644C71.833,139.927 49.6,141.312 47.957,143.369C46.177,145.598 46.161,147.044 46.708,150.806C47.177,154.037 46.526,162.3 50.984,165.133C53.566,166.773 62.581,165.219 68.379,165.243C70.348,165.253 72.317,165.266 74.286,165.284C77.131,165.308 108.574,163.204 112.484,162.695C117.367,162.06 125.564,160.375 129.98,159.781C132.963,159.38 136.587,157.857 138.984,159.133C146.455,163.11 145.124,171.551 145.117,174.273C145.118,175.074 145.119,180.088 145.115,181.783C145.109,184.359 145.069,195.99 145.123,196.775C145.468,201.75 147.847,210.713 142.883,211.988C123.692,216.92 60.138,226.231 29.981,226.364C27.493,226.376 25.005,226.394 22.517,226.417C18.97,226.447 15.423,226.456 11.875,226.461C10.278,226.479 10.278,226.479 8.649,226.498C1.347,226.477 -7.688,223.63 -11.453,221.258C-16.41,218.135 -18.254,208.323 -18.48,205.484C-18.558,204.56 -18.636,203.636 -18.717,202.684C-18.871,200.772 -19.025,198.861 -19.178,196.949C-19.601,191.947 -20.148,186.998 -20.921,182.037C-21.099,180.897 -21.276,179.757 -21.459,178.583C-21.971,175.407 -22.84,172.278 -23.075,169.07C-23.89,157.927 -26.535,131.125 -26.349,111.728C-26.321,108.442 -26.313,105.156 -26.305,101.87C-26.234,73.045 -26.197,45.654 -23.236,16.961C-22.53,10.122 -23.636,7.209 -20.016,3.133C-17.102,-0.147 -6.849,0.007 0,0Z" style="fill:none;fill-rule:nonzero;stroke:black;stroke-width:57.27px;stroke-linecap:butt;stroke-miterlimit:2;"/>
                    <path d="M0,0C0.655,-0.001 1.311,-0.002 1.986,-0.003C3.371,-0.004 4.756,-0.002 6.141,0.002C8.188,0.008 10.234,0.003 12.281,-0.004C19.485,-0.007 26.641,0.195 33.832,0.633C45.091,1.3 56.347,1.284 67.622,1.263C71.205,1.258 74.787,1.263 78.369,1.27C80.672,1.269 82.975,1.268 85.277,1.266C86.336,1.268 87.394,1.27 88.485,1.272C94.087,1.254 99.476,-0.081 104.984,0.133C113.202,0.452 132.022,0.969 137.793,3.188C141.034,4.434 139.523,9.826 139.609,13.445C139.661,14.942 140.371,23.379 140.492,25.016C140.722,28.109 141.209,34.088 141.234,38.695C141.265,40.094 141.265,40.094 141.297,41.521C141.326,46.552 140.283,51.691 137.984,54.133C135.686,56.575 125.541,56.35 124.53,56.441C117.183,57.055 100.395,57.429 99.313,57.44C95.015,57.478 90.718,57.506 86.421,57.514C73.05,57.554 50.054,60.016 47.984,62.133C46.308,63.848 46.759,70.432 46.796,72.798C46.816,74.131 47.246,77.403 49.383,79.196C53.437,82.599 67.791,80.291 78.265,80.263C80.68,80.258 83.095,80.263 85.51,80.27C93.153,80.273 102.315,79.6 108.301,79.369C112.674,79.2 117.034,78.91 121.422,78.883C122.28,78.862 123.138,78.842 124.021,78.82C128.818,78.791 133.332,78.957 135.984,82.133C138.812,85.518 141.259,95.953 141.609,102.82C141.847,107.484 142.636,122.942 139.984,127.133C134.492,135.815 95.569,137 82.237,138.644C71.833,139.927 49.6,141.312 47.957,143.369C46.177,145.598 46.161,147.044 46.708,150.806C47.177,154.037 46.526,162.3 50.984,165.133C53.566,166.773 62.581,165.219 68.379,165.243C70.348,165.253 72.317,165.266 74.286,165.284C77.131,165.308 108.574,163.204 112.484,162.695C117.367,162.06 125.564,160.375 129.98,159.781C132.963,159.38 136.587,157.857 138.984,159.133C146.455,163.11 145.124,171.551 145.117,174.273C145.118,175.074 145.119,180.088 145.115,181.783C145.109,184.359 145.069,195.99 145.123,196.775C145.468,201.75 147.847,210.713 142.883,211.988C123.692,216.92 60.138,226.231 29.981,226.364C27.493,226.376 25.005,226.394 22.517,226.417C18.97,226.447 15.423,226.456 11.875,226.461C10.278,226.479 10.278,226.479 8.649,226.498C1.347,226.477 -7.688,223.63 -11.453,221.258C-16.41,218.135 -18.254,208.323 -18.48,205.484C-18.558,204.56 -18.636,203.636 -18.717,202.684C-18.871,200.772 -19.025,198.861 -19.178,196.949C-19.601,191.947 -20.148,186.998 -20.921,182.037C-21.099,180.897 -21.276,179.757 -21.459,178.583C-21.971,175.407 -22.84,172.278 -23.075,169.07C-23.89,157.927 -26.535,131.125 -26.349,111.728C-26.321,108.442 -26.313,105.156 -26.305,101.87C-26.234,73.045 -26.197,45.654 -23.236,16.961C-22.53,10.122 -23.636,7.209 -20.016,3.133C-17.102,-0.147 -6.849,0.007 0,0Z" style="fill:rgb(232,63,63);fill-rule:nonzero;"/>
                </g>
                <g transform="matrix(1,0,0,1,2068.57,1602.11)">
                    <path d="M0,0C1.1,-0.015 2.199,0.02 3.299,0.033C7.631,0.086 18.426,0.209 25.989,0.319C28.552,0.356 31.115,0.39 33.679,0.421C91.704,1.15 94.493,5.454 110.547,19.051C126.6,32.647 133.881,54.608 130,82C127.143,102.163 113.666,119.63 96.12,126.38C93.479,127.396 85.226,131.628 85,135C84.475,142.836 105.608,165.768 112.691,177.289C118.043,185.993 125.434,198.64 127.5,204.125C128.268,206.164 126.989,209.139 125.086,210.199C122.523,211.626 117.039,212.634 112.125,212.688C110.378,212.73 100.458,213.593 98.508,213.504C91.619,213.189 70.72,214.053 63,211C57.062,208.652 54.257,198.344 52.188,195.188C51.545,194.207 51.111,193.105 50.584,192.059C49.039,188.992 45.44,181.892 42.915,176.785C41.295,173.514 32.979,151.975 27.656,147.106C25.982,145.576 11.507,135.379 2,141C-2.789,143.832 -1.484,152.889 0.05,169.405C0.966,179.254 1.136,180 1.924,187.826C2.308,191.641 4.442,207.422 -0.171,213.865C-2.316,216.861 -7.119,216.17 -9.137,216.539C-9.812,216.663 -10.509,216.568 -11.196,216.575C-12.621,216.589 -15.523,216.619 -17.688,216.625C-20.525,216.647 -37.782,218.172 -41.904,218.545C-45.591,218.879 -51.492,219.342 -53.592,217.915C-57.715,215.114 -56.658,194.537 -56.695,190.859C-56.732,188.299 -56.77,185.738 -56.81,183.178C-56.901,177.108 -56.979,171.038 -57.05,164.968C-57.186,153.498 -57.876,142.024 -57.518,130.559C-56.967,112.965 -55.809,102.594 -54.95,82.292C-54.508,71.845 -58.888,27.862 -58.79,23.125C-58.764,21.72 -58.743,20.315 -58.73,18.91C-58.709,16.982 -59.733,6.246 -54,2C-49.751,-1.148 -8.203,0.108 0,0ZM2,50C-2.741,53.116 0.492,69.113 0.587,72.982C0.696,77.457 1.948,90.799 5,93C18.664,102.852 48.001,91.252 61,77.188C63.571,74.405 64.564,69.45 63,66C61.009,61.61 52.221,51.13 38.807,51C32.244,50.936 7.039,46.688 2,50Z" style="fill:none;stroke:black;stroke-width:57.27px;stroke-linecap:butt;stroke-miterlimit:2;"/>
                    <path d="M0,0C1.1,-0.015 2.199,0.02 3.299,0.033C7.631,0.086 18.426,0.209 25.989,0.319C28.552,0.356 31.115,0.39 33.679,0.421C91.704,1.15 94.493,5.454 110.547,19.051C126.6,32.647 133.881,54.608 130,82C127.143,102.163 113.666,119.63 96.12,126.38C93.479,127.396 85.226,131.628 85,135C84.475,142.836 105.608,165.768 112.691,177.289C118.043,185.993 125.434,198.64 127.5,204.125C128.268,206.164 126.989,209.139 125.086,210.199C122.523,211.626 117.039,212.634 112.125,212.688C110.378,212.73 100.458,213.593 98.508,213.504C91.619,213.189 70.72,214.053 63,211C57.062,208.652 54.257,198.344 52.188,195.188C51.545,194.207 51.111,193.105 50.584,192.059C49.039,188.992 45.44,181.892 42.915,176.785C41.295,173.514 32.979,151.975 27.656,147.106C25.982,145.576 11.507,135.379 2,141C-2.789,143.832 -1.484,152.889 0.05,169.405C0.966,179.254 1.136,180 1.924,187.826C2.308,191.641 4.442,207.422 -0.171,213.865C-2.316,216.861 -7.119,216.17 -9.137,216.539C-9.812,216.663 -10.509,216.568 -11.196,216.575C-12.621,216.589 -15.523,216.619 -17.688,216.625C-20.525,216.647 -37.782,218.172 -41.904,218.545C-45.591,218.879 -51.492,219.342 -53.592,217.915C-57.715,215.114 -56.658,194.537 -56.695,190.859C-56.732,188.299 -56.77,185.738 -56.81,183.178C-56.901,177.108 -56.979,171.038 -57.05,164.968C-57.186,153.498 -57.876,142.024 -57.518,130.559C-56.967,112.965 -55.809,102.594 -54.95,82.292C-54.508,71.845 -58.888,27.862 -58.79,23.125C-58.764,21.72 -58.743,20.315 -58.73,18.91C-58.709,16.982 -59.733,6.246 -54,2C-49.751,-1.148 -8.203,0.108 0,0ZM2,50C-2.741,53.116 0.492,69.113 0.587,72.982C0.696,77.457 1.948,90.799 5,93C18.664,102.852 48.001,91.252 61,77.188C63.571,74.405 64.564,69.45 63,66C61.009,61.61 52.221,51.13 38.807,51C32.244,50.936 7.039,46.688 2,50Z" style="fill:rgb(232,63,63);"/>
                </g>
                <g transform="matrix(1,0,0,1,1672.19,1604.56)">
                    <path d="M-26.438,2.375C-17.578,0.98 35.439,-4.409 63.336,13.742C88.377,30.035 86.936,35.103 97.274,54.769C103.856,67.292 106.412,91.575 94.223,106.195C86.997,114.862 67.077,129.699 62.238,136.656C59.852,140.086 63.151,144.289 65.188,147.938C69.292,155.292 78.162,169.751 83.063,181.5C84.133,184.046 85.621,187.551 86.289,189.133C86.551,189.752 86.778,190.387 87.072,190.992C88.416,193.751 92.955,201.79 94.349,205.687C95.332,208.435 95.756,212.427 95.438,214.375C95.209,215.771 93.844,217.23 92.438,217.375C89.208,217.708 81.622,217.139 76.063,216.375C68.045,215.303 56.618,215.386 52,215.188C50.785,215.135 49.564,215.087 48.352,215.186C45.925,215.383 36.68,216.272 32.332,214.902C28.83,213.799 25.633,205.479 22.563,200.125C16.157,188.955 3.033,156.61 -6.994,149.354C-13.249,144.828 -30.091,145.703 -31.398,149.101C-33.165,153.694 -31.353,165.82 -31.303,173.766C-31.277,177.851 -31.242,181.936 -31.185,186.021C-31.131,189.963 -31.515,210.428 -34.738,215.202C-38.572,220.881 -65.116,218.13 -71.625,218.375C-76.079,218.543 -81.314,218.435 -84.179,216.471C-87.044,214.508 -88.584,211.455 -88.814,206.595C-89.105,200.454 -88.828,194.486 -88.821,191.813C-88.824,189.892 -88.828,187.972 -88.832,186.051C-88.841,180.84 -88.604,175.513 -88.215,170.316C-87.799,164.758 -86.461,156.863 -86.063,141.777C-85.821,132.618 -87.248,106.958 -87.259,96.369C-87.269,87.275 -87.27,78.182 -87.265,69.088C-87.261,63.658 -87.261,58.228 -87.268,52.798C-87.273,47.691 -88.837,41.018 -88.825,35.912C-88.823,34.039 -88.823,32.167 -88.828,30.294C-88.833,27.735 -89.549,11.798 -85.165,7.622C-81.346,3.983 -69.5,4.381 -61.438,4.528C-49.551,4.721 -38.205,4.23 -26.438,2.375ZM-30.563,58.375C-33.008,59.25 -32.979,64.579 -32.653,69.45C-32.327,74.327 -34.022,89.253 -31.556,93.971C-29.091,98.688 -21.809,98.026 -16.731,97.653C-6.566,96.908 21.499,94.617 29.438,89.5C34.636,86.15 36.063,81.417 36.063,77.063C36.063,72.708 33.347,66.584 29.438,63.375C25.528,60.166 16.072,58.104 12.603,57.809C5.576,57.209 -6.318,58.075 -8.785,58.1C-16.045,58.16 -26.82,57.035 -30.563,58.375Z" style="fill:none;stroke:black;stroke-width:57.27px;stroke-linecap:butt;stroke-miterlimit:2;"/>
                    <path d="M-26.438,2.375C-17.578,0.98 35.439,-4.409 63.336,13.742C88.377,30.035 86.936,35.103 97.274,54.769C103.856,67.292 106.412,91.575 94.223,106.195C86.997,114.862 67.077,129.699 62.238,136.656C59.852,140.086 63.151,144.289 65.188,147.938C69.292,155.292 78.162,169.751 83.063,181.5C84.133,184.046 85.621,187.551 86.289,189.133C86.551,189.752 86.778,190.387 87.072,190.992C88.416,193.751 92.955,201.79 94.349,205.687C95.332,208.435 95.756,212.427 95.438,214.375C95.209,215.771 93.844,217.23 92.438,217.375C89.208,217.708 81.622,217.139 76.063,216.375C68.045,215.303 56.618,215.386 52,215.188C50.785,215.135 49.564,215.087 48.352,215.186C45.925,215.383 36.68,216.272 32.332,214.902C28.83,213.799 25.633,205.479 22.563,200.125C16.157,188.955 3.033,156.61 -6.994,149.354C-13.249,144.828 -30.091,145.703 -31.398,149.101C-33.165,153.694 -31.353,165.82 -31.303,173.766C-31.277,177.851 -31.242,181.936 -31.185,186.021C-31.131,189.963 -31.515,210.428 -34.738,215.202C-38.572,220.881 -65.116,218.13 -71.625,218.375C-76.079,218.543 -81.314,218.435 -84.179,216.471C-87.044,214.508 -88.584,211.455 -88.814,206.595C-89.105,200.454 -88.828,194.486 -88.821,191.813C-88.824,189.892 -88.828,187.972 -88.832,186.051C-88.841,180.84 -88.604,175.513 -88.215,170.316C-87.799,164.758 -86.461,156.863 -86.063,141.777C-85.821,132.618 -87.248,106.958 -87.259,96.369C-87.269,87.275 -87.27,78.182 -87.265,69.088C-87.261,63.658 -87.261,58.228 -87.268,52.798C-87.273,47.691 -88.837,41.018 -88.825,35.912C-88.823,34.039 -88.823,32.167 -88.828,30.294C-88.833,27.735 -89.549,11.798 -85.165,7.622C-81.346,3.983 -69.5,4.381 -61.438,4.528C-49.551,4.721 -38.205,4.23 -26.438,2.375ZM-30.563,58.375C-33.008,59.25 -32.979,64.579 -32.653,69.45C-32.327,74.327 -34.022,89.253 -31.556,93.971C-29.091,98.688 -21.809,98.026 -16.731,97.653C-6.566,96.908 21.499,94.617 29.438,89.5C34.636,86.15 36.063,81.417 36.063,77.063C36.063,72.708 33.347,66.584 29.438,63.375C25.528,60.166 16.072,58.104 12.603,57.809C5.576,57.209 -6.318,58.075 -8.785,58.1C-16.045,58.16 -26.82,57.035 -30.563,58.375Z" style="fill:rgb(232,63,63);"/>
                </g>
            </g>
        </g>
    </g>
</svg>
