<?xml version="1.0" encoding="UTF-8" standalone="no"?>
<!DOCTYPE svg PUBLIC "-//W3C//DTD SVG 1.1//EN" "http://www.w3.org/Graphics/SVG/1.1/DTD/svg11.dtd">
<svg width="100%" height="100%" viewBox="0 0 1714 2350" version="1.1" xmlns="http://www.w3.org/2000/svg" xmlns:xlink="http://www.w3.org/1999/xlink" xml:space="preserve" xmlns:serif="http://www.serif.com/" style="fill-rule:evenodd;clip-rule:evenodd;stroke-linejoin:round;stroke-miterlimit:2;">
    <g transform="matrix(1,0,0,1,-4588,-5335.8)">
        <g id="Vertical-Logo" serif:id="Vertical Logo" transform="matrix(0.781578,0,0,1.07159,1350.7,5335.8)">
            <rect x="4142" y="0" width="2193" height="2193" style="fill:none;"/>
            <g transform="matrix(2.68519,0,0,1.95847,3788.5,40.2702)">
                <g transform="matrix(0.492476,0,0,0.492476,-2039.84,5.52385)">
                    <g>
                        <g transform="matrix(0.70278,0,0,0.70278,5258.92,1615.06)">
                            <path d="M0,0C2.096,-0.005 4.192,-0.016 6.287,-0.028C32.21,-0.163 57.436,2.463 82.947,6.932L85.896,7.442C101.714,10.182 117.47,13.211 133.197,16.432L136.134,17.024C199.164,29.802 264.395,63.174 302.697,116.37L304.078,118.271C329.564,153.592 351.687,200.325 358.697,243.37L359.216,246.476C359.759,250.875 359.876,255.15 359.865,259.577L359.859,262.221C359.776,271.555 358.976,280.779 358.009,290.057L357.74,292.718C351.824,350.844 341.056,411.106 299.697,455.37L297.025,458.288C255.774,501.552 185.613,512.087 129.315,520.957C127.637,521.222 125.959,521.489 124.282,521.759C74.013,529.864 22.183,530.685 -28.648,531.163L-31.975,531.194L-35.222,531.224C-42.493,531.307 -49.735,531.586 -56.994,531.994C-67.646,532.582 -78.31,532.723 -88.974,532.922C-98.765,533.109 -108.5,533.373 -118.264,534.147C-122.799,534.479 -127.32,534.591 -131.866,534.62L-134.438,534.682C-140.594,534.721 -147.044,534.164 -148.491,529.37C-151.718,518.672 -153.555,487.187 -153.803,470.495C-153.883,465.461 -153.965,460.427 -154.049,455.393L-154.111,451.669C-154.264,442.833 -154.504,434.002 -154.799,425.17C-156.657,368.124 -153.851,312.124 -145.628,255.642C-141.227,225.378 -140.015,195.479 -144.002,165.108L-144.26,163.123C-146.292,147.576 -148.926,132.137 -151.619,116.692C-152.617,110.964 -153.606,105.234 -154.59,99.503C-154.929,97.541 -155.272,95.579 -155.615,93.618C-157.065,85.22 -158.423,76.827 -158.436,68.284L-158.443,65.685L-158.428,62.995L-158.416,60.115C-158.314,46.964 -157.876,33.954 -155.928,20.932L-155.583,18.547C-154.881,14.256 -153.745,9.693 -151.303,7.37C-148.861,5.046 -144.824,4.945 -140.932,4.607C-139.309,4.461 -137.687,4.305 -136.067,4.135C-126.98,3.211 -117.872,2.936 -108.748,2.616L-106.028,2.518C-99.162,2.271 -92.295,2.036 -85.428,1.807L-82.366,1.705C-54.914,0.792 -27.469,0.048 0,0ZM128.697,155.37C88.399,142.047 22.589,133.413 -0.303,135.37C-11.178,136.3 -8.21,156.198 -8.654,167.113C-9.23,181.035 -9.472,194.939 -9.501,208.873L-9.506,212.42C-9.521,218.866 -9.536,225.312 -9.541,231.758C-9.544,237.038 -9.548,242.318 -9.567,247.598C-9.727,284.241 -8.942,320.648 -6.513,357.216C-6.368,359.396 -6.224,361.575 -6.081,363.755C-5.193,377.296 -6.642,395.398 -3.303,402.37C-0.812,407.57 8.133,405.507 13.954,405.586L16.994,405.608C19.193,405.625 21.392,405.639 23.591,405.653C25.877,405.661 28.162,405.671 30.447,405.682C49.695,405.935 67.712,404.795 86.196,399.038L88.572,398.245C99.38,394.717 109.78,390.325 120.102,385.573L122.697,384.37C140.751,376.072 158.234,365.482 171.318,350.268L173.697,347.37C196.322,320.132 207.729,284.234 206.935,248.936C205.799,221.329 194.375,199.481 174.47,181.003L172.697,179.37C160.855,168.301 146.283,161.145 130.971,156.106L128.697,155.37Z" style="fill:#3e63ae;"/>
                        </g>
                        <g transform="matrix(0.70278,0,0,0.70278,4887.49,1606.75)">
                            <path d="M0,0C1.367,0.001 1.367,0.001 2.762,0.003C32.738,0.069 62.175,2.699 91.188,10.688C92.18,10.96 93.173,11.232 94.196,11.512C111.358,16.516 112.231,18.908 115.438,23.188C118.265,26.96 116.631,31.727 113.438,37.188C111.748,39.338 110.055,41.392 108.25,43.438C107.252,44.593 106.254,45.749 105.258,46.906C104.772,47.468 104.287,48.03 103.786,48.609C102.016,50.68 100.315,52.801 98.625,54.938C95.019,59.489 91.327,63.964 87.625,68.438C83.278,73.693 78.995,78.987 74.813,84.375C69.728,90.91 64.376,97.19 58.949,103.442C56.952,105.748 54.969,108.067 52.986,110.386C48.344,115.816 43.68,121.227 39,126.625C38.189,127.561 38.189,127.561 37.361,128.516C34.653,131.639 31.94,134.759 29.219,137.871C22.871,145.144 16.659,152.511 10.539,159.976C3.039,169.123 -4.551,178.166 -12.512,186.918C-14.415,189.024 -16.274,191.161 -18.125,193.313C-21.058,196.685 -24.16,199.834 -27.375,202.938C-29.192,204.806 -30.872,206.707 -32.563,208.688C-38.083,215.044 -44.178,220.859 -50.165,226.77C-58.091,234.603 -65.693,242.497 -72.375,251.438C-73.124,252.433 -73.873,253.428 -74.645,254.453C-77.787,258.769 -79.075,260.524 -78.57,263.895C-78.036,267.465 -74.407,271.986 -71.438,275.875C-70.236,277.489 -69.037,279.105 -67.84,280.723C-67.266,281.496 -66.692,282.27 -66.101,283.067C-64.278,285.579 -62.617,288.163 -61,290.813C-51.272,306.502 -38.915,320.537 -26.828,334.422C-22.469,339.437 -18.186,344.516 -13.905,349.599C-12.55,351.203 -11.186,352.799 -9.82,354.395C-3.182,362.161 3.175,370.116 9.438,378.188C10.063,378.988 10.688,379.789 11.332,380.613C12.439,382.032 13.543,383.452 14.645,384.875C15.989,386.609 17.342,388.338 18.699,390.063C24.336,397.263 29.585,404.669 34.73,412.227C52.279,437.986 71.141,462.773 92.215,485.75C94.112,487.83 95.971,489.933 97.813,492.063C99.899,494.474 102.03,496.83 104.219,499.148C125.966,522.228 125.966,522.228 126.625,534.75C126.449,537.976 126.4,540.506 124.438,542.188C121.24,544.927 111.223,545.936 107.438,545.188C105.506,544.806 103.625,544.202 101.723,543.695C90.727,541.303 79.576,541.739 68.375,541.813C67.189,541.816 66.002,541.819 64.78,541.823C46.283,541.883 27.84,542.505 9.375,543.563C8.263,543.625 7.152,543.688 6.006,543.753C-4.675,544.374 -15.24,545.112 -25.814,546.777C-29.271,547.293 -32.568,547.488 -36.063,547.5C-37.166,547.517 -38.269,547.534 -39.406,547.551C-47.255,546.647 -51.459,541.715 -56.217,535.907C-59.458,531.765 -62.446,527.431 -65.483,523.139C-69.107,518.064 -72.92,513.284 -77.063,508.625C-83.388,501.5 -89.189,494.06 -94.886,486.426C-96.6,484.137 -98.334,481.863 -100.07,479.59C-107.805,469.38 -114.635,458.87 -121.052,447.79C-123.134,444.203 -125.251,440.637 -127.366,437.07C-131.233,430.545 -135.081,424.009 -138.922,417.469C-150.152,398.366 -161.6,380.439 -175.563,363.188C-176.257,362.268 -176.952,361.349 -177.668,360.402C-178.293,359.671 -178.918,358.941 -179.563,358.188L-181.563,358.188C-182.958,359.716 -184.278,361.314 -185.563,362.938C-186.369,363.949 -187.176,364.961 -188.008,366.004C-188.641,366.799 -188.641,366.799 -189.286,367.61C-191.283,370.077 -193.37,372.467 -195.438,374.875C-199.327,379.563 -203.021,384.356 -206.563,389.313C-207.032,389.945 -207.501,390.578 -207.984,391.229C-214.05,399.921 -213.87,409.834 -213.863,420.102C-213.869,421.333 -213.874,422.565 -213.88,423.835C-213.889,427.144 -213.888,430.453 -213.88,433.762C-213.875,435.823 -213.874,437.885 -213.875,439.946C-213.867,458.374 -213.265,476.646 -211.643,495.009C-210.776,504.853 -210.234,514.616 -210.188,524.5C-210.174,525.658 -210.16,526.817 -210.146,528.01C-210.152,529.055 -210.158,530.099 -210.164,531.176C-210.167,532.079 -209.959,533.025 -210.174,533.911C-210.741,536.247 -212.237,538.266 -213.563,539.188C-214.813,540.057 -215.754,539.516 -218.125,539.438C-218.91,539.422 -219.695,539.407 -220.504,539.391C-222.563,539.188 -223.563,539.344 -225.563,539.188C-232.39,538.652 -237.994,537.978 -244.706,539.216C-256.461,541.383 -268.187,541.893 -280.114,542.268C-283.493,542.375 -286.87,542.497 -290.248,542.623C-344.101,544.551 -340.821,545.3 -352.563,539.188C-355.021,537.908 -354.692,533.077 -354.695,529.949C-354.697,528.003 -354.697,528.003 -354.699,526.018C-354.697,525.334 -354.695,524.65 -354.693,523.946C-354.688,521.949 -354.693,519.952 -354.699,517.955C-354.703,510.646 -354.492,503.376 -354.09,496.078C-353.235,480.026 -353.211,463.943 -353.03,447.873C-352.99,444.402 -352.946,440.932 -352.902,437.461C-352.341,397.791 -352.341,397.791 -352.875,358.125C-352.894,357.437 -352.913,356.748 -352.933,356.039C-353.336,342.299 -354.672,328.747 -356.237,315.091C-358.824,292.03 -357.731,269.189 -354.811,246.24C-354.536,244.074 -354.263,241.908 -353.991,239.742C-353.635,236.913 -353.265,234.086 -352.884,231.26C-350.882,215.988 -351.341,201.938 -354.438,186.875C-358.664,165.941 -359.93,145.674 -359.875,124.313C-359.875,123.06 -359.875,121.808 -359.876,120.517C-359.862,97.049 -358.892,73.663 -357.542,50.237C-357.471,48.987 -357.401,47.738 -357.328,46.45C-357.194,44.111 -357.054,41.773 -356.907,39.434C-356.816,37.885 -356.816,37.885 -356.724,36.305C-356.669,35.408 -356.613,34.511 -356.556,33.587C-356.462,31.202 -356.402,25.762 -354.313,23.625C-351.24,20.483 -345.891,16.18 -338.121,14.733C-322.127,12.157 -306.137,11.034 -289.941,11.02C-288.585,11.016 -287.228,11.013 -285.872,11.009C-283.052,11.004 -280.233,11.002 -277.414,11.002C-273.846,11.002 -270.279,10.989 -266.712,10.971C-263.917,10.96 -261.123,10.958 -258.328,10.959C-256.388,10.957 -254.448,10.946 -252.508,10.935C-222.869,11.01 -222.231,12.884 -214.469,19.238C-206.707,25.593 -206.786,37.932 -205.938,49.063C-205.872,49.905 -205.807,50.748 -205.74,51.616C-203.564,80.679 -203.246,110.039 -206.276,139.044C-208.285,158.375 -207.717,187.969 -207.563,197.188C-207.542,198.386 -206.102,195.317 -205.35,194.354C-204.369,193.1 -203.387,191.847 -202.406,190.594C-201.928,189.98 -201.449,189.367 -200.956,188.735C-197.746,184.639 -194.446,180.642 -191.063,176.688C-185.892,170.63 -180.952,164.417 -176.071,158.125C-174.46,156.055 -172.838,153.994 -171.215,151.934C-164.209,143.018 -157.44,133.969 -150.84,124.75C-145.743,117.634 -140.522,110.609 -135.32,103.57C-133.585,101.218 -131.856,98.862 -130.129,96.504C-123.361,87.273 -116.493,78.127 -109.535,69.039C-105.039,63.157 -100.622,57.224 -96.25,51.25C-90.518,43.428 -84.637,35.747 -78.563,28.188C-77.771,27.201 -76.98,26.215 -76.164,25.199C-73.985,22.51 -71.782,19.843 -69.563,17.188C-68.861,16.338 -68.16,15.489 -67.438,14.613C-66.757,13.813 -66.076,13.012 -65.375,12.188C-64.487,11.136 -63.438,9.418 -60.582,8.063C-56.996,6.361 -50.833,4.163 -43.375,3.063C-42.302,2.894 -41.229,2.725 -40.123,2.551C-26.691,0.487 -13.565,-0.018 0,0Z" style="fill:#3e63ae;fill-rule:nonzero;"/>
                        </g>
                        <g transform="matrix(0.70278,0,0,0.70278,5722.7,1616.72)">
                            <path d="M0,0C1.108,0.259 1.108,0.259 2.239,0.523C15.273,3.576 28.244,6.862 41.192,10.263C43.035,10.747 44.878,11.229 46.722,11.71C68.197,17.315 88.942,23.313 109,33C109.854,33.411 110.707,33.821 111.586,34.245C128.124,42.329 145.229,51.677 159,64C159.559,64.445 160.119,64.889 160.695,65.348C163.516,67.745 163.993,68.942 164.438,72.688C164,76 164,76 162,78C161.01,78 127.007,132.254 110.665,151.984C107.734,155.534 104.838,159.112 101.938,162.688C101.401,163.347 100.865,164.007 100.313,164.686C99.553,165.621 99.553,165.621 98.777,166.574C98.06,167.455 98.06,167.455 97.328,168.353C96.137,169.83 94.975,171.33 93.816,172.832C92,175 90.969,176.805 89,177C87.031,177.195 80.922,173.509 80.366,173.256C77.438,171.702 74.844,169.834 72.145,167.91C65.207,163.037 58.017,158.691 50.688,154.438C50.055,154.069 49.423,153.7 48.771,153.32C39.359,147.835 29.909,142.541 20,138C19.002,137.526 18.005,137.051 16.977,136.563C1.298,129.501 -15.987,127.857 -32.875,125.813C-34.969,125.551 -37.063,125.289 -39.156,125.025C-75.287,120.351 -97.047,125.983 -108.25,134.25C-113.414,138.06 -118.857,146.234 -118.375,150.625C-117.369,159.781 -92.784,174.405 -78.263,180.67C-55.394,189.993 -31.014,195.421 -6.869,200.261C18.249,205.3 41.443,213.11 65,223C65.9,223.373 66.8,223.745 67.728,224.129C92.567,234.451 117.877,247.846 137,267C137.647,267.576 138.294,268.152 138.961,268.746C158.347,286.334 168.52,319.15 170.168,344.601C170.382,350.069 170.385,355.532 170.336,361.003C170.313,363.8 170.316,366.596 170.322,369.393C170.251,415.949 161.681,455.714 129,490C128.211,490.853 127.422,491.707 126.609,492.586C94.239,526.564 44.636,535.516 0,541C-0.887,541.113 -1.774,541.227 -2.688,541.344C-29.938,544.353 -58.94,542.803 -86,539C-86.753,538.896 -87.506,538.792 -88.282,538.684C-128.657,533.087 -128.657,533.087 -147,528C-148.156,527.683 -148.156,527.683 -149.335,527.36C-180.441,518.551 -213.742,503.899 -240,485C-240.552,484.609 -241.103,484.219 -241.671,483.816C-247.709,479.525 -253.227,475.071 -258.328,469.695C-260.066,467.839 -260.066,467.839 -262.688,466.063C-266.604,462.569 -270.59,457.932 -270.266,452.871C-268.651,427.694 -230.985,377.444 -211,351C-210.29,350.054 -209.579,349.108 -208.848,348.133C-203.592,341.233 -203.445,340.424 -199.438,340.625C-188.223,341.186 -174.807,355.362 -165.563,363.5C-158.366,369.82 -150.84,375.507 -143,381C-142.12,381.628 -142.12,381.628 -141.222,382.268C-106.951,406.626 -67.51,418.347 -25.5,411.75C-9.277,408.869 6.991,402.331 16.855,388.375C20.541,382.352 23.04,377.233 22,370C17.857,357.248 7.096,350.787 -4.213,344.91C-12.746,340.565 -21.36,337.468 -30.531,334.805C-31.568,334.503 -32.604,334.202 -33.672,333.892C-46.032,330.35 -58.511,327.276 -70.994,324.205C-78.055,322.467 -85.111,320.709 -92.168,318.953C-92.861,318.781 -93.555,318.608 -94.269,318.431C-109.623,314.612 -124.942,310.671 -140.218,306.551C-144.564,305.38 -148.918,304.244 -153.277,303.121C-165.335,299.965 -176.213,296.288 -187,290C-187.918,289.47 -188.836,288.94 -189.781,288.395C-229.105,264.409 -258.119,235.135 -269.238,189.719C-276.577,153.892 -268.492,116.629 -248.59,86.25C-235.817,67.447 -219.098,54.034 -200,42C-199.403,41.623 -198.805,41.246 -198.189,40.857C-142.348,5.888 -65.491,-15.365 0,0Z" style="fill:#3e63ae;fill-rule:nonzero;"/>
                        </g>
                        <g transform="matrix(0.70278,0,0,0.70278,5017.9,1618.5)">
                            <path d="M0,0C1.23,0.031 1.23,0.031 2.485,0.063C4.266,0.109 6.047,0.158 7.828,0.209C10.672,0.29 13.517,0.365 16.362,0.437C20.401,0.54 24.441,0.646 28.48,0.752C37.879,0.997 47.279,1.208 56.68,1.411C59.608,1.475 62.537,1.542 65.466,1.609C74.505,1.81 83.541,1.959 92.582,1.984C93.377,1.988 94.171,1.993 94.99,1.997C101.497,1.996 107.906,1.508 114.375,0.84C118.293,0.926 123.089,0.691 123.758,3.914C125.951,14.484 128.299,47.768 127.532,64.26C126.457,87.452 125.499,110.638 125.07,133.852C125.052,134.827 125.033,135.802 125.014,136.807C124.896,143.176 124.814,149.544 124.758,155.914C124.744,157.362 124.744,157.362 124.73,158.839C124.628,170.862 124.841,182.734 125.758,194.727C126.535,205.558 126.821,216.279 126.664,227.136C126.456,241.705 127.804,255.515 130.275,269.892C131.026,274.591 131.512,279.302 131.945,284.039C132.017,284.795 132.088,285.551 132.162,286.329C132.385,288.856 132.575,291.384 132.758,293.914C132.887,295.616 132.887,295.616 133.019,297.351C135.339,331.459 136.405,367.086 128.453,400.514C125.142,414.64 124.104,427.83 124.34,442.301C124.354,444.429 124.366,446.558 124.376,448.686C124.406,454.203 124.464,459.719 124.531,465.236C124.635,474.128 124.697,483.02 124.753,491.913C124.777,495 124.816,498.087 124.856,501.174C124.873,503.057 124.889,504.94 124.906,506.823C124.921,507.674 124.936,508.526 124.951,509.403C124.975,513.649 126.398,519.498 122.758,520.914C114.986,523.937 92.417,527.323 78.32,527.539C77.314,527.556 76.308,527.574 75.271,527.592C68.642,527.705 62.013,527.794 55.383,527.871C51.602,527.916 47.822,527.966 44.041,528.017C37.495,528.101 30.95,528.159 24.404,528.199C21.855,528.217 19.306,528.242 16.757,528.273C13.18,528.315 9.604,528.331 6.027,528.34C4.424,528.366 4.424,528.366 2.789,528.393C-1.541,528.38 -6.213,529.428 -8.384,526.325C-10.751,522.942 -11.401,514.258 -11.41,508.098C-11.414,507.258 -11.418,506.417 -11.423,505.552C-11.432,502.818 -11.432,500.085 -11.43,497.352C-11.43,496.408 -11.43,495.464 -11.43,494.491C-11.418,481.832 -11.08,469.294 -10.094,456.67C-9.132,444.24 -8.627,431.801 -8.12,419.346C-7.304,399.359 -7.304,399.359 -6.672,389.426C-4.4,353.629 -3.667,318.384 -9.239,282.852C-13.821,253.341 -14.89,223.725 -15.72,193.92C-15.864,188.821 -16.019,183.722 -16.175,178.623C-16.206,177.61 -16.237,176.597 -16.269,175.553C-16.331,173.521 -16.393,171.49 -16.455,169.458C-16.546,166.46 -16.636,163.463 -16.726,160.465C-17.244,143.269 -17.908,126.081 -18.684,108.895C-19.314,94.77 -19.34,80.812 -18.445,66.697C-17.757,55.823 -17.192,44.965 -16.992,34.07C-16.975,33.181 -16.958,32.292 -16.94,31.376C-16.859,27.049 -16.798,22.722 -16.76,18.395C-16.735,16.819 -16.71,15.244 -16.684,13.668C-16.684,12.598 -16.684,12.598 -16.683,11.507C-16.596,7.185 -16.023,2.832 -13.242,0.914C-10.462,-1.004 -4.434,-0.138 0,0Z" style="fill:#3e63ae;fill-rule:nonzero;"/>
                        </g>
                    </g>
                    <g transform="matrix(0.667766,0,0,0.667766,4463.87,1251.34)">
                        <g transform="matrix(1,0,0,1,1590.48,208.739)">
                            <path d="M0,0C2.281,0.011 4.562,-0 6.843,-0.013C20.202,-0.03 31.447,2.304 44.082,6.636L47.58,7.808C72.512,16.236 95.497,27.913 114.519,46.261L116.804,48.354C122.143,53.375 125.909,58.903 129.519,65.261L131.488,68.679C142.144,88.064 145.753,108.486 145.832,130.323L145.841,132.583C145.863,148.087 144.628,163.515 139.519,178.261C139.1,179.797 138.693,181.337 138.292,182.878C130.878,211.039 116.275,231.496 92.519,248.261L90.856,249.436C81.608,255.874 71.837,260.774 61.519,265.261L58.289,266.694C49.186,270.474 39.64,272.634 30.031,274.709C28.449,275.056 26.873,275.428 25.306,275.834C16.618,277.922 7.716,277.702 -1.168,277.698L-3.797,277.7C-17.875,277.669 -30.998,276.604 -44.481,272.261L-46.875,271.514C-82.263,260.137 -108.95,232.332 -125.715,199.999C-127.693,196.112 -129.628,192.209 -131.481,188.261L-133.133,184.757C-134.557,181.063 -135.166,176.27 -135.668,173.823C-135.922,172.59 -135.916,171.314 -136.149,170.077C-136.818,166.526 -139.653,157.521 -139.684,152.519L-139.701,150.317C-139.711,148.782 -139.717,147.247 -139.721,145.713C-139.731,143.426 -139.762,141.141 -139.793,138.854C-139.928,119.841 -136.215,102.96 -127.403,86.071C-126.515,84.327 -125.684,82.554 -124.856,80.78C-113.626,56.889 -92.94,34.556 -69.481,22.261C-69.481,22.261 -63.653,18.858 -61.231,17.323C-57.838,15.163 -57.838,15.163 -54.622,12.757C-51.751,10.751 -48.72,9.582 -45.481,8.261L-42.043,6.726L-38.481,5.198L-34.981,3.663C-23.927,-0.264 -11.597,-0.065 0,0ZM7.427,73.89C-3.328,73.888 -17.689,72.702 -27.368,78.003L-30.168,80.136C-34.083,83.089 -37.738,86.305 -41.3,89.673C-57.641,105.691 -63.468,123.731 -63.779,146.192L-63.793,149.636C-63.835,157.742 -59.481,176.261 -59.481,176.261C-54.028,189.27 -46.327,201.296 -36.079,211.038C-23.236,222.026 -6.722,224.807 5.519,223.261C17.761,221.715 28.998,213.066 37.371,201.761L39.144,199.261C40.988,196.685 42.476,194.362 43.73,191.448C43.73,191.448 54.158,173.224 56.761,164.815L57.519,162.261C59.523,156.072 61.21,150.023 61.744,143.527C62.695,123.15 60.485,100.636 46.296,84.776C36.799,75.565 27.275,73.714 14.488,73.812C12.134,73.849 9.781,73.886 7.427,73.89Z" style="fill:#3e63ae;"/>
                        </g>
                        <g transform="matrix(1,0,0,1,2010.38,214.75)">
                            <path d="M0,0C26.305,0.698 48.873,4.826 51.772,8.651C54.672,12.476 54.044,18.733 53.891,24.137C53.863,26.074 53.835,28.01 53.809,29.947C53.778,32.124 53.738,34.301 53.698,36.478C53.611,41.605 53.592,46.731 53.58,51.858C53.549,64.26 53.472,76.661 53.375,89.063C53.362,90.731 53.362,90.731 53.349,92.433C53.013,134.516 50.114,193.716 49.298,218.514C49.049,226.083 48.565,233.638 48.453,241.218C48.427,242.629 48.401,244.04 48.375,245.451C48.329,248.05 48.726,250.677 48.318,253.242C47.8,256.498 47.502,262.586 45.27,264.987C43.037,267.387 38.815,267.398 34.926,267.645C33.975,267.711 33.025,267.778 32.046,267.846C31.02,267.918 29.994,267.989 28.938,268.063C19.139,268.794 7.962,271.064 -0.091,271.929C-6.497,272.617 -14.994,275.53 -19.375,273.25C-23.756,270.97 -25.961,262.439 -26.375,258.25C-26.678,255.186 -26.745,252.17 -26.789,249.109C-26.818,247.814 -26.818,247.814 -26.848,246.492C-26.909,243.661 -26.955,240.831 -27,238C-27.037,236.002 -27.074,234.004 -27.111,232.006C-27.22,225.754 -27.302,219.502 -27.375,213.25C-27.387,212.246 -27.399,211.241 -27.411,210.207C-27.719,183.408 -19.846,132.537 -24.375,130.25C-25.475,129.694 -27.344,136.645 -28.335,138.779C-29.507,141.302 -30.677,143.826 -31.846,146.35C-34.734,152.579 -37.631,158.803 -40.57,165.008C-46.955,178.529 -52.991,192.166 -58.813,205.938C-59.148,206.727 -59.483,207.516 -59.828,208.329C-63.913,217.965 -68.34,230.529 -71.072,237.552C-72.753,241.872 -74.387,246.198 -76.223,250.469C-77.405,253.323 -78.011,256.398 -79.438,259.125C-81.249,262.587 -83.267,268.717 -87.09,271.238C-90.913,273.759 -97.053,273.941 -102.375,274.25C-103.289,274.338 -104.203,274.425 -105.145,274.516C-109.854,274.799 -114.307,274.807 -117.188,271.875C-121.58,267.404 -127.566,256.121 -131.5,247.688C-134.368,241.57 -137.748,235.698 -140.332,229.461C-144.998,218.199 -154.082,197.117 -159.495,180.119C-162.8,169.767 -166.209,159.448 -169.596,149.123C-170.904,145.138 -172.208,141.151 -173.508,137.164C-174.127,135.264 -174.748,133.365 -175.368,131.466C-176.137,129.111 -176.905,126.756 -177.671,124.4C-178.013,123.354 -178.355,122.308 -178.708,121.23C-179.007,120.313 -179.306,119.395 -179.614,118.45C-180.323,116.245 -179.834,113.284 -181.375,114.25C-183.32,115.469 -181.416,134.003 -181.427,143.879C-181.432,148.467 -181.439,153.055 -181.45,157.642C-181.461,162.084 -181.467,166.525 -181.47,170.967C-181.472,172.647 -181.475,174.327 -181.481,176.007C-181.507,184.538 -181.416,193.037 -180.925,201.555C-180.886,202.245 -180.846,202.935 -180.805,203.646C-180.445,209.263 -179.134,214.661 -178.438,220.188C-177.293,229.267 -174.308,245.301 -173.938,258.125C-173.878,260.039 -174.791,266.756 -176.715,267.633C-179.924,269.095 -188.163,269.993 -193.068,270.768C-197.402,271.452 -201.771,271.927 -206.145,272.277C-211.571,272.712 -219.016,273.476 -225.625,273.375C-226.763,273.366 -227.901,273.357 -229.074,273.348C-231.841,273.324 -235.574,275.351 -237.375,273.25C-239.511,270.758 -241.961,264.493 -241.889,258.398C-241.896,257.643 -241.904,256.887 -241.911,256.109C-241.93,253.614 -241.922,251.12 -241.914,248.625C-241.923,246.857 -241.935,245.089 -241.948,243.321C-241.972,239.573 -241.986,235.825 -241.99,232.078C-242.001,223.319 -242.072,214.56 -242.141,205.801C-242.157,203.873 -242.171,201.944 -242.185,200.016C-242.294,184.889 -242.63,169.798 -243.375,154.688C-243.419,153.766 -243.463,152.845 -243.509,151.896C-243.677,148.385 -243.848,144.874 -244.025,141.363C-245.24,117.2 -245.472,93.039 -245.497,68.849C-245.5,66.858 -245.504,64.866 -245.508,62.874C-245.53,48.631 -245.421,34.391 -245.055,20.152C-245.033,18.929 -245.011,17.706 -244.988,16.445C-244.936,14.744 -244.73,4.981 -243.45,3.554C-242.487,2.481 -239.422,1.543 -237.125,1.438C-236.247,1.392 -235.369,1.347 -234.465,1.301C-233.445,1.284 -232.426,1.267 -231.375,1.25C-229.521,1.209 -228.877,1.134 -227.629,1.168C-224.62,1.249 -218.088,1.509 -213.321,1.739C-208.487,1.972 -203.573,2.481 -198.629,2.566C-197.618,2.587 -196.607,2.608 -195.565,2.629C-192.356,2.694 -189.147,2.754 -185.938,2.813C-183.753,2.856 -181.569,2.899 -179.385,2.943C-174.048,3.05 -165.89,3.678 -161.555,5.563C-157.907,7.148 -155.351,10.798 -153.375,14.25C-151.13,18.171 -149.713,24.098 -148.082,29.091C-145.399,37.284 -140.829,47.332 -138.559,52.898C-137.245,56.118 -135.721,59.232 -134.458,62.491C-131.371,70.354 -128.024,78.105 -124.584,85.82C-114.134,109.269 -100.044,157.196 -96.375,157.25C-94.834,157.273 -87.81,143.144 -85.754,138.777C-84.265,135.615 -82.705,132.513 -81.375,129.25C-80.784,127.913 -80.189,126.579 -79.59,125.246C-73.046,110.556 -67.019,95.726 -61.84,80.5C-60.197,75.675 -57.712,70.588 -56.375,66.25C-55.192,62.411 -54.685,57.657 -53.816,54.473C-53.132,51.966 -51.988,49.608 -51.162,47.144C-50.213,44.316 -49.146,40.712 -48.125,37.5C-46.588,32.663 -44.203,24.526 -41.938,18.125C-41.674,17.344 -41.41,16.563 -41.138,15.759C-39.232,10.499 -37.387,4.17 -32.375,2.25C-25.519,-0.376 -10.567,-0.28 0,0Z" style="fill:#3e63ae;fill-rule:nonzero;"/>
                        </g>
                        <g transform="matrix(1,0,0,1,1210.64,215.741)">
                            <path d="M0,0L3.444,-0.019L7.168,-0.007L11.043,-0.013C13.76,-0.016 16.476,-0.011 19.193,-0.002C22.613,0.009 26.033,0.003 29.453,-0.009C43.87,-0.05 58.035,0.288 72.35,2.03C75.267,2.363 78.188,2.563 81.117,2.751C111.097,4.675 143.092,7.356 167.091,27.059C171.154,30.386 175.338,33.295 179.793,36.071C203.608,51.118 214.445,80.492 220.543,107.075C225.175,129.795 226.622,154.725 216.355,176.021C215.152,178.714 214.26,181.451 213.355,184.259C211.684,189.434 210.232,194.706 207.355,199.259C194.367,219.819 159.305,244.61 134.355,254.259C124.212,258.018 115.185,259.452 104.432,259.688C99.042,259.895 95.329,261.032 90.355,263.259C87.298,263.987 84.22,264.413 81.105,264.821L78.342,265.192C59.934,267.545 41.584,268.445 23.043,268.509L20.682,268.525C-13.521,268.704 -13.521,268.704 -23.27,259.884C-28.952,249.035 -27.834,236.21 -27.961,224.267C-27.982,222.596 -28.003,220.925 -28.024,219.255C-28.068,215.746 -28.109,212.238 -28.147,208.729C-28.195,204.351 -28.249,199.972 -28.305,195.594C-28.436,185.302 -28.542,175.011 -28.625,164.718C-28.638,163.104 -28.651,161.491 -28.666,159.877C-28.866,137.031 -28.342,114.284 -27.314,91.462C-26.985,84.107 -26.671,76.751 -26.359,69.396L-26.257,66.988C-25.839,57.147 -25.518,47.315 -25.398,37.466L-25.357,34.48C-25.3,30.141 -25.27,25.805 -25.287,21.465C-25.274,20.003 -25.261,18.541 -25.246,17.079L-25.256,13.4C-24.462,9.323 -22.816,7.85 -19.645,5.259C-17.109,4.185 -17.109,4.185 -14.582,3.571C-11.089,2.72 -11.089,2.72 -7.847,1.233C-5.097,0.016 -3.005,0.005 0,0ZM39.974,60.937C34.384,64.766 36.946,73.688 38.083,80.513C40.209,93.165 41.816,105.563 42.113,118.411C42.269,125.376 42.701,132.261 43.355,139.196C44.763,153.553 45.499,167.884 45.492,182.31C45.486,184.668 45.481,187.025 45.486,189.383C45.51,198.577 41.546,214.347 44.355,219.259C47.165,224.17 58.711,219.346 62.344,218.853L65.355,218.259C75.181,216.464 84.619,214.09 93.98,210.571C111.424,203.797 132.303,193.841 143.335,179.762C150.655,170.419 151.866,140.689 151.355,121.259C150.983,117.009 150.523,113.693 148.98,109.696L147.355,106.259C145.015,99.606 141.363,95.208 136.355,90.259C108.897,64.866 59.067,47.86 39.974,60.937Z" style="fill:#3e63ae;"/>
                        </g>
                        <g transform="matrix(1,0,0,1,536.336,210.832)">
                            <path d="M0,0C1.369,-0.003 2.738,-0.007 4.107,-0.01C6.966,-0.016 9.825,-0.018 12.684,-0.017C15.57,-0.017 18.455,-0.024 21.34,-0.038C37.887,-0.115 61.864,1.401 70.664,2.168C83.107,3.252 90.902,4.599 94.664,5.168C104.336,6.631 125.349,13.047 136.699,23.93C142.106,29.114 154.875,45.906 159.364,59.718C160.692,63.773 164.729,75.468 165.664,83.168C166.579,90.699 165.182,101.777 164.977,105.918C164.941,106.638 164.646,107.323 164.433,108.012C152.255,147.463 114.303,166.126 113.664,170.168C112.922,174.861 128.587,194.604 136.16,206.754C145.743,222.129 166.882,251.851 171.164,262.418C171.901,264.237 170.878,267.441 168.965,267.879C165.141,268.755 155.129,267.937 148.219,267.672C138.882,267.314 124.721,265.726 112.946,265.732C109.892,265.729 105.781,265.678 103.785,265.672C102.848,265.669 90.937,264.522 87.664,261.168C83.651,257.055 80.038,247.831 76.891,241.016C74.44,235.734 71.835,230.559 69.102,225.418C64.921,217.553 60.783,209.668 56.684,201.76C56.009,200.457 55.332,199.155 54.654,197.853C53.697,196.014 52.547,193.792 51.789,192.332C51.229,191.253 50.616,190.201 50.109,189.096C49.255,187.236 48.276,183.365 45.775,182.117C43.273,180.868 37.567,181.513 35.102,181.605C34.024,181.646 32.946,181.665 31.869,181.725C27.13,181.985 10.56,182.778 8.502,186.548C6.67,189.904 10.33,220.152 12.797,238.598C15.964,262.331 14.73,261.625 12.852,266.73C11.517,270.358 4.03,268.818 1.527,269.23C0.314,269.431 -0.932,269.218 -2.162,269.207C-4.054,269.19 -7.271,269.155 -9.826,269.129C-16.118,269.089 -23.251,269.995 -28.336,270.168C-32.334,270.304 -37.706,270.182 -40.336,270.168C-41.595,270.161 -42.855,270.124 -44.113,270.082C-45.374,270.04 -46.684,269.969 -47.898,269.918C-49.066,269.869 -50.274,270.083 -51.402,269.777C-52.752,269.411 -55.312,269.254 -55.997,267.723C-57.046,265.374 -57.415,258.17 -57.699,255.684C-57.808,254.73 -57.707,253.764 -57.703,252.804C-57.695,250.76 -57.676,246.547 -57.648,243.418C-57.638,241.226 -57.628,239.033 -57.619,236.841C-57.505,219.581 -56.758,202.395 -55.762,185.168C-55.372,178.235 -55.005,168.391 -54.828,164.363C-54.779,163.244 -54.743,162.124 -54.702,161.004C-54.602,158.254 -54.38,152.242 -54.228,147.861C-53.558,128.614 -53.558,128.614 -52.841,119.767C-51.639,104.895 -51.362,83.134 -51.063,75.227C-51.026,74.259 -51.049,73.29 -51.045,72.322C-51.027,67.364 -50.962,54.424 -50.955,45.474C-50.95,40.519 -50.926,35.565 -50.89,30.61C-50.88,28.741 -50.878,26.871 -50.883,25.002C-50.89,22.414 -50.851,18.919 -50.85,17.24C-50.849,16.469 -50.067,8.525 -48.457,6.711C-46.846,4.897 -42.909,4.561 -41.211,4.043C-40.261,3.753 -39.245,3.747 -38.266,3.602C-37.289,3.456 -36.306,3.351 -35.336,3.168C-34.014,2.919 -32.033,2.258 -30.336,2.105C-24.447,1.577 -10.205,0.009 0,0ZM52.44,56.928C49.762,56.935 38.318,57.547 32.449,58.449C27.274,59.245 18.685,57.596 17.23,62.339C14.463,71.356 11.669,115.864 15.23,118.339C19.111,121.038 31.754,119.514 35.674,119.48C47.258,119.382 78.434,112.686 88.684,107.832C95.009,104.836 99.959,97.174 100.227,90.293C100.494,83.411 96.941,71.965 90.289,66.543C83.451,60.97 71.428,56.765 59.201,56.855C56.947,56.887 54.694,56.918 52.44,56.928Z" style="fill:#3e63ae;"/>
                        </g>
                        <g transform="matrix(1,0,0,1,1019.31,213.867)">
                            <path d="M0,0C1.086,-0.001 2.172,-0.002 3.291,-0.003C5.59,-0.004 7.89,-0.002 10.189,0.002C13.621,0.008 17.053,0.003 20.484,-0.004C31.083,-0.007 41.644,0.123 52.23,0.652C61.948,1.13 71.638,1.17 81.363,1.09C82.817,1.079 84.27,1.069 85.723,1.059C91.676,1.014 97.629,0.965 103.581,0.886C107.285,0.838 110.989,0.809 114.693,0.792C116.089,0.782 117.485,0.765 118.881,0.74C120.81,0.707 122.741,0.622 124.669,0.695C128.283,0.831 130.592,0.367 132.537,2.955C134.431,5.474 134.127,8.779 134.199,12.328C134.217,13.029 134.236,13.731 134.254,14.453C134.309,16.721 134.343,18.989 134.375,21.258C134.405,22.808 134.436,24.358 134.468,25.908C134.527,28.946 134.577,31.983 134.62,35.021C134.671,38.441 134.766,41.858 134.883,45.277C134.923,46.875 134.962,48.473 135,50.07C135.03,50.771 135.06,51.472 135.091,52.194C135.113,54.098 135.789,57.132 132.538,58.912C128.248,61.26 119.394,60.48 117.426,60.461C116.061,60.458 114.697,60.457 113.332,60.456C109.652,60.451 105.972,60.427 102.292,60.399C99.238,60.378 96.184,60.367 93.131,60.357C63.979,60.259 11.073,53.799 5.688,59.133C0.462,64.308 1.559,95.767 6.688,105.133C8.448,108.349 22.335,105.981 24.688,106.133C27.437,106.31 31.015,106.229 34.184,106.199C35.11,106.194 36.036,106.189 36.99,106.185C38.991,106.174 40.992,106.161 42.992,106.147C46.162,106.125 49.332,106.111 52.502,106.099C61.511,106.066 70.52,106.024 79.528,105.961C85.048,105.924 90.567,105.901 96.086,105.887C98.185,105.879 100.284,105.865 102.383,105.846C105.319,105.82 108.255,105.812 111.191,105.808C112.053,105.796 112.914,105.783 113.802,105.771C119.171,105.788 124.99,106.24 127.688,109.133C130.385,112.026 129.995,118.196 129.988,123.129C129.993,123.881 129.997,124.632 130.001,125.407C130.007,126.99 130.008,128.572 130.003,130.155C130,132.56 130.024,134.964 130.049,137.369C130.051,138.914 130.052,140.459 130.051,142.004C130.06,142.715 130.069,143.425 130.079,144.157C130.032,149.268 130.772,155.315 126.688,157.133C120.213,160.015 102.206,161.316 91.23,161.449C89.756,161.47 88.282,161.491 86.808,161.512C83.724,161.556 80.641,161.597 77.557,161.635C73.711,161.684 69.865,161.738 66.019,161.793C45.573,162.088 14.909,153.743 4.688,162.133C-5.534,170.523 -2.398,207.151 4.688,212.133C8.908,215.101 11.832,214.886 21.938,214.695C34.437,214.46 75.15,212.48 89.685,211.856C96.175,211.577 102.617,210.947 109.151,210.948C111.249,210.945 113.347,210.851 115.443,210.908C132.431,211.368 133.219,212.557 135.583,214.396C137.618,215.978 137.201,218.97 137.359,221.922C137.455,223.665 137.455,223.665 137.553,225.442C137.773,231.466 137.911,237.48 137.938,243.508C137.968,245.335 137.968,245.335 138,247.199C138.028,253.605 136.424,260.932 134.688,264.133C133.502,266.318 131.151,266.389 127.583,266.405C126.502,266.414 125.421,266.424 124.308,266.434C122.521,266.435 122.521,266.435 120.698,266.436C119.448,266.444 118.197,266.453 116.909,266.461C114.185,266.478 111.462,266.492 108.739,266.499C104.431,266.51 100.124,266.536 95.817,266.563C89.002,266.605 82.187,266.637 75.372,266.666C63.175,266.717 50.978,266.779 38.782,266.851C34.501,266.876 30.221,266.895 25.941,266.91C23.917,266.918 21.894,266.928 19.87,266.939C17.405,266.952 1.253,267.987 -1.313,268.133C-8.236,268.527 -23.919,269.272 -35.228,269.364C-37.225,269.383 -39.222,269.415 -41.219,269.448C-42.455,269.452 -53.149,269.818 -56.313,266.133C-57.696,264.521 -57.203,263.242 -57.563,259.883C-57.756,258.235 -57.756,258.235 -57.953,256.555C-58.131,254.861 -58.131,254.861 -58.313,253.133C-58.567,251.505 -58.567,251.505 -58.827,249.844C-59.292,246.291 -59.442,242.916 -59.445,239.336C-59.447,238.046 -59.448,236.755 -59.449,235.426C-59.446,234.425 -59.446,234.425 -59.443,233.404C-59.438,231.429 -59.443,229.455 -59.449,227.48C-59.443,221.299 -59.343,215.157 -58.952,208.987C-58.007,194.005 -58.159,178.999 -58.184,163.995C-58.188,161.541 -58.189,159.088 -58.19,156.635C-58.202,135.025 -58.39,113.427 -58.813,91.82C-58.962,83.769 -59.107,75.717 -59.249,67.665C-59.292,65.249 -59.338,62.833 -59.384,60.417C-59.527,52.94 -59.64,45.464 -59.709,37.986C-59.736,35.653 -59.774,33.319 -59.822,30.986C-59.888,27.78 -59.915,24.577 -59.934,21.371C-59.961,20.432 -59.989,19.494 -60.018,18.526C-60,12.753 -58.941,7.883 -54.951,5.441C-50.334,2.615 -39.514,1.738 -32.313,1.57C-30.042,1.51 -27.771,1.446 -25.5,1.379C-24.504,1.355 -17.923,0.759 -15.633,0.626C-11.886,0.408 -5.242,-0.01 0,0Z" style="fill:#3e63ae;fill-rule:nonzero;"/>
                        </g>
                        <g transform="matrix(1,0,0,1,902.231,216.883)">
                            <path d="M0,0C1.105,-0.014 4.746,-0.357 9.379,-0.156C13.183,0.008 22.717,2.096 25.682,4.76C28.451,7.248 27.197,11.938 27.168,15.828C27.172,17.096 27.172,17.096 27.177,18.391C27.179,20.177 27.173,21.964 27.161,23.751C27.145,26.475 27.16,29.198 27.18,31.921C27.178,33.661 27.174,35.401 27.168,37.14C27.174,37.95 27.18,38.759 27.186,39.593C27.115,45.359 24.663,51.163 22.085,53.926C19.673,56.511 15.404,55.874 11.719,56.171C10.895,56.248 10.071,56.324 9.223,56.403C6.406,56.657 3.588,56.889 0.769,57.117C-0.26,57.202 -1.289,57.288 -2.349,57.377C-9.182,57.943 -16.018,58.47 -22.856,58.977C-26.424,59.242 -29.99,59.517 -33.557,59.792C-49.977,61.034 -65.921,61.627 -82.356,60.179C-83.425,60.092 -84.495,60.005 -85.598,59.915C-90.518,59.502 -98.579,58.26 -100.578,62.749C-102.611,67.314 -99.176,77.589 -97.793,87.304C-97.671,88.176 -97.549,89.047 -97.423,89.946C-96.699,94.814 -96.399,101.567 -94.231,104.117C-92.096,106.626 -87.879,105.243 -84.411,105.246C-82.654,105.251 -82.654,105.251 -80.86,105.256C-79.597,105.254 -78.333,105.252 -77.031,105.249C-75.727,105.25 -74.422,105.251 -73.077,105.252C-70.314,105.254 -67.551,105.252 -64.788,105.247C-61.269,105.241 -57.751,105.245 -54.232,105.251C-50.852,105.255 -47.473,105.252 -44.094,105.249C-42.214,105.253 -42.214,105.253 -40.296,105.256C-34.563,105.24 -27.944,104.572 -23.295,104.348C-19.664,104.173 -16.043,103.934 -12.398,103.914C-11.599,103.908 -10.8,103.902 -9.977,103.896C-8.306,103.887 -6.635,103.88 -4.963,103.876C-2.407,103.867 0.149,103.835 2.705,103.804C4.337,103.798 5.969,103.792 7.602,103.789C8.362,103.776 9.122,103.764 9.906,103.751C13.037,103.764 16.462,103.971 18.233,105.336C20.003,106.701 20.352,108.958 20.527,111.941C20.596,112.888 20.664,113.835 20.734,114.81C20.814,116.292 20.814,116.292 20.894,117.804C21.321,125.666 22.259,128.958 22.801,133.374C23.248,137.018 24.123,140.42 24.144,144.304C24.173,149.55 22.365,154.364 19.769,156.117C16.933,158.031 11.63,158.827 7.211,159.335C6.363,159.438 5.515,159.541 4.642,159.647C1.873,159.98 -0.897,160.299 -3.668,160.617C-5.091,160.782 -5.091,160.782 -6.542,160.951C-38.434,164.642 -87.116,156.756 -102.231,164.117C-114.609,170.145 -103.455,197.935 -97.231,205.117C-91.006,212.298 -75.365,207.317 -64.885,207.206C-61.463,207.171 -58.041,207.15 -54.619,207.134C-44.898,207.085 -35.178,207.014 -25.458,206.925C-19.492,206.871 -13.526,206.837 -7.559,206.815C-5.292,206.803 -3.025,206.783 -0.759,206.755C2.405,206.716 5.568,206.703 8.732,206.694C9.664,206.677 10.596,206.659 11.556,206.641C17.253,206.658 20.772,207.416 22.872,209.338C24.939,211.229 25.609,213.347 25.769,216.117C25.874,217.392 25.978,218.666 26.086,219.98C26.364,224.69 26.583,229.402 26.769,234.117C26.8,234.861 26.83,235.606 26.861,236.373C27.434,252.582 27.725,255.989 23.769,259.117C18.219,263.505 3.109,262.738 1.232,262.617C-2.025,262.406 -8.002,261.974 -12.703,261.984C-13.704,261.983 -14.705,261.982 -15.736,261.981C-17.844,261.98 -19.953,261.982 -22.062,261.986C-25.285,261.992 -28.509,261.986 -31.732,261.98C-33.785,261.981 -48.983,262.495 -50.526,262.619C-53.071,262.823 -57.587,263.24 -61.195,263.214C-61.983,263.213 -62.771,263.211 -63.582,263.21C-65.289,263.206 -66.996,263.2 -68.703,263.192C-71.416,263.179 -74.13,263.173 -76.843,263.168C-83.591,263.154 -90.338,263.13 -97.085,263.106C-102.779,263.086 -108.472,263.071 -114.166,263.061C-116.817,263.054 -119.467,263.042 -122.118,263.029C-140.351,262.939 -149.127,268.145 -158.418,260.47C-166.193,254.047 -164.251,249.813 -164.227,241.652C-164.194,230.788 -162.969,214.509 -163.033,200.932C-163.043,198.588 -163.049,196.244 -163.054,193.9C-163.131,157.636 -160.965,153.423 -160.409,125.039C-160.255,117.203 -164.576,65.578 -164.731,57.742C-164.748,56.804 -164.766,55.866 -164.785,54.899C-164.987,44.52 -165.843,32.095 -165.917,23.798C-165.973,17.567 -167.509,8.92 -165.231,5.117C-162.952,1.313 -150.139,0.965 -149.052,0.958C-147.833,0.949 -146.614,0.939 -145.358,0.929C-144.02,0.923 -142.682,0.917 -141.344,0.911C-139.924,0.902 -138.504,0.892 -137.084,0.881C-133.232,0.854 -129.379,0.833 -125.527,0.813C-121.47,0.791 -117.414,0.764 -113.357,0.737C-106.526,0.693 -99.695,0.652 -92.864,0.614C-83.314,0.56 -73.764,0.501 -64.214,0.44C-56.722,0.392 -49.23,0.346 -41.738,0.3C-40.557,0.293 -40.557,0.293 -39.352,0.286C-37.021,0.271 -34.691,0.257 -32.361,0.243C-31.61,0.239 -30.86,0.234 -30.086,0.23C-26.451,0.208 -22.816,0.189 -19.181,0.176C-12.786,0.152 -6.394,0.11 0,0Z" style="fill:#3e63ae;fill-rule:nonzero;"/>
                        </g>
                        <g transform="matrix(1,0,0,1,366.949,206.762)">
                            <path d="M0,0C1.092,-0.004 2.184,-0.008 3.309,-0.012C9.077,-0.033 14.845,-0.047 20.614,-0.057C26.552,-0.068 32.489,-0.102 38.427,-0.142C43.016,-0.168 47.605,-0.177 52.194,-0.18C54.383,-0.185 56.572,-0.197 58.761,-0.215C61.824,-0.24 64.885,-0.239 67.948,-0.232C68.841,-0.244 69.734,-0.257 70.655,-0.271C76.777,-0.22 83.776,0.664 87.051,4.238C90.325,7.813 90.431,15.058 90.301,21.176C90.296,22.139 90.29,23.103 90.285,24.096C90.229,29.245 89.286,35.931 89.051,39.238C88.94,40.802 88.917,42.371 88.875,43.938C88.851,44.754 88.827,45.571 88.803,46.412C88.759,48.099 89.018,49.815 88.709,51.475C88.264,53.866 88.061,58.777 86.133,60.758C84.205,62.738 81.093,63.363 77.141,63.359C76.103,63.36 75.065,63.361 73.996,63.363C72.282,63.357 72.282,63.357 70.533,63.352C68.733,63.352 68.733,63.352 66.896,63.352C63.601,63.352 60.306,63.347 57.011,63.34C53.569,63.333 50.127,63.333 46.685,63.332C40.165,63.329 33.645,63.32 27.125,63.31C19.703,63.299 12.281,63.294 4.859,63.289C-10.41,63.278 -38.068,61.78 -40.104,63.238C-41.591,64.303 -40.663,65.521 -40.516,66.697C-39.376,76.126 -38.671,85.351 -38.824,94.863C-38.833,95.974 -38.842,97.086 -38.852,98.23C-38.875,100.9 -39.967,105.337 -38.949,106.238C-37.853,107.21 28.335,108.129 46.719,108.718C54.935,108.981 65.134,109.018 71.356,109.771C75.711,110.299 81.921,109.404 84.051,113.238C87.071,118.675 89.451,132.921 89.476,142.39C89.488,144.565 89.538,146.738 89.588,148.912C89.597,150.309 89.605,151.705 89.609,153.102C89.63,154.978 88.838,161.604 87.203,163.122C82.632,167.367 69.912,166.382 61.796,166.352C60.731,166.352 59.667,166.352 58.57,166.352C55.091,166.352 51.612,166.344 48.133,166.336C45.705,166.334 43.277,166.333 40.849,166.332C34.488,166.328 28.128,166.318 21.767,166.307C15.265,166.297 8.762,166.292 2.26,166.287C-10.477,166.276 -34.345,165.575 -35.366,166.366C-36.28,167.073 -35.942,167.948 -35.935,169.692C-35.919,174.021 -35.909,178.351 -35.901,182.681C-35.897,184.536 -35.891,186.391 -35.883,188.245C-35.797,209.507 -36.474,230.809 -38.832,251.953C-38.973,253.232 -39.109,254.381 -39.258,255.828C-39.52,258.366 -42.108,263.915 -44.949,265.988C-47.79,268.061 -51.898,268.335 -56.305,268.266C-57.567,268.253 -58.83,268.241 -60.131,268.229C-62.782,268.196 -65.433,268.155 -68.084,268.111C-74.8,268.053 -82.93,269.842 -86.949,270.238C-88.693,270.41 -89.777,270.504 -92.199,270.488C-93.009,270.493 -93.86,270.708 -94.652,270.504C-96.111,270.129 -99.623,270.032 -100.949,268.238C-103.483,264.813 -105.493,256.507 -105.375,248.883C-105.372,247.704 -105.368,246.524 -105.365,245.309C-105.355,242.826 -105.335,240.342 -105.306,237.859C-105.262,234.053 -105.244,230.249 -105.232,226.443C-105.219,224.027 -105.204,221.611 -105.188,219.195C-105.176,217.487 -105.176,217.487 -105.165,215.745C-105.152,214.687 -105.139,213.629 -105.126,212.538C-105.116,211.609 -105.107,210.68 -105.096,209.722C-104.959,207.411 -104.167,205.007 -103.949,203.238C-103.781,201.872 -103.801,200.488 -103.788,199.111C-103.779,198.296 -103.769,197.481 -103.759,196.642C-103.755,195.756 -103.751,194.87 -103.746,193.957C-103.739,193.018 -103.733,192.079 -103.726,191.111C-103.708,187.987 -103.702,184.863 -103.699,181.738C-103.697,180.651 -103.695,179.564 -103.692,178.444C-103.679,161.923 -104.899,145.517 -105.449,129.051C-106.044,111.257 -107.263,90.851 -107.261,71.681C-107.262,69.719 -107.267,67.758 -107.271,65.797C-107.292,52.31 -107.034,38.86 -106.18,25.398C-106.119,24.291 -106.059,23.184 -105.996,22.043C-105.553,15.963 -105.152,8.472 -100.949,5.238C-96.747,2.005 -87.488,2.808 -80.781,2.641C-79.51,2.601 -78.239,2.562 -76.929,2.522C-73.559,2.419 -70.188,2.324 -66.818,2.232C-62.094,2.103 -57.371,1.962 -52.648,1.819C-50.14,1.744 -47.633,1.672 -45.125,1.605C-39.899,1.454 -34.726,0.909 -29.519,0.724C-21.998,0.457 -9.838,0.031 0,0Z" style="fill:#3e63ae;fill-rule:nonzero;"/>
                        </g>
                    </g>
                </g>
                <g transform="matrix(0.611211,0,0,0.611211,592.407,118.683)">
                    <path d="M0,0L3.012,2.355C8.647,6.822 13.543,11.361 18,17L20.145,19.605C26.412,27.517 30.783,35.874 35,45L36.609,48.465C37.757,50.969 38.174,54.994 40,56C41.826,57.006 44.732,55.457 47.563,54.5C62.316,50.41 76.386,52.702 89.688,59.938C107.588,70.888 142.244,102.798 147.75,108.75C154.525,116.073 175.167,142 179,151C181.236,156.249 180.785,163.73 177,168C170.5,175.333 144.075,183.533 137.086,183.602C134.517,183.627 128.82,184.106 124.625,184.063L122.105,184.049C120.663,184.041 119.22,184.029 117.777,184.016C117.583,184.014 117.413,184.146 117.367,184.334C117.321,184.523 117.411,184.718 117.584,184.805C132.853,192.465 147.59,197.128 164.563,199.875L166.976,200.277C175.982,201.587 183.63,200.553 191.938,196.938C199.114,194.071 207.797,192.114 213.352,194.928C219.474,198.029 225.011,201.601 230.563,205.625C232.334,206.884 234.108,208.14 235.883,209.395L238.521,211.26C252.496,221.066 267.289,229.554 282.047,238.108C285.473,240.097 288.867,242.131 292.246,244.199C297.869,247.591 303.748,250.397 309.676,253.211C321.211,258.826 334.229,266.419 337,279C337.987,283.478 339.013,289.654 338.305,292.695C337.762,295.027 335.664,296.081 332.75,297.25L330.484,298.203C314.627,303.289 290.114,301.822 274.561,294.745C274.351,294.644 274.099,294.694 273.944,294.868C273.788,295.042 273.767,295.298 273.891,295.496C278.518,302.773 285.255,306.706 293.016,310.597C307.516,317.872 314.217,326.469 321,341C324.154,351.252 323.749,367.062 319.246,376.738L318,379L316.785,381.48C306.749,400.245 284.298,416.335 264.113,422.652C246.67,427.556 228.257,430 210.164,430.316L206.998,430.38C203.541,430.446 200.083,430.505 196.625,430.563L192.998,430.625C172.265,430.971 151.533,431.135 130.798,431.181C128.582,431.187 126.367,431.197 124.152,431.208C77.787,431.423 31.282,418.881 -3.625,386.57C-17.757,372.009 -19.67,355.132 -19.395,335.699C-18.942,323.137 -16.758,310.729 -14.91,298.314C-12.736,283.565 -11.826,268.812 -11.651,253.912C-11.626,251.951 -11.586,249.991 -11.546,248.03C-11.53,239.088 -13.152,231.453 -16,223L-17.021,219.827C-22.084,204.555 -31.173,188.82 -42.128,176.934C-42.229,176.826 -42.39,176.801 -42.519,176.872C-42.648,176.944 -42.712,177.093 -42.675,177.236C-42.492,177.929 -42.301,178.656 -42.301,178.656C-40.096,187.23 -38.128,195.835 -36.313,204.5L-35.663,207.572C-30.945,230.366 -31.177,253.73 -38,276C-38.637,278.193 -39.271,280.387 -39.902,282.582C-42.44,291.329 -45.08,300.043 -47.777,308.742L-48.6,311.42C-49.092,313.018 -49.59,314.614 -50.097,316.207C-53.37,326.834 -54.295,337.167 -54.125,348.25L-54.098,351.699C-54.074,354.466 -52.857,358.642 -54,360C-55.143,361.358 -57.488,362.171 -60.957,359.848C-61.67,359.37 -62.813,358.063 -62.813,358.063L-64.891,356.102L-67,354L-69.047,351.961C-70.396,350.606 -71.74,349.245 -73.078,347.879C-74.758,346.237 -76.463,344.815 -78.313,343.375C-88.589,334.686 -95.73,322.172 -102.568,310.722C-102.621,310.633 -102.727,310.59 -102.826,310.618C-102.926,310.646 -102.994,310.737 -102.993,310.841C-102.61,334.761 -89.612,356.8 -75,375L-73.555,376.824C-45.416,412.044 -0.916,427.604 41.564,437.873C50.967,440.16 60.199,442.811 69.438,445.688C81.559,449.439 93.657,452.129 106.119,454.453C121.215,457.32 135.142,461.292 149,468L151.136,469.031C173.929,480.301 193.841,500.916 209,521L211.102,523.516C230.936,548.046 240.687,581.03 249.563,610.75L250.613,614.133C252.932,622.13 254.196,632.772 253,638C252.713,639.256 250.724,639.573 249.438,639.5C243.852,639.182 236.272,630.103 231.484,624.094C227.252,618.823 222.823,613.722 218.393,608.618C217.167,607.194 215.963,605.753 214.762,604.309C201.206,588.405 182.843,578.34 165,568L162.377,566.477C120.769,542.606 65.157,533.88 17.89,532.334C-11.737,531.343 -38.844,523.972 -65,510L-67.931,508.462C-89.479,497.048 -110.422,484.054 -126,465L-127.447,463.265C-145.273,441.738 -155.888,417.145 -163.75,390.563L-164.856,386.852C-169.887,369.276 -172.558,351.416 -174.438,333.257C-174.754,330.209 -175.085,327.163 -175.418,324.117C-175.628,322.146 -175.838,320.175 -176.047,318.203L-176.34,315.494C-176.906,309.965 -176.557,301.749 -177,299C-177.106,298.342 -178.571,298.489 -179,299C-179.553,299.658 -180.316,302.949 -180.316,302.949L-181.149,305.451C-181.678,307.035 -182.21,308.619 -182.746,310.202C-183.488,312.401 -184.214,314.606 -184.938,316.813L-185.662,318.928C-191.024,335.437 -192.997,352.982 -195.238,370.121C-195.691,373.59 -196.154,377.058 -196.619,380.525C-196.917,382.768 -197.215,385.011 -197.512,387.254L-197.922,390.339C-205.49,448.407 -191.921,510.119 -156,557C-148.525,566.648 -140.69,574.845 -131.045,582.21C-130.912,582.311 -130.729,582.311 -130.596,582.211C-130.462,582.11 -130.412,581.934 -130.473,581.778C-132.75,575.944 -135.253,570.262 -137.958,564.604C-172.967,491.126 -172.967,491.126 -166.344,466.566C-166.344,466.566 -164.962,460.333 -163,460C-161.038,459.667 -157.622,461.343 -154.57,464.566C-151.779,468.135 -149.439,471.962 -147.063,475.813C-141.55,484.537 -135.233,492.41 -128.514,500.228C-127.262,501.693 -126.039,503.183 -124.824,504.68C-116.645,514.523 -105.521,521.873 -95,529C-93.882,529.788 -92.765,530.577 -91.648,531.367C-72.909,544.457 -52.878,551.106 -30.625,555.75L-27.807,556.352C-9.056,560.045 10.275,560.423 29.323,560.954C47.317,561.474 65.538,563.102 82.438,569.75L85.175,570.789C97.582,575.624 108.438,581.86 119,590C119,590 120.672,591.203 121.453,591.766C122.198,592.302 122.987,592.782 123.688,593.375C125.077,594.55 129.07,597.969 129.792,598.816C134.626,604.482 149.443,618.79 156,630L157.112,631.875C166.452,647.815 175.807,671.146 173.124,690.179C173.085,690.453 172.292,694.292 171,695C169.708,695.708 166.824,696.347 165.25,695.25C162.946,693.645 159.653,689.508 157.176,685.367C150.573,674.756 141.57,665.038 133,656L131.548,654.466C102.711,624.2 66.948,615.628 26.063,614.438L23.985,614.374C3.445,613.48 -15.52,612.534 -17,615C-21.281,622.137 14.19,698.417 37.421,722.37C38.524,723.509 39.621,724.655 40.712,725.806C53.584,739.375 67.638,749.359 83.492,759.176C90.315,763.419 99.915,769.863 103,773C104.192,774.212 103.293,776.897 102,778C93.25,785.461 64.54,778.525 50.5,775.766C32.629,772.164 15.079,767.394 -2.438,762.375L-6.26,761.284C-17.397,758.031 -28.318,754.371 -38.438,748.625L-40.681,747.363C-58.99,736.829 -76.362,724.234 -91.895,709.918C-93.542,708.418 -95.209,707.009 -96.948,705.627C-97.028,705.564 -97.108,705.501 -97.188,705.438C-100.183,702.841 -102.649,700.05 -105.215,697.039C-106.908,695.105 -108.665,693.298 -110.5,691.5C-117.209,684.866 -122.842,677.642 -128.302,669.982C-128.403,669.84 -128.583,669.779 -128.75,669.829C-128.917,669.88 -129.033,670.031 -129.038,670.205C-129.952,702.292 -123.189,734.025 -111,763.625L-109.779,766.604C-100.338,788.9 -83.883,806.6 -66.711,823.215C-64.794,825.215 -63.952,827.369 -64,829C-64.048,830.631 -65.39,832.569 -67,833C-75.505,835.276 -93.246,825.117 -103.033,818.659C-112.863,812.022 -122.204,804.821 -131.381,797.315C-133.626,795.492 -135.909,793.719 -138.188,791.938C-174.451,762.927 -200.551,722.407 -216.25,679L-217.463,675.66C-223.007,659.897 -226.827,644.019 -228.813,627.438L-229.133,624.851C-232.256,598.909 -231.472,572.648 -231.01,546.571C-231.009,546.512 -231.049,546.46 -231.106,546.447C-231.163,546.433 -231.222,546.461 -231.248,546.514C-232.856,549.852 -236.515,557.477 -236.515,557.477C-253.12,592.277 -256.185,632.196 -251,670C-250.695,672.267 -250.392,674.534 -250.095,676.802C-249.831,678.795 -249.551,680.786 -249.27,682.777C-249.034,685.591 -249.045,688.63 -250,690C-250.955,691.37 -253.731,692.131 -255,691C-265.781,681.395 -281.877,643.012 -290.686,620.37C-291.832,617.431 -292.998,614.502 -294.172,611.574C-312.745,564.413 -308.966,503.896 -305.313,454.5L-305.069,451.101C-303.616,431.355 -301.581,411.389 -294.938,392.625L-293.771,389.237C-286.817,369.514 -277.604,350.682 -268.426,331.919C-267.076,329.156 -265.74,326.387 -264.406,323.617C-256.027,306.363 -246.044,290.656 -234.653,275.246C-232.469,272.279 -230.319,269.289 -228.169,266.297C-219.893,254.783 -192.379,226.979 -203,232C-213.472,236.95 -264.001,273.834 -285,308L-286.289,310.079C-292.057,319.48 -296.504,329.412 -300.947,339.49C-318.243,378.693 -339.539,415.231 -366,449C-366.949,450.224 -367.899,451.448 -368.848,452.672C-371.541,456.134 -374.264,459.571 -377,463L-379.301,465.895C-388.09,476.807 -397.706,486.808 -407.563,496.75L-410.271,499.498L-412.816,502.047L-415.112,504.354C-417,506 -419,508 -419,508C-420.508,509.375 -422.085,510.674 -423.688,511.938C-427.383,514.888 -431.031,517.863 -434.61,520.953C-445.317,530.178 -456.733,538.446 -468.25,546.625L-470.417,548.168L-472.453,549.602L-474.239,550.862C-478.957,553.912 -485.227,555.484 -487,553C-488.64,550.702 -488.226,548.587 -487.226,545.988C-485.916,543.863 -484.802,542.852 -482.762,541.441L-480.796,540.043L-478.688,538.563C-456.325,522.274 -439.585,499.203 -428.029,474.214C-427.325,472.7 -426.609,471.191 -425.881,469.688C-417.294,451.888 -411.849,433.187 -406.27,414.286C-405.255,410.848 -404.215,407.419 -403.152,403.996C-401.711,399.347 -400.34,394.68 -399,390L-398.114,386.961C-393.499,370.968 -388.986,341.362 -390,339C-390.615,337.568 -392.551,340.159 -393.387,341.191C-397.471,346.24 -406.721,360.552 -414.503,369.29C-415.567,370.506 -416.611,371.739 -417.641,372.983L-419.254,374.93C-419.254,374.93 -420.182,376.151 -420.705,376.71C-421.496,377.556 -424,380 -424,380C-426.462,382.547 -429.28,384.734 -432,387L-434.488,389.109C-439.946,393.669 -445.577,397.905 -451.392,401.992C-456.127,405.335 -460.727,408.83 -465.313,412.375C-498.728,438.072 -497.552,436.396 -508,437C-509.2,437.069 -510.2,435.921 -510,434C-509.761,431.71 -508.119,427.324 -505.063,423.5C-504.238,422.441 -503.415,421.381 -502.594,420.32L-501.297,418.665C-486.132,399.195 -476.075,377.241 -465.875,354.913C-465.058,353.127 -464.237,351.344 -463.415,349.561C-445.351,310.258 -436.239,269.805 -427.934,227.601C-425.495,215.211 -422.623,203.103 -419,191L-418.222,188.369C-410.649,163.332 -398.258,139.621 -385.961,116.613C-383.066,111.17 -380.508,105.683 -378.125,100C-373.307,88.652 -366.619,78.365 -360,68L-358.536,65.695C-349.389,51.371 -338.7,39.391 -326.661,27.456C-324.433,25.246 -322.213,23.028 -319.994,20.809C-318.558,19.377 -317.121,17.946 -315.684,16.516L-313.707,14.542C-290.22,-8.707 -259.359,-24.216 -228,-34L-225.78,-34.714C-154.612,-57.201 -59.027,-47.741 0,0ZM-198,-1C-198.925,-0.82 -200,1 -200,1C-216.064,29.939 -222.954,63.629 -213.875,96.125C-212.473,101.001 -212.005,107.105 -213,110C-213.833,112.423 -216.902,112.678 -219.847,113.495C-257.227,123.645 -288.48,137.242 -312.871,168.191L-315,171C-322.647,181.064 -329.225,191.661 -335.588,202.575L-337,205C-348.134,223.901 -359.667,261.667 -358,267C-357.901,267.318 -357.155,267.295 -357,267C-354.804,262.804 -349.119,250.117 -344.822,241.824L-343.875,240C-337.948,228.555 -331.815,217.253 -325.267,206.148C-324.469,204.796 -323.676,203.441 -322.89,202.083C-319.52,196.262 -315.899,190.716 -311.823,185.369L-310.375,183.5C-308.186,180.657 -306.051,177.909 -303.329,175.555C-301.873,174.386 -297,170 -294.738,167.77C-294.738,167.77 -292.957,165.877 -292,165C-265.772,140.956 -231.084,137.631 -197.369,137.503L-194.875,137.5C-186.241,137.452 -178.069,137.535 -169.633,139.594C-165.967,140.642 -159.646,141.944 -160,140C-160.354,138.056 -168.115,132.225 -171.754,127.93C-188.941,104.045 -189.763,73.074 -186.099,45.054L-185.75,42.563C-184.955,36.218 -181.153,30.514 -179,28C-177.658,26.433 -175.444,27.197 -172.832,27.48C-138.643,33.752 -107.392,53.622 -85.453,80.07C-85.453,80.07 -84.262,82.503 -84,82C-83.738,81.497 -83.876,78.704 -83.883,77.055C-84.681,63.057 -93.769,49.487 -103.637,40.184L-106,38C-115.459,28.509 -125.723,22.555 -138.438,18.438C-142.917,17.052 -147.171,15.544 -151.426,13.567C-158.109,10.451 -164.865,7.968 -171.903,5.755L-175.375,4.688C-182.609,2.455 -190.896,-2.385 -198,-1ZM289,440.25C290.82,440.421 292.777,442.186 293,444C293.406,447.302 292.724,454.476 291.438,460.063C290.202,465.737 289.938,470.488 290.5,476.25C291.293,484.627 289.503,493.797 286.125,498.5C283.878,501.628 279.867,503.198 276.23,504.469C265.636,508.172 243.889,496.74 228.558,490.721C222.64,488.399 216.708,486.144 210.716,484.018C187.803,475.887 184.198,473.917 184,469C183.823,464.587 192.524,460.364 197.652,457.539C208.791,452.141 220.259,450.623 232.515,450.091C249.061,449.353 267.919,438.265 289,440.25Z" style="fill:#3e63ae;"/>
                </g>
            </g>
        </g>
    </g>
</svg>
