<?xml version="1.0" encoding="UTF-8" standalone="no"?>
<!DOCTYPE svg PUBLIC "-//W3C//DTD SVG 1.1//EN" "http://www.w3.org/Graphics/SVG/1.1/DTD/svg11.dtd">
<svg width="100%" height="100%" viewBox="0 0 1714 1714" version="1.1" xmlns="http://www.w3.org/2000/svg" xmlns:xlink="http://www.w3.org/1999/xlink" xml:space="preserve" xmlns:serif="http://www.serif.com/" style="fill-rule:evenodd;clip-rule:evenodd;stroke-linecap:round;stroke-linejoin:round;stroke-miterlimit:1.5;">
    <g transform="matrix(1,0,0,1,-137.316,-3234)">
        <g id="Ramblers" transform="matrix(1,0,0,1,-4225.68,545)">
            <rect x="4363" y="2689" width="1714" height="1714" style="fill:none;"/>
            <g transform="matrix(1,0,0,1,-5955,1749.88)">
                <g transform="matrix(1,0,0,1,10180.7,-2294.88)">
                    <circle cx="994.316" cy="4085.15" r="380.301" style="fill:rgb(62,99,174);"/>
                </g>
                <g transform="matrix(1.07048,0,0,2.13247,-8739.17,-14399.5)">
                    <path d="M18604,7606C18756.5,7606 18888.8,7630.63 18953.2,7666.51C18979.9,7681.39 18810,7757.68 18594.2,7757.68C18378.4,7757.68 18227.4,7682.18 18252.9,7667.57C18316.6,7631.11 18450,7606 18604,7606Z" style="fill:none;stroke:black;stroke-width:18.52px;"/>
                    <path d="M18604,7606C18756.5,7606 18888.8,7630.63 18953.2,7666.51C18979.9,7681.39 18810,7757.68 18594.2,7757.68C18378.4,7757.68 18227.4,7682.18 18252.9,7667.57C18316.6,7631.11 18450,7606 18604,7606Z" style="fill:rgb(30,99,60);"/>
                </g>
                <g transform="matrix(1.32486,0,0,1.33051,-15601.7,-7737.5)">
                    <path d="M20211,6807C20406.4,6807 20565,6965.62 20565,7161C20565,7356.38 20406.4,7515 20211,7515C20015.6,7515 19857,7356.38 19857,7161C19857,6965.62 20015.6,6807 20211,6807ZM20211,6895.5C20357.5,6895.5 20476.5,7014.47 20476.5,7161C20476.5,7307.53 20357.5,7426.5 20211,7426.5C20064.5,7426.5 19945.5,7307.53 19945.5,7161C19945.5,7014.47 20064.5,6895.5 20211,6895.5Z" style="fill:rgb(255,209,80);stroke:black;stroke-width:18.83px;"/>
                </g>
                <g transform="matrix(1.12723,0,0,1.13204,-11605.2,-6295.76)">
                    <path d="M19963.2,6908.19L19949.5,6893.9L19966.5,6877.81L19958.6,6869.65L19941.7,6885.74L19936.3,6880.09L19953.6,6863.64L19945.8,6855.48L19919.1,6880.86L19953.8,6917.12L19963.2,6908.19Z" style="fill-rule:nonzero;"/>
                    <path d="M20020.4,6861.91L20001.3,6853.07C20004.1,6848.94 20005.6,6842.08 20000.5,6835.03C19994.9,6827.51 19985.5,6825.28 19976.4,6831.85L19956.1,6846.65L19985.8,6887.14L19996.2,6879.51L19986.3,6865.91L19991.6,6862.01L20008.4,6870.64L20020.4,6861.91ZM19987.9,6850.78L19979.6,6856.81L19973.2,6848.13L19981.5,6842.1C19984.3,6840.06 19987.7,6839.94 19989.7,6842.73C19991.8,6845.59 19990.7,6848.74 19987.9,6850.78Z" style="fill-rule:nonzero;"/>
                    <path d="M20058.9,6840.78L20053.5,6830.87L20032.5,6842.26L20028.4,6834.81L20048.9,6823.66L20043.5,6813.76L20023,6824.9L20019.2,6818.04L20040.2,6806.65L20034.8,6796.74L20002.4,6814.32L20026.5,6858.35L20058.9,6840.78Z" style="fill-rule:nonzero;"/>
                    <path d="M20100.2,6824.2L20096.1,6813.7L20073.8,6822.36L20070.7,6814.45L20092.5,6805.98L20088.4,6795.48L20066.6,6803.94L20063.7,6796.66L20086,6788L20081.9,6777.5L20047.5,6790.86L20065.8,6837.56L20100.2,6824.2Z" style="fill-rule:nonzero;"/>
                    <path d="M20127.9,6816.81C20143.3,6813.24 20152.2,6801.37 20148.7,6786.22C20145.1,6771.07 20131.9,6764.42 20116.4,6768L20095.8,6772.77L20107.3,6821.6L20127.9,6816.81ZM20125.3,6805.84L20117.3,6807.69L20111.1,6780.82L20119.1,6778.96C20128,6776.88 20134,6781.68 20135.7,6789.22C20137.4,6796.47 20133.9,6803.85 20125.3,6805.84Z" style="fill-rule:nonzero;"/>
                    <path d="M20185.3,6808.83C20200.6,6807.72 20211.3,6796.25 20210.2,6781.03C20209.1,6765.81 20196.9,6755.99 20181.5,6757.1C20166.2,6758.21 20155.4,6769.69 20156.5,6784.9C20157.6,6800.12 20169.9,6809.94 20185.3,6808.83ZM20184.5,6797.43C20176.2,6798.03 20170.3,6792.05 20169.7,6783.95C20169.1,6775.78 20174.1,6769.09 20182.4,6768.5C20190.6,6767.9 20196.4,6773.81 20197,6781.98C20197.6,6790.08 20192.7,6796.83 20184.5,6797.43Z" style="fill-rule:nonzero;"/>
                    <path d="M20275.6,6811.72L20280.7,6761.85L20262.8,6760.02L20249.5,6786.48L20241.8,6757.89L20223.9,6756.07L20218.8,6805.94L20231.7,6807.25L20235,6774.28L20244.4,6808.54L20250.1,6809.12L20266.1,6777.43L20262.7,6810.41L20275.6,6811.72Z" style="fill-rule:nonzero;"/>
                    <path d="M20346.4,6833.07L20335.6,6801.19L20361.7,6785.28L20346.5,6780.14L20325.2,6794.65L20331.9,6775.16L20319.6,6770.98L20303.3,6818.42L20315.6,6822.6L20320.4,6808.73L20325,6805.84L20331.3,6827.94L20346.4,6833.07Z" style="fill-rule:nonzero;"/>
                    <path d="M20361.6,6840.51L20382.2,6794.8L20370.4,6789.49L20349.7,6835.19L20361.6,6840.51Z" style="fill-rule:nonzero;"/>
                    <path d="M20388.4,6854.63C20402,6862.66 20416.6,6860.26 20424.6,6846.88C20432.6,6833.51 20427.7,6819.57 20414.1,6811.51L20395.9,6800.75L20370.2,6843.84L20388.4,6854.63ZM20394.1,6844.9L20387.1,6840.76L20401.3,6817.05L20408.3,6821.23C20416.2,6825.92 20417.2,6833.47 20413.2,6840.12C20409.4,6846.52 20401.7,6849.4 20394.1,6844.9Z" style="fill-rule:nonzero;"/>
                    <path d="M20430.9,6884.82C20441.5,6893.22 20451.5,6892.63 20457.8,6884.76C20469.5,6870.19 20444.3,6856.15 20448.2,6851.34C20449.6,6849.63 20451.7,6849.67 20454.6,6852.01C20458.5,6855.1 20461.7,6859.88 20462.8,6865.26L20474.4,6862.09C20473.1,6855.18 20469.1,6848.94 20462.8,6843.92C20452.7,6835.91 20442.5,6837.38 20437.2,6843.96C20425.1,6859.06 20450.8,6872.44 20446.7,6877.61C20445.1,6879.55 20442,6879.03 20438.6,6876.32C20433.2,6872 20430.7,6866.19 20430.1,6861.11L20418.5,6864.72C20419.4,6871.56 20423,6878.5 20430.9,6884.82Z" style="fill-rule:nonzero;"/>
                </g>
                <g transform="matrix(1.06388,0.196156,-0.196156,1.06388,-350.771,-2184.45)">
                    <g transform="matrix(1,0,0,1,-5793.63,-5791.1)">
                        <path d="M17246,7208C17246,7208 16850.3,7176.61 16815,7212C16789.9,7237.09 16769.1,7285.04 16752.2,7341.39C16749.3,7350.7 16767.7,7371.24 16765.1,7380.95C16762.8,7389.26 16739.7,7386.68 16737.6,7395.19C16724.1,7450.8 16713.8,7509.81 16706.4,7560.8C16704.9,7571.39 16728.5,7595.63 16727.2,7605.42C16726.1,7614.09 16700.1,7608.4 16699.1,7616.29C16694.3,7656.9 16692,7686.36 16692,7695C16692,7729.29 17093.8,7724.55 17098,7712C17104.5,7692.7 17113.4,7654.86 17120.4,7618.27C17121.5,7612.29 17099.7,7608.16 17100.8,7601.89C17102,7595.53 17124.1,7594.03 17125.3,7587.43C17130.8,7556.02 17136.2,7522.2 17141.4,7488.84C17142.1,7484.36 17110.8,7463.9 17111.5,7459.44C17113,7449.82 17146.5,7456.28 17147.9,7446.87C17151.9,7420.97 17155.7,7396.14 17159.2,7373.81C17160.1,7368.12 17118.1,7361.6 17119.2,7356.26C17123.7,7334.87 17169.6,7342.03 17170,7327.53C17171.9,7269.93 17213.3,7216.47 17246,7208" style="fill:none;stroke:black;stroke-width:19.26px;"/>
                        <path d="M17246,7208C17246,7208 16850.3,7176.61 16815,7212C16789.9,7237.09 16769.1,7285.04 16752.2,7341.39C16749.3,7350.7 16767.7,7371.24 16765.1,7380.95C16762.8,7389.26 16739.7,7386.68 16737.6,7395.19C16724.1,7450.8 16713.8,7509.81 16706.4,7560.8C16704.9,7571.39 16728.5,7595.63 16727.2,7605.42C16726.1,7614.09 16700.1,7608.4 16699.1,7616.29C16694.3,7656.9 16692,7686.36 16692,7695C16692,7729.29 17093.8,7724.55 17098,7712C17104.5,7692.7 17113.4,7654.86 17120.4,7618.27C17121.5,7612.29 17099.7,7608.16 17100.8,7601.89C17102,7595.53 17124.1,7594.03 17125.3,7587.43C17130.8,7556.02 17136.2,7522.2 17141.4,7488.84C17142.1,7484.36 17110.8,7463.9 17111.5,7459.44C17113,7449.82 17146.5,7456.28 17147.9,7446.87C17151.9,7420.97 17155.7,7396.14 17159.2,7373.81C17160.1,7368.12 17118.1,7361.6 17119.2,7356.26C17123.7,7334.87 17169.6,7342.03 17170,7327.53C17171.9,7269.93 17213.3,7216.47 17246,7208" style="fill:rgb(21,166,92);"/>
                    </g>
                    <g transform="matrix(0.909048,-0.167608,0.167608,0.909048,-5531.54,-2387.07)">
                        <path d="M16921.2,7623.34C16921.7,7622.19 16922.8,7621.44 16924,7621.44C16925.2,7621.44 16926.3,7622.19 16926.8,7623.34C16931.4,7635.13 16940.7,7658.47 16944.4,7667.9C16944.7,7668.82 16944.6,7669.87 16944.1,7670.69C16943.5,7671.51 16942.6,7672 16941.6,7672C16933.2,7672 16914.8,7672 16906.4,7672C16905.4,7672 16904.5,7671.51 16903.9,7670.69C16903.4,7669.87 16903.3,7668.82 16903.6,7667.9C16907.3,7658.47 16916.6,7635.13 16921.2,7623.34Z" style="fill:none;stroke:black;stroke-width:10.42px;"/>
                        <path d="M16921.2,7623.34C16921.7,7622.19 16922.8,7621.44 16924,7621.44C16925.2,7621.44 16926.3,7622.19 16926.8,7623.34C16931.4,7635.13 16940.7,7658.47 16944.4,7667.9C16944.7,7668.82 16944.6,7669.87 16944.1,7670.69C16943.5,7671.51 16942.6,7672 16941.6,7672C16933.2,7672 16914.8,7672 16906.4,7672C16905.4,7672 16904.5,7671.51 16903.9,7670.69C16903.4,7669.87 16903.3,7668.82 16903.6,7667.9C16907.3,7658.47 16916.6,7635.13 16921.2,7623.34Z" style="fill:rgb(7,83,39);"/>
                    </g>
                    <g transform="matrix(0.909048,-0.167608,0.167608,0.909048,-5552.15,-2365.44)">
                        <path d="M16921.2,7623.34C16921.7,7622.19 16922.8,7621.44 16924,7621.44C16925.2,7621.44 16926.3,7622.19 16926.8,7623.34C16931.4,7635.13 16940.7,7658.47 16944.4,7667.9C16944.7,7668.82 16944.6,7669.87 16944.1,7670.69C16943.5,7671.51 16942.6,7672 16941.6,7672C16933.2,7672 16914.8,7672 16906.4,7672C16905.4,7672 16904.5,7671.51 16903.9,7670.69C16903.4,7669.87 16903.3,7668.82 16903.6,7667.9C16907.3,7658.47 16916.6,7635.13 16921.2,7623.34Z" style="fill:none;stroke:black;stroke-width:10.42px;"/>
                        <path d="M16921.2,7623.34C16921.7,7622.19 16922.8,7621.44 16924,7621.44C16925.2,7621.44 16926.3,7622.19 16926.8,7623.34C16931.4,7635.13 16940.7,7658.47 16944.4,7667.9C16944.7,7668.82 16944.6,7669.87 16944.1,7670.69C16943.5,7671.51 16942.6,7672 16941.6,7672C16933.2,7672 16914.8,7672 16906.4,7672C16905.4,7672 16904.5,7671.51 16903.9,7670.69C16903.4,7669.87 16903.3,7668.82 16903.6,7667.9C16907.3,7658.47 16916.6,7635.13 16921.2,7623.34Z" style="fill:rgb(30,99,60);"/>
                    </g>
                    <g transform="matrix(0.909048,-0.167608,0.167608,0.909048,-5513.13,-2366.7)">
                        <path d="M16921.2,7623.34C16921.7,7622.19 16922.8,7621.44 16924,7621.44C16925.2,7621.44 16926.3,7622.19 16926.8,7623.34C16931.4,7635.13 16940.7,7658.47 16944.4,7667.9C16944.7,7668.82 16944.6,7669.87 16944.1,7670.69C16943.5,7671.51 16942.6,7672 16941.6,7672C16933.2,7672 16914.8,7672 16906.4,7672C16905.4,7672 16904.5,7671.51 16903.9,7670.69C16903.4,7669.87 16903.3,7668.82 16903.6,7667.9C16907.3,7658.47 16916.6,7635.13 16921.2,7623.34Z" style="fill:none;stroke:black;stroke-width:10.42px;"/>
                        <path d="M16921.2,7623.34C16921.7,7622.19 16922.8,7621.44 16924,7621.44C16925.2,7621.44 16926.3,7622.19 16926.8,7623.34C16931.4,7635.13 16940.7,7658.47 16944.4,7667.9C16944.7,7668.82 16944.6,7669.87 16944.1,7670.69C16943.5,7671.51 16942.6,7672 16941.6,7672C16933.2,7672 16914.8,7672 16906.4,7672C16905.4,7672 16904.5,7671.51 16903.9,7670.69C16903.4,7669.87 16903.3,7668.82 16903.6,7667.9C16907.3,7658.47 16916.6,7635.13 16921.2,7623.34Z" style="fill:rgb(31,116,66);"/>
                    </g>
                    <g transform="matrix(1,0,0,1,-5793.63,-5791.1)">
                        <path d="M16923,7686C16914,7682.11 16926.3,7665.83 16932,7658C16937.7,7650.17 16951.7,7647.33 16957,7639C16962.3,7630.67 16956.5,7615.33 16964,7608C16971.5,7600.67 16989.7,7594.83 17002,7595C17014.3,7595.17 17027.5,7603.5 17038,7609C17047.7,7614.11 17055.3,7622.79 17065,7628C17076.2,7634 17100.5,7631.33 17105,7645C17109.5,7658.67 17108.5,7702.5 17092,7710C17075.5,7717.5 17034.2,7694 17006,7690C16978.6,7686.11 16935.3,7691.33 16923,7686Z" style="fill:none;stroke:black;stroke-width:7.7px;"/>
                        <path d="M16923,7686C16914,7682.11 16926.3,7665.83 16932,7658C16937.7,7650.17 16951.7,7647.33 16957,7639C16962.3,7630.67 16956.5,7615.33 16964,7608C16971.5,7600.67 16989.7,7594.83 17002,7595C17014.3,7595.17 17027.5,7603.5 17038,7609C17047.7,7614.11 17055.3,7622.79 17065,7628C17076.2,7634 17100.5,7631.33 17105,7645C17109.5,7658.67 17108.5,7702.5 17092,7710C17075.5,7717.5 17034.2,7694 17006,7690C16978.6,7686.11 16935.3,7691.33 16923,7686Z" style="fill:rgb(255,209,80);"/>
                    </g>
                    <g transform="matrix(1,0,0,1,-5793.63,-5791.1)">
                        <path d="M17022,7366C17010.5,7368.33 17000.7,7389.67 16991,7402C16981.4,7414.23 16966.2,7426.83 16964,7440C16961.8,7453.17 16968.7,7472.5 16978,7481C16987.3,7489.5 17006.5,7493.67 17020,7491C17033.5,7488.33 17048.7,7474.83 17059,7465C17068.7,7455.76 17081.8,7444.83 17082,7432C17082.2,7419.17 17070,7399 17060,7388C17050.2,7377.17 17033.5,7363.67 17022,7366Z" style="fill:none;stroke:black;stroke-width:19.26px;"/>
                        <path d="M17022,7366C17010.5,7368.33 17000.7,7389.67 16991,7402C16981.4,7414.23 16966.2,7426.83 16964,7440C16961.8,7453.17 16968.7,7472.5 16978,7481C16987.3,7489.5 17006.5,7493.67 17020,7491C17033.5,7488.33 17048.7,7474.83 17059,7465C17068.7,7455.76 17081.8,7444.83 17082,7432C17082.2,7419.17 17070,7399 17060,7388C17050.2,7377.17 17033.5,7363.67 17022,7366Z" style="fill:rgb(62,99,174);"/>
                    </g>
                    <g transform="matrix(0.97789,-0.654996,0.58989,0.880688,-9744.7,6499.61)">
                        <path d="M17013.4,7407.72C17013.4,7403.46 17017.1,7400 17021.5,7400C17025.9,7400 17029.6,7403.46 17029.6,7407.72C17032.7,7404.27 17038.2,7403.17 17041.8,7405.25C17045.4,7407.34 17045.7,7411.83 17042.6,7415.28C17047.7,7413.96 17052.9,7415.63 17054.3,7419C17055.7,7422.38 17052.7,7426.18 17047.6,7427.5C17051.2,7428.44 17056,7434.99 17054.5,7433.08C17054.3,7432.9 17028.9,7455.71 17028.9,7455.71C17028.9,7455.71 17008.1,7441.7 17008.1,7439.02C17005,7442.46 16987.3,7422.38 16988.7,7419C16990.1,7415.63 16995.3,7413.96 17000.4,7415.28C16997.3,7411.83 16997.6,7407.34 17001.2,7405.25C17004.8,7403.17 17010.3,7404.27 17013.4,7407.72Z" style="fill:none;stroke:black;stroke-width:6.88px;"/>
                        <path d="M17013.4,7407.72C17013.4,7403.46 17017.1,7400 17021.5,7400C17025.9,7400 17029.6,7403.46 17029.6,7407.72C17032.7,7404.27 17038.2,7403.17 17041.8,7405.25C17045.4,7407.34 17045.7,7411.83 17042.6,7415.28C17047.7,7413.96 17052.9,7415.63 17054.3,7419C17055.7,7422.38 17052.7,7426.18 17047.6,7427.5C17051.2,7428.44 17056,7434.99 17054.5,7433.08C17054.3,7432.9 17028.9,7455.71 17028.9,7455.71C17028.9,7455.71 17008.1,7441.7 17008.1,7439.02C17005,7442.46 16987.3,7422.38 16988.7,7419C16990.1,7415.63 16995.3,7413.96 17000.4,7415.28C16997.3,7411.83 16997.6,7407.34 17001.2,7405.25C17004.8,7403.17 17010.3,7404.27 17013.4,7407.72Z" style="fill:rgb(21,166,92);"/>
                    </g>
                    <g transform="matrix(1,0,0,1,-5793.63,-5791.1)">
                        <path d="M17201.5,7263.3C17204,7271.3 17261.5,7265.5 17271,7257C17280.5,7248.5 17257,7207.5 17245,7208C17233,7208.5 17199,7255.3 17201.5,7263.3Z" style="fill:none;stroke:black;stroke-width:19.26px;"/>
                        <path d="M17201.5,7263.3C17204,7271.3 17261.5,7265.5 17271,7257C17280.5,7248.5 17257,7207.5 17245,7208C17233,7208.5 17199,7255.3 17201.5,7263.3Z" style="fill:white;"/>
                    </g>
                    <g transform="matrix(1,0,0,1,-5793.63,-5791.1)">
                        <path d="M16755.1,7354.19C16753.5,7359.01 16765.2,7349.4 16770,7351C16783.5,7355.47 16813.3,7378.17 16836,7381C16858.7,7383.83 16889.2,7381.5 16906,7368C16922.8,7354.5 16923,7318.5 16937,7300C16950.7,7281.86 16980.5,7272.5 16990,7257C16998.7,7242.74 17010.2,7211.1 16994,7207C16965,7199.67 16855.8,7188.47 16816,7213C16776.2,7237.53 16762.8,7331.19 16755.1,7354.19Z" style="fill:none;stroke:black;stroke-width:19.26px;"/>
                        <path d="M16755.1,7354.19C16753.5,7359.01 16765.2,7349.4 16770,7351C16783.5,7355.47 16813.3,7378.17 16836,7381C16858.7,7383.83 16889.2,7381.5 16906,7368C16922.8,7354.5 16923,7318.5 16937,7300C16950.7,7281.86 16980.5,7272.5 16990,7257C16998.7,7242.74 17010.2,7211.1 16994,7207C16965,7199.67 16855.8,7188.47 16816,7213C16776.2,7237.53 16762.8,7331.19 16755.1,7354.19Z" style="fill:rgb(62,99,174);"/>
                    </g>
                    <g transform="matrix(1,0,0,1,-5793.63,-5791.1)">
                        <path d="M16982,7632L16993,7628L17003,7643L17010,7627L17024,7630L17014,7650L17024,7669L17010,7673L17002,7655L16986,7669L16976,7657L16990,7646L16982,7632Z" style="fill:none;stroke:black;stroke-width:7.7px;"/>
                        <path d="M16982,7632L16993,7628L17003,7643L17010,7627L17024,7630L17014,7650L17024,7669L17010,7673L17002,7655L16986,7669L16976,7657L16990,7646L16982,7632Z" style="fill:rgb(232,62,62);"/>
                    </g>
                    <g transform="matrix(0.730033,-0.612738,0.473392,0.564013,-4717.26,7699.52)">
                        <path d="M16789.6,7260.75C16809.9,7229.44 16893.7,7211.76 16893.7,7211.76C16893.7,7211.76 16940.2,7244.7 16965.9,7272.69C16973.1,7282.84 16971.5,7291.68 16959,7297.54C16946.5,7303.4 16930.4,7299.91 16923.2,7289.76C16923.2,7301.48 16911.5,7311 16897,7311C16882.5,7311 16870.8,7301.48 16870.8,7289.76C16863.6,7299.91 16847.5,7303.4 16835,7297.54C16822.5,7291.68 16818.2,7278.68 16825.4,7268.52C16812.9,7274.39 16783.4,7270.36 16789.6,7260.75Z" style="fill:none;stroke:black;stroke-width:22.61px;"/>
                        <path d="M16789.6,7260.75C16809.9,7229.44 16893.7,7211.76 16893.7,7211.76C16893.7,7211.76 16940.2,7244.7 16965.9,7272.69C16973.1,7282.84 16971.5,7291.68 16959,7297.54C16946.5,7303.4 16930.4,7299.91 16923.2,7289.76C16923.2,7301.48 16911.5,7311 16897,7311C16882.5,7311 16870.8,7301.48 16870.8,7289.76C16863.6,7299.91 16847.5,7303.4 16835,7297.54C16822.5,7291.68 16818.2,7278.68 16825.4,7268.52C16812.9,7274.39 16783.4,7270.36 16789.6,7260.75Z" style="fill:rgb(255,209,80);"/>
                    </g>
                    <g transform="matrix(1,0,0,1,-5790.63,-5795.1)">
                        <path d="M16592,7692C16602,7687.33 16656,7697.99 16688,7700C16707.3,7701.21 16755.1,7699.14 16796.4,7699.58C16804.7,7699.67 16809.2,7714.74 16817.9,7714.78C16825.2,7714.82 16824.6,7702.85 16832,7702.85C16893.8,7702.92 16980.1,7692.74 16995.5,7699.06C17007.6,7704.04 17074,7719.79 17093,7717C17093,7717 16988.6,7743.07 16628,7728C16611,7727.29 16582,7696.67 16592,7692Z" style="fill:none;stroke:black;stroke-width:19.26px;"/>
                        <path d="M16592,7692C16602,7687.33 16656,7697.99 16688,7700C16707.3,7701.21 16755.1,7699.14 16796.4,7699.58C16804.7,7699.67 16809.2,7714.74 16817.9,7714.78C16825.2,7714.82 16824.6,7702.85 16832,7702.85C16893.8,7702.92 16980.1,7692.74 16995.5,7699.06C17007.6,7704.04 17074,7719.79 17093,7717C17093,7717 16988.6,7743.07 16628,7728C16611,7727.29 16582,7696.67 16592,7692Z" style="fill:white;"/>
                    </g>
                    <g>
                        <g transform="matrix(1,0,0,1,-5793.63,-5791.1)">
                            <path d="M17188.8,7226.09C17190.7,7225.34 17192.8,7226.26 17193.6,7228.15C17194.3,7230.05 17193.4,7232.2 17191.5,7232.96C17172.5,7240.57 17173.6,7242.9 17153.8,7247.27C17151.8,7247.71 17149.9,7246.45 17149.4,7244.45C17149,7242.46 17150.2,7240.49 17152.2,7240.05C17171.4,7235.81 17170.3,7233.47 17188.8,7226.09Z"/>
                        </g>
                        <g transform="matrix(1,0,0,1,-5793.63,-5791.1)">
                            <path d="M17117.9,7246.13C17119.9,7246.03 17121.7,7247.6 17121.8,7249.64C17121.9,7251.68 17120.3,7253.41 17118.3,7253.52C17103.5,7254.26 17104.3,7257 17085.3,7261.83C17083.3,7262.34 17081.3,7261.14 17080.8,7259.16C17080.3,7257.18 17081.5,7255.17 17083.5,7254.67C17103.3,7249.62 17102.5,7246.91 17117.9,7246.13Z"/>
                        </g>
                        <g transform="matrix(0.857428,-0.514604,0.514604,0.857428,-7094.48,4006.37)">
                            <path d="M17033.6,7270.69C17035.6,7270.28 17037.6,7271.57 17038,7273.57C17038.4,7275.57 17037.1,7277.53 17035.1,7277.94C17015.7,7281.9 17015.7,7281.2 16997.6,7288.67C16995.7,7289.44 16993.5,7288.54 16992.7,7286.65C16992,7284.77 16992.9,7282.6 16994.7,7281.83C17013.6,7274.1 17013.6,7274.8 17033.6,7270.69Z"/>
                        </g>
                        <g transform="matrix(1,0,0,1,-5738.06,-5776.65)">
                            <path d="M16922.6,7304.06C16924.3,7303.06 16926.6,7303.68 16927.6,7305.45C16928.6,7307.23 16928,7309.49 16926.2,7310.49C16924.5,7311.5 16922.9,7313.18 16920.6,7315.65C16916.5,7319.94 16910.4,7326.41 16898.3,7335.9C16896.7,7337.16 16894.4,7336.89 16893.2,7335.29C16891.9,7333.68 16892.2,7331.36 16893.8,7330.09C16907.4,7319.38 16913.2,7312.63 16917.1,7308.58C16919.1,7306.52 16920.8,7305.07 16922.6,7304.06Z"/>
                        </g>
                        <g transform="matrix(1,0,0,1,-5710.65,-5774.65)">
                            <path d="M16858.6,7355.51C16859.4,7353.62 16861.6,7352.74 16863.5,7353.53C16865.3,7354.33 16866.2,7356.5 16865.4,7358.38C16863.7,7362.57 16855.2,7383.81 16846.7,7399.4C16845.8,7401.2 16843.5,7401.87 16841.7,7400.9C16839.9,7399.93 16839.3,7397.68 16840.2,7395.89C16848.5,7380.55 16856.9,7359.63 16858.6,7355.51Z"/>
                        </g>
                        <g transform="matrix(0.596018,0.584132,-0.403362,0.411569,4071.74,-11237.6)">
                            <path d="M16828.8,7420.53C16829.2,7417.04 16831.5,7414.67 16833.9,7415.25C16836.3,7415.82 16838,7419.13 16837.6,7422.62C16837.4,7424.05 16837.1,7425.17 16836.7,7426.68C16835.5,7430.27 16832.8,7437.72 16826.3,7476.71C16825.7,7480.15 16823.3,7482.28 16820.9,7481.45C16818.6,7480.62 16817.1,7477.16 16817.7,7473.71C16823.6,7437.98 16826.6,7427.57 16828.1,7422.99C16828.4,7421.82 16828.7,7421.33 16828.8,7420.53Z"/>
                        </g>
                        <g transform="matrix(1.13694,-0.209626,0.209626,1.13694,-9843.95,-3485.48)">
                            <path d="M16945.2,7689.06C16946.9,7688.3 16962.3,7681.52 16965,7676.28C16965.8,7674.81 16964.5,7677.73 16962.7,7678.56" style="fill:none;stroke:black;stroke-width:6.66px;"/>
                        </g>
                        <g transform="matrix(1,0,0,1,-5793.63,-5791.1)">
                            <path d="M16810.7,7520.51C16810.7,7518.47 16812.3,7516.81 16814.4,7516.81C16816.4,7516.81 16818.1,7518.47 16818.1,7520.51C16818.1,7523.16 16818.1,7542.84 16820.1,7556.01C16820.6,7559.13 16821.2,7561.86 16822,7563.81C16822.3,7564.48 16822.4,7565.05 16822.8,7565.32C16824.4,7566.56 16824.7,7568.88 16823.5,7570.5C16822.2,7572.12 16819.9,7572.42 16818.3,7571.18C16817.1,7570.31 16816,7568.76 16815.1,7566.55C16814.2,7564.19 16813.4,7560.92 16812.8,7557.16C16810.7,7543.57 16810.7,7523.25 16810.7,7520.51Z"/>
                        </g>
                        <g transform="matrix(1,0,0,1,-5793.63,-5791.1)">
                            <path d="M16825.9,7602.32C16825.4,7600.34 16826.6,7598.33 16828.6,7597.85C16830.6,7597.36 16832.6,7598.57 16833.1,7600.56C16834.1,7604.85 16837.7,7609.2 16841.6,7613.06C16847.9,7619.37 16855.4,7624.28 16856.8,7625.22C16858.5,7626.34 16859,7628.64 16857.8,7630.34C16856.7,7632.04 16854.4,7632.51 16852.7,7631.39C16851.2,7630.38 16843.2,7625.09 16836.3,7618.3C16831.4,7613.43 16827.2,7607.75 16825.9,7602.32Z"/>
                        </g>
                        <g transform="matrix(1,0,0,1,-5793.63,-5791.1)">
                            <path d="M16931.2,7659.04C16930.6,7658.97 16926.7,7658.46 16926.4,7658.44C16917.8,7658.08 16913.8,7656.52 16909.8,7654.85C16906.4,7653.41 16903,7651.87 16895.6,7651.13C16893.6,7650.93 16892.1,7649.11 16892.3,7647.08C16892.5,7645.05 16894.3,7643.57 16896.3,7643.77C16904.9,7644.62 16908.8,7646.39 16912.7,7648.04C16916.1,7649.45 16919.4,7650.75 16926.7,7651.06C16927.1,7651.07 16930.1,7651.21 16932.3,7651.69C16933.1,7651.86 16933.8,7652.08 16934.3,7652.32L16935.2,7652.84L16935.9,7653.44C16937.4,7654.89 16937.4,7657.24 16935.9,7658.67C16934.6,7659.95 16932.6,7660.07 16931.2,7659.04Z"/>
                        </g>
                    </g>
                </g>
            </g>
            <g transform="matrix(0.725022,0,0,0.725022,4165.65,3241.67)">
                <g transform="matrix(1,0,0,1,1290.21,854.76)">
                    <path d="M0,0C2.56,-0.01 14.138,-0.113 14.915,-0.125C21.441,-0.098 27.648,2.876 30.993,5.885C34.136,8.713 34.613,13.147 34.981,17.928C35.579,25.698 35.811,74.826 33.368,101.275C33.299,102.017 33.231,102.758 33.161,103.522C33.092,104.262 33.024,105.003 32.954,105.766C31.665,119.781 30.888,133.66 30.918,147.74C30.92,148.864 30.92,148.864 30.921,150.011C30.945,157.809 31.702,166.639 31.941,173.292C32.141,178.835 32.353,184.374 32.356,189.928C32.368,191.086 32.38,192.244 32.393,193.438C32.418,208.023 34.549,207.89 30.168,212.24C25.544,216.832 17.74,215.684 11.278,215.639C10.37,215.642 9.463,215.644 8.527,215.647C6.625,215.649 4.722,215.644 2.82,215.631C-0.088,215.615 -2.994,215.631 -5.902,215.65C-7.759,215.648 -9.615,215.645 -11.472,215.639C-12.337,215.645 -13.201,215.651 -14.092,215.657C-18.785,215.602 -23.991,215.876 -25.832,212.24C-28.307,207.35 -28.981,194.962 -28.945,186.314C-28.945,185.367 -28.945,184.419 -28.946,183.443C-28.945,180.343 -28.937,177.243 -28.929,174.143C-28.927,171.981 -28.926,169.819 -28.925,167.657C-28.921,161.99 -28.911,156.323 -28.9,150.657C-28.89,144.865 -28.885,139.073 -28.88,133.281C-28.87,121.934 -24.758,104.35 -26.941,100.309C-28.949,96.592 -42.601,131.476 -47.832,143.678C-52.289,154.074 -57.022,164.34 -61.207,174.865C-61.454,175.488 -61.702,176.111 -61.957,176.753C-64.44,183.016 -66.866,189.297 -69.214,195.611C-69.576,196.581 -69.938,197.55 -70.311,198.548C-70.966,200.316 -71.612,202.087 -72.247,203.862C-75.468,212.61 -75.745,213.25 -78.832,215.24C-81.919,217.23 -86.724,215.891 -90.769,215.803C-91.854,215.814 -92.939,215.825 -94.056,215.836C-98.513,215.795 -103.19,216.663 -105.898,213.705C-109.042,210.27 -110.649,201.411 -112.921,195.226C-118.992,178.703 -135.672,132.062 -142.324,114.564C-145.462,106.309 -151.247,83.586 -152.832,90.24C-154.416,96.895 -152.897,133.062 -151.832,154.49C-151.2,167.326 -150.622,180.137 -150.582,192.99C-150.573,194.125 -150.563,195.26 -150.554,196.429C-150.608,210.879 -150.784,211.809 -153.391,214.969C-155.886,217.993 -159.389,217.663 -162.843,217.717C-163.874,217.74 -163.874,217.74 -164.925,217.764C-167.123,217.811 -169.321,217.839 -171.519,217.865C-173.699,217.902 -175.879,217.943 -178.059,217.988C-180.051,218.027 -192.751,219.006 -195.832,219.24C-198.056,219.41 -209.262,220.128 -212.569,215.294C-215.707,210.707 -214.492,193.683 -214.334,189.412C-214.116,183.561 -213.667,174.561 -213.664,167.111C-213.66,165.553 -213.657,163.994 -213.653,162.435C-213.648,159.173 -213.646,155.912 -213.646,152.65C-213.646,149.362 -213.639,146.074 -213.626,142.786C-213.558,126.353 -214.696,107.83 -215.107,93.691C-215.453,81.778 -216.132,69.892 -216.092,57.95C-216.081,54.083 -216.379,50.207 -216.105,46.35C-215.506,37.927 -217.818,12.028 -212.501,7.412C-203.592,-0.321 -177.436,1.054 -165.909,1.055C-163.272,1.053 -160.635,1.035 -157.998,1.016C-156.295,1.013 -154.593,1.011 -152.89,1.01C-152.115,1.003 -151.34,0.995 -150.541,0.988C-142.48,1.021 -133.08,1.178 -128.601,7.334C-122.237,16.083 -117.802,38.111 -112.354,53.481C-106.392,70.299 -96.466,107.287 -92.832,108.24C-91.21,108.666 -85.535,91.304 -82.041,83.997C-75.632,70.554 -68.247,51.114 -64.863,42.978C-63.787,40.391 -62.813,37.767 -61.734,35.178C-59.318,29.207 -58.543,21.89 -56.384,16.744C-54.504,12.262 -51.729,6.77 -48.783,4.3C-46.138,2.084 -42.399,2.144 -38.707,1.928C-38.036,1.868 -9.051,0.021 0,0Z" style="fill:none;fill-rule:nonzero;stroke:black;stroke-width:48.85px;stroke-linecap:butt;stroke-miterlimit:2;"/>
                    <path d="M0,0C2.56,-0.01 14.138,-0.113 14.915,-0.125C21.441,-0.098 27.648,2.876 30.993,5.885C34.136,8.713 34.613,13.147 34.981,17.928C35.579,25.698 35.811,74.826 33.368,101.275C33.299,102.017 33.231,102.758 33.161,103.522C33.092,104.262 33.024,105.003 32.954,105.766C31.665,119.781 30.888,133.66 30.918,147.74C30.92,148.864 30.92,148.864 30.921,150.011C30.945,157.809 31.702,166.639 31.941,173.292C32.141,178.835 32.353,184.374 32.356,189.928C32.368,191.086 32.38,192.244 32.393,193.438C32.418,208.023 34.549,207.89 30.168,212.24C25.544,216.832 17.74,215.684 11.278,215.639C10.37,215.642 9.463,215.644 8.527,215.647C6.625,215.649 4.722,215.644 2.82,215.631C-0.088,215.615 -2.994,215.631 -5.902,215.65C-7.759,215.648 -9.615,215.645 -11.472,215.639C-12.337,215.645 -13.201,215.651 -14.092,215.657C-18.785,215.602 -23.991,215.876 -25.832,212.24C-28.307,207.35 -28.981,194.962 -28.945,186.314C-28.945,185.367 -28.945,184.419 -28.946,183.443C-28.945,180.343 -28.937,177.243 -28.929,174.143C-28.927,171.981 -28.926,169.819 -28.925,167.657C-28.921,161.99 -28.911,156.323 -28.9,150.657C-28.89,144.865 -28.885,139.073 -28.88,133.281C-28.87,121.934 -24.758,104.35 -26.941,100.309C-28.949,96.592 -42.601,131.476 -47.832,143.678C-52.289,154.074 -57.022,164.34 -61.207,174.865C-61.454,175.488 -61.702,176.111 -61.957,176.753C-64.44,183.016 -66.866,189.297 -69.214,195.611C-69.576,196.581 -69.938,197.55 -70.311,198.548C-70.966,200.316 -71.612,202.087 -72.247,203.862C-75.468,212.61 -75.745,213.25 -78.832,215.24C-81.919,217.23 -86.724,215.891 -90.769,215.803C-91.854,215.814 -92.939,215.825 -94.056,215.836C-98.513,215.795 -103.19,216.663 -105.898,213.705C-109.042,210.27 -110.649,201.411 -112.921,195.226C-118.992,178.703 -135.672,132.062 -142.324,114.564C-145.462,106.309 -151.247,83.586 -152.832,90.24C-154.416,96.895 -152.897,133.062 -151.832,154.49C-151.2,167.326 -150.622,180.137 -150.582,192.99C-150.573,194.125 -150.563,195.26 -150.554,196.429C-150.608,210.879 -150.784,211.809 -153.391,214.969C-155.886,217.993 -159.389,217.663 -162.843,217.717C-163.874,217.74 -163.874,217.74 -164.925,217.764C-167.123,217.811 -169.321,217.839 -171.519,217.865C-173.699,217.902 -175.879,217.943 -178.059,217.988C-180.051,218.027 -192.751,219.006 -195.832,219.24C-198.056,219.41 -209.262,220.128 -212.569,215.294C-215.707,210.707 -214.492,193.683 -214.334,189.412C-214.116,183.561 -213.667,174.561 -213.664,167.111C-213.66,165.553 -213.657,163.994 -213.653,162.435C-213.648,159.173 -213.646,155.912 -213.646,152.65C-213.646,149.362 -213.639,146.074 -213.626,142.786C-213.558,126.353 -214.696,107.83 -215.107,93.691C-215.453,81.778 -216.132,69.892 -216.092,57.95C-216.081,54.083 -216.379,50.207 -216.105,46.35C-215.506,37.927 -217.818,12.028 -212.501,7.412C-203.592,-0.321 -177.436,1.054 -165.909,1.055C-163.272,1.053 -160.635,1.035 -157.998,1.016C-156.295,1.013 -154.593,1.011 -152.89,1.01C-152.115,1.003 -151.34,0.995 -150.541,0.988C-142.48,1.021 -133.08,1.178 -128.601,7.334C-122.237,16.083 -117.802,38.111 -112.354,53.481C-106.392,70.299 -96.466,107.287 -92.832,108.24C-91.21,108.666 -85.535,91.304 -82.041,83.997C-75.632,70.554 -68.247,51.114 -64.863,42.978C-63.787,40.391 -62.813,37.767 -61.734,35.178C-59.318,29.207 -58.543,21.89 -56.384,16.744C-54.504,12.262 -51.729,6.77 -48.783,4.3C-46.138,2.084 -42.399,2.144 -38.707,1.928C-38.036,1.868 -9.051,0.021 0,0Z" style="fill:rgb(255,209,80);fill-rule:nonzero;"/>
                </g>
                <g transform="matrix(1,0,0,1,1407.81,855.85)">
                    <path d="M0,0C29.156,0.07 86.768,2.111 105.982,15.453C122.959,27.241 127.435,51.41 123.248,67.15C119.758,80.268 94.247,101.495 94.248,104.15C94.249,108.111 120.236,116.707 126.788,151.129C129.028,162.901 127.677,179.93 119.248,190.15C110.438,200.833 93.851,210.356 73.929,215.224C66.276,217.094 41.32,219.079 39.519,219.129C23.975,219.567 -46.766,220.436 -48.49,220.503C-52.184,220.556 -56.003,221.011 -57.4,218.288C-59.987,213.245 -61.384,187.704 -61.409,186.422C-61.575,177.906 -62.083,154.923 -62.278,139.171C-62.338,134.312 -62.434,127.365 -62.471,124.596C-62.48,123.916 -62.479,123.235 -62.499,122.555C-62.633,117.991 -62.86,105.66 -63.275,97.213C-63.866,85.149 -63.777,67.614 -63.877,61.025C-63.894,59.91 -63.938,58.793 -63.872,57.68C-63.351,48.88 -64.947,17.438 -60.752,8.226C-57.696,1.515 -41.186,2.571 -38.699,2.409C-36.036,2.235 -33.373,2.056 -30.711,1.868C-20.478,1.148 -10.256,-0.025 0,0ZM31.682,50.838C21.117,49.7 4.744,48.933 -0.006,54.308C-4.756,59.683 -1.808,79.069 -0.444,81.096C1.889,84.562 11.99,86.887 18.58,86.568C28.698,86.079 51.815,81.513 60.26,78.162C64.831,76.348 69.477,69.496 69.248,66.463C68.412,55.401 43.014,52.058 31.682,50.838ZM37.212,133.785C25.545,132.785 4.72,131.677 -1.752,136.15C-4.523,138.066 -3.445,159.646 0.248,163.15C3.13,165.885 38.779,170.32 62.514,154.193C66.191,151.695 71.709,144.942 68.248,142.15C64.031,138.749 47.887,134.7 37.212,133.785Z" style="fill:none;stroke:black;stroke-width:48.85px;stroke-linecap:butt;stroke-miterlimit:2;"/>
                    <path d="M0,0C29.156,0.07 86.768,2.111 105.982,15.453C122.959,27.241 127.435,51.41 123.248,67.15C119.758,80.268 94.247,101.495 94.248,104.15C94.249,108.111 120.236,116.707 126.788,151.129C129.028,162.901 127.677,179.93 119.248,190.15C110.438,200.833 93.851,210.356 73.929,215.224C66.276,217.094 41.32,219.079 39.519,219.129C23.975,219.567 -46.766,220.436 -48.49,220.503C-52.184,220.556 -56.003,221.011 -57.4,218.288C-59.987,213.245 -61.384,187.704 -61.409,186.422C-61.575,177.906 -62.083,154.923 -62.278,139.171C-62.338,134.312 -62.434,127.365 -62.471,124.596C-62.48,123.916 -62.479,123.235 -62.499,122.555C-62.633,117.991 -62.86,105.66 -63.275,97.213C-63.866,85.149 -63.777,67.614 -63.877,61.025C-63.894,59.91 -63.938,58.793 -63.872,57.68C-63.351,48.88 -64.947,17.438 -60.752,8.226C-57.696,1.515 -41.186,2.571 -38.699,2.409C-36.036,2.235 -33.373,2.056 -30.711,1.868C-20.478,1.148 -10.256,-0.025 0,0ZM31.682,50.838C21.117,49.7 4.744,48.933 -0.006,54.308C-4.756,59.683 -1.808,79.069 -0.444,81.096C1.889,84.562 11.99,86.887 18.58,86.568C28.698,86.079 51.815,81.513 60.26,78.162C64.831,76.348 69.477,69.496 69.248,66.463C68.412,55.401 43.014,52.058 31.682,50.838ZM37.212,133.785C25.545,132.785 4.72,131.677 -1.752,136.15C-4.523,138.066 -3.445,159.646 0.248,163.15C3.13,165.885 38.779,170.32 62.514,154.193C66.191,151.695 71.709,144.942 68.248,142.15C64.031,138.749 47.887,134.7 37.212,133.785Z" style="fill:rgb(255,209,80);"/>
                </g>
                <g transform="matrix(1,0,0,1,708.562,858.625)">
                    <path d="M-26.438,2.375C-17.578,0.98 35.439,-4.409 63.336,13.742C88.377,30.035 86.936,35.103 97.274,54.769C103.856,67.292 106.412,91.575 94.223,106.195C86.997,114.862 67.077,129.699 62.238,136.656C59.852,140.086 63.151,144.289 65.188,147.938C69.292,155.292 78.162,169.751 83.063,181.5C84.133,184.046 85.621,187.551 86.289,189.133C86.551,189.752 86.778,190.387 87.072,190.992C88.416,193.751 92.955,201.79 94.349,205.687C95.332,208.435 95.756,212.427 95.438,214.375C95.209,215.771 93.844,217.23 92.438,217.375C89.208,217.708 81.622,217.139 76.063,216.375C68.045,215.303 56.618,215.386 52,215.188C50.785,215.135 49.564,215.087 48.352,215.186C45.925,215.383 36.68,216.272 32.332,214.902C28.83,213.799 25.633,205.479 22.563,200.125C16.157,188.955 3.033,156.61 -6.994,149.354C-13.249,144.828 -30.091,145.703 -31.398,149.101C-33.165,153.694 -31.353,165.82 -31.303,173.766C-31.277,177.851 -31.242,181.936 -31.185,186.021C-31.131,189.963 -31.515,210.428 -34.738,215.202C-38.572,220.881 -65.116,218.13 -71.625,218.375C-76.079,218.543 -81.314,218.435 -84.179,216.471C-87.044,214.508 -88.584,211.455 -88.814,206.595C-89.105,200.454 -88.828,194.486 -88.821,191.813C-88.824,189.892 -88.828,187.972 -88.832,186.051C-88.841,180.84 -88.604,175.513 -88.215,170.316C-87.799,164.758 -86.461,156.863 -86.063,141.777C-85.821,132.618 -87.248,106.958 -87.259,96.369C-87.269,87.275 -87.27,78.182 -87.265,69.088C-87.261,63.658 -87.261,58.228 -87.268,52.798C-87.273,47.691 -88.837,41.018 -88.825,35.912C-88.823,34.039 -88.823,32.167 -88.828,30.294C-88.833,27.735 -89.549,11.798 -85.165,7.622C-81.346,3.983 -69.5,4.381 -61.438,4.528C-49.551,4.721 -38.205,4.23 -26.438,2.375ZM-30.563,58.375C-33.008,59.25 -32.979,64.579 -32.653,69.45C-32.327,74.327 -34.022,89.253 -31.556,93.971C-29.091,98.688 -21.809,98.026 -16.731,97.653C-6.566,96.908 21.499,94.617 29.438,89.5C34.636,86.15 36.063,81.417 36.063,77.063C36.063,72.708 33.347,66.584 29.438,63.375C25.528,60.166 16.072,58.104 12.603,57.809C5.576,57.209 -6.318,58.075 -8.785,58.1C-16.045,58.16 -26.82,57.035 -30.563,58.375Z" style="fill:none;stroke:black;stroke-width:48.85px;stroke-linecap:butt;stroke-miterlimit:2;"/>
                    <path d="M-26.438,2.375C-17.578,0.98 35.439,-4.409 63.336,13.742C88.377,30.035 86.936,35.103 97.274,54.769C103.856,67.292 106.412,91.575 94.223,106.195C86.997,114.862 67.077,129.699 62.238,136.656C59.852,140.086 63.151,144.289 65.188,147.938C69.292,155.292 78.162,169.751 83.063,181.5C84.133,184.046 85.621,187.551 86.289,189.133C86.551,189.752 86.778,190.387 87.072,190.992C88.416,193.751 92.955,201.79 94.349,205.687C95.332,208.435 95.756,212.427 95.438,214.375C95.209,215.771 93.844,217.23 92.438,217.375C89.208,217.708 81.622,217.139 76.063,216.375C68.045,215.303 56.618,215.386 52,215.188C50.785,215.135 49.564,215.087 48.352,215.186C45.925,215.383 36.68,216.272 32.332,214.902C28.83,213.799 25.633,205.479 22.563,200.125C16.157,188.955 3.033,156.61 -6.994,149.354C-13.249,144.828 -30.091,145.703 -31.398,149.101C-33.165,153.694 -31.353,165.82 -31.303,173.766C-31.277,177.851 -31.242,181.936 -31.185,186.021C-31.131,189.963 -31.515,210.428 -34.738,215.202C-38.572,220.881 -65.116,218.13 -71.625,218.375C-76.079,218.543 -81.314,218.435 -84.179,216.471C-87.044,214.508 -88.584,211.455 -88.814,206.595C-89.105,200.454 -88.828,194.486 -88.821,191.813C-88.824,189.892 -88.828,187.972 -88.832,186.051C-88.841,180.84 -88.604,175.513 -88.215,170.316C-87.799,164.758 -86.461,156.863 -86.063,141.777C-85.821,132.618 -87.248,106.958 -87.259,96.369C-87.269,87.275 -87.27,78.182 -87.265,69.088C-87.261,63.658 -87.261,58.228 -87.268,52.798C-87.273,47.691 -88.837,41.018 -88.825,35.912C-88.823,34.039 -88.823,32.167 -88.828,30.294C-88.833,27.735 -89.549,11.798 -85.165,7.622C-81.346,3.983 -69.5,4.381 -61.438,4.528C-49.551,4.721 -38.205,4.23 -26.438,2.375ZM-30.563,58.375C-33.008,59.25 -32.979,64.579 -32.653,69.45C-32.327,74.327 -34.022,89.253 -31.556,93.971C-29.091,98.688 -21.809,98.026 -16.731,97.653C-6.566,96.908 21.499,94.617 29.438,89.5C34.636,86.15 36.063,81.417 36.063,77.063C36.063,72.708 33.347,66.584 29.438,63.375C25.528,60.166 16.072,58.104 12.603,57.809C5.576,57.209 -6.318,58.075 -8.785,58.1C-16.045,58.16 -26.82,57.035 -30.563,58.375Z" style="fill:rgb(255,209,80);"/>
                </g>
                <g transform="matrix(1,0,0,1,1823.08,850.946)">
                    <path d="M0,0C6.343,-0.109 12.685,-0.187 19.029,-0.232C21.107,-0.25 23.185,-0.274 25.263,-0.305C28.203,-0.347 31.142,-0.363 34.082,-0.372C34.95,-0.389 35.817,-0.407 36.711,-0.425C43.38,-0.401 51.62,0.049 54.687,5.572C58.44,12.329 58.46,33.79 59.227,40.116C59.364,41.246 59.258,41.805 59.289,43.529C59.297,45.136 59.297,45.136 59.305,46.777C59.314,47.743 59.484,49.308 59.106,51.335C58.469,54.749 55.14,54.299 51.556,54.265C50.665,54.262 49.773,54.258 48.854,54.255C47.892,54.241 46.929,54.228 45.938,54.214C44.444,54.206 44.444,54.206 42.921,54.198C39.731,54.181 36.541,54.149 33.352,54.116C30.183,54.089 27.015,54.064 23.846,54.045C21.875,54.033 19.904,54.016 17.933,53.992C12.972,53.956 7.926,54.582 3.277,54.812C-1.136,55.03 -5.543,55.293 -9.965,55.37C-10.973,55.391 -11.981,55.412 -13.02,55.433C-16.209,55.498 -19.397,55.557 -22.586,55.616C-24.761,55.66 -26.936,55.703 -29.111,55.747C-34.415,55.854 -41.733,53.602 -43.272,55.723C-44.361,57.224 -43.852,64.009 -43.742,66.726C-43.686,67.969 -43.686,67.969 -43.629,69.238C-43.558,70.964 -43.488,72.691 -43.418,74.417C-43.362,75.653 -43.362,75.653 -43.305,76.913C-43.274,77.661 -43.244,78.408 -43.213,79.178C-43.126,81.144 -43.68,82.46 -42.023,83.054C-37.983,84.503 -25.813,84.199 -17.949,84.187C-16.613,84.187 -15.276,84.188 -13.939,84.19C-11.157,84.191 -8.374,84.189 -5.591,84.184C-2.041,84.179 1.509,84.182 5.06,84.188C7.813,84.192 10.566,84.19 13.319,84.188C15.259,84.187 17.199,84.19 19.14,84.193C24.865,84.178 32.056,83.285 35.977,83.054C38.203,82.922 40.434,82.836 42.664,82.804C44.31,82.765 51.994,83.668 52.977,86.054C54.329,89.338 54.139,96.898 54.102,102.429C54.097,103.194 54.092,103.959 54.087,104.748C54.062,107.183 54.022,109.618 53.977,112.054C53.964,112.891 53.951,113.727 53.939,114.59C53.892,117.058 53.815,119.524 53.727,121.991C53.713,122.754 53.699,123.517 53.684,124.303C53.445,129.548 53.393,130.455 51.18,131.995C48.773,133.67 43.609,134.208 39.244,134.351C38.087,134.391 36.93,134.431 35.737,134.472C34.483,134.511 33.23,134.549 31.938,134.589C30.629,134.632 29.32,134.675 27.971,134.719C25.186,134.81 22.4,134.898 19.614,134.984C16.127,135.091 12.64,135.206 9.153,135.323C-8.241,135.904 -38.299,134.307 -41.012,137.178C-44.189,140.542 -42.535,147.749 -42.455,149.724C-42.417,150.594 -42.379,151.465 -42.34,152.363C-42.303,153.237 -42.266,154.112 -42.229,155.013C-41.957,159.042 -44.588,165.166 -41.023,167.054C-37.201,169.078 -26.536,167.136 -19.293,167.158C-15.926,167.168 -12.559,167.183 -9.192,167.205C9.52,167.324 28.129,166.522 46.782,164.695C50.919,164.289 55.503,164.332 57.977,166.054C59.47,167.093 59.106,169.622 59.109,172.152C59.111,172.953 57.599,193.088 57.477,196.116C56.944,208.889 57.762,210.693 55.977,214.054C54.494,216.845 50.952,216.3 46.762,216.284C45.517,216.282 44.273,216.281 42.99,216.279C41.034,216.26 41.034,216.26 39.039,216.241C37.77,216.241 36.501,216.24 35.193,216.24C29.451,216.213 23.769,216.092 18.051,215.558C10.614,214.871 3.188,214.814 -4.273,214.804C-5.022,214.802 -5.77,214.8 -6.541,214.798C-18.076,214.79 -29.482,215.365 -40.961,216.491C-41.648,216.559 -42.336,216.626 -43.044,216.696C-51.101,217.484 -55.668,218.614 -59.023,219.054C-60.399,219.234 -77.31,221.127 -82.023,221.054C-87.367,220.971 -96.596,221.283 -100.023,219.054C-103.281,216.935 -102.434,212.064 -102.586,207.679C-102.646,206.171 -104.157,191.241 -104.169,188.312C-104.178,186.612 -104.178,186.612 -104.188,184.878C-104.189,183.657 -104.19,182.437 -104.191,181.179C-104.195,179.904 -104.198,178.629 -104.201,177.316C-104.207,174.609 -104.209,171.902 -104.209,169.196C-104.209,166.463 -104.215,163.731 -104.229,160.998C-104.297,147.377 -104.254,133.902 -102.757,120.353C-101.763,111.236 -101.632,102.157 -101.648,92.991C-101.647,92.115 -101.646,91.238 -101.645,90.335C-101.654,75.512 -104.629,58.411 -105.567,46.791C-106.27,38.076 -107.234,29.424 -107.273,20.616C-107.294,19.447 -107.315,18.277 -107.336,17.072C-107.344,15.394 -107.344,15.394 -107.352,13.683C-107.361,12.673 -107.591,11.621 -107.38,10.623C-107.116,9.372 -107.027,7.039 -105.766,6.177C-104.505,5.316 -101.805,5.615 -99.812,5.452C-96.751,5.203 -91.534,4.977 -87.398,4.679C-80.221,4.161 -67.05,2.551 -56.749,2.345C-55.464,2.319 -54.179,2.292 -52.855,2.265C-51.708,2.247 -50.56,2.23 -49.378,2.212C-45.873,2.047 -41.9,1.3 -39.023,1.054C-36.727,0.858 -34.42,0.81 -32.117,0.738C-31.124,0.706 -31.124,0.706 -30.111,0.674C-27.916,0.607 -25.72,0.548 -23.523,0.491C-22.38,0.462 -22.38,0.462 -21.214,0.431C-14.143,0.253 -7.072,0.126 0,0Z" style="fill:none;fill-rule:nonzero;stroke:black;stroke-width:48.85px;stroke-linecap:butt;stroke-miterlimit:2;"/>
                    <path d="M0,0C6.343,-0.109 12.685,-0.187 19.029,-0.232C21.107,-0.25 23.185,-0.274 25.263,-0.305C28.203,-0.347 31.142,-0.363 34.082,-0.372C34.95,-0.389 35.817,-0.407 36.711,-0.425C43.38,-0.401 51.62,0.049 54.687,5.572C58.44,12.329 58.46,33.79 59.227,40.116C59.364,41.246 59.258,41.805 59.289,43.529C59.297,45.136 59.297,45.136 59.305,46.777C59.314,47.743 59.484,49.308 59.106,51.335C58.469,54.749 55.14,54.299 51.556,54.265C50.665,54.262 49.773,54.258 48.854,54.255C47.892,54.241 46.929,54.228 45.938,54.214C44.444,54.206 44.444,54.206 42.921,54.198C39.731,54.181 36.541,54.149 33.352,54.116C30.183,54.089 27.015,54.064 23.846,54.045C21.875,54.033 19.904,54.016 17.933,53.992C12.972,53.956 7.926,54.582 3.277,54.812C-1.136,55.03 -5.543,55.293 -9.965,55.37C-10.973,55.391 -11.981,55.412 -13.02,55.433C-16.209,55.498 -19.397,55.557 -22.586,55.616C-24.761,55.66 -26.936,55.703 -29.111,55.747C-34.415,55.854 -41.733,53.602 -43.272,55.723C-44.361,57.224 -43.852,64.009 -43.742,66.726C-43.686,67.969 -43.686,67.969 -43.629,69.238C-43.558,70.964 -43.488,72.691 -43.418,74.417C-43.362,75.653 -43.362,75.653 -43.305,76.913C-43.274,77.661 -43.244,78.408 -43.213,79.178C-43.126,81.144 -43.68,82.46 -42.023,83.054C-37.983,84.503 -25.813,84.199 -17.949,84.187C-16.613,84.187 -15.276,84.188 -13.939,84.19C-11.157,84.191 -8.374,84.189 -5.591,84.184C-2.041,84.179 1.509,84.182 5.06,84.188C7.813,84.192 10.566,84.19 13.319,84.188C15.259,84.187 17.199,84.19 19.14,84.193C24.865,84.178 32.056,83.285 35.977,83.054C38.203,82.922 40.434,82.836 42.664,82.804C44.31,82.765 51.994,83.668 52.977,86.054C54.329,89.338 54.139,96.898 54.102,102.429C54.097,103.194 54.092,103.959 54.087,104.748C54.062,107.183 54.022,109.618 53.977,112.054C53.964,112.891 53.951,113.727 53.939,114.59C53.892,117.058 53.815,119.524 53.727,121.991C53.713,122.754 53.699,123.517 53.684,124.303C53.445,129.548 53.393,130.455 51.18,131.995C48.773,133.67 43.609,134.208 39.244,134.351C38.087,134.391 36.93,134.431 35.737,134.472C34.483,134.511 33.23,134.549 31.938,134.589C30.629,134.632 29.32,134.675 27.971,134.719C25.186,134.81 22.4,134.898 19.614,134.984C16.127,135.091 12.64,135.206 9.153,135.323C-8.241,135.904 -38.299,134.307 -41.012,137.178C-44.189,140.542 -42.535,147.749 -42.455,149.724C-42.417,150.594 -42.379,151.465 -42.34,152.363C-42.303,153.237 -42.266,154.112 -42.229,155.013C-41.957,159.042 -44.588,165.166 -41.023,167.054C-37.201,169.078 -26.536,167.136 -19.293,167.158C-15.926,167.168 -12.559,167.183 -9.192,167.205C9.52,167.324 28.129,166.522 46.782,164.695C50.919,164.289 55.503,164.332 57.977,166.054C59.47,167.093 59.106,169.622 59.109,172.152C59.111,172.953 57.599,193.088 57.477,196.116C56.944,208.889 57.762,210.693 55.977,214.054C54.494,216.845 50.952,216.3 46.762,216.284C45.517,216.282 44.273,216.281 42.99,216.279C41.034,216.26 41.034,216.26 39.039,216.241C37.77,216.241 36.501,216.24 35.193,216.24C29.451,216.213 23.769,216.092 18.051,215.558C10.614,214.871 3.188,214.814 -4.273,214.804C-5.022,214.802 -5.77,214.8 -6.541,214.798C-18.076,214.79 -29.482,215.365 -40.961,216.491C-41.648,216.559 -42.336,216.626 -43.044,216.696C-51.101,217.484 -55.668,218.614 -59.023,219.054C-60.399,219.234 -77.31,221.127 -82.023,221.054C-87.367,220.971 -96.596,221.283 -100.023,219.054C-103.281,216.935 -102.434,212.064 -102.586,207.679C-102.646,206.171 -104.157,191.241 -104.169,188.312C-104.178,186.612 -104.178,186.612 -104.188,184.878C-104.189,183.657 -104.19,182.437 -104.191,181.179C-104.195,179.904 -104.198,178.629 -104.201,177.316C-104.207,174.609 -104.209,171.902 -104.209,169.196C-104.209,166.463 -104.215,163.731 -104.229,160.998C-104.297,147.377 -104.254,133.902 -102.757,120.353C-101.763,111.236 -101.632,102.157 -101.648,92.991C-101.647,92.115 -101.646,91.238 -101.645,90.335C-101.654,75.512 -104.629,58.411 -105.567,46.791C-106.27,38.076 -107.234,29.424 -107.273,20.616C-107.294,19.447 -107.315,18.277 -107.336,17.072C-107.344,15.394 -107.344,15.394 -107.352,13.683C-107.361,12.673 -107.591,11.621 -107.38,10.623C-107.116,9.372 -107.027,7.039 -105.766,6.177C-104.505,5.316 -101.805,5.615 -99.812,5.452C-96.751,5.203 -91.534,4.977 -87.398,4.679C-80.221,4.161 -67.05,2.551 -56.749,2.345C-55.464,2.319 -54.179,2.292 -52.855,2.265C-51.708,2.247 -50.56,2.23 -49.378,2.212C-45.873,2.047 -41.9,1.3 -39.023,1.054C-36.727,0.858 -34.42,0.81 -32.117,0.738C-31.124,0.706 -31.124,0.706 -30.111,0.674C-27.916,0.607 -25.72,0.548 -23.523,0.491C-22.38,0.462 -22.38,0.462 -21.214,0.431C-14.143,0.253 -7.072,0.126 0,0Z" style="fill:rgb(255,209,80);fill-rule:nonzero;"/>
                </g>
                <g transform="matrix(1,0,0,1,1591.4,852.75)">
                    <path d="M0,0C1.326,-0.032 1.326,-0.032 2.678,-0.065C8.916,-0.097 15.821,0.781 18.875,5C21.929,9.219 20.813,21.375 21,25.25C21.051,26.303 18.837,49.261 18.832,59.789C18.829,61.328 18.825,62.868 18.822,64.407C18.816,67.605 18.814,70.804 18.815,74.002C18.815,78.064 18.801,82.126 18.784,86.188C18.773,89.357 18.771,92.526 18.771,95.696C18.77,97.192 18.766,98.689 18.758,100.185C18.719,108.388 19.94,117.493 20.516,124.404C20.995,130.162 21.783,135.891 22.211,141.654C22.611,146.689 21.952,159.336 25,162.25C27.253,164.405 45.67,161.892 54.572,161.755C59.149,161.684 63.726,161.61 68.303,161.526C72.718,161.446 77.134,161.376 81.55,161.312C83.236,161.286 84.922,161.257 86.608,161.224C88.966,161.178 99.36,160.562 102.696,164.849C104.882,167.659 104.549,172.733 104.563,173.75C104.683,180.361 106.105,188.151 106.552,192.964C106.852,196.179 107.346,203.251 107.266,206.148C107.18,209.24 106.968,211.811 105,213.25C103.032,214.689 98.783,214.611 95.458,214.781C94.319,214.844 94.319,214.844 93.157,214.907C85.76,215.295 78.36,215.519 70.955,215.696C68.587,215.752 66.219,215.812 63.851,215.873C58.817,216.002 53.783,216.105 48.75,216.25C37.871,216.563 23.658,216.823 -1.422,217.75C-2.22,217.785 -3.018,217.821 -3.841,217.857C-8.278,218.081 -13.432,218.966 -17,219.25C-19.743,219.468 -22.491,219.524 -25.25,219.563C-25.956,219.592 -26.663,219.621 -27.391,219.65C-30.541,219.689 -33.478,219.439 -34.965,217.633C-36.452,215.826 -36.362,212.199 -36.313,208.813C-36.303,208.158 -36.294,207.504 -36.285,206.83C-36.134,200.547 -35.21,194.337 -34.787,188.082C-34.302,180.912 -33.635,171.927 -33.375,163.813C-33.335,162.581 -33.295,161.35 -33.254,160.082C-32.943,149.351 -33.25,136.996 -33.438,127.875C-33.592,120.363 -34.176,112.871 -34.381,105.355C-34.717,93.158 -35.247,80.991 -36,68.813C-36.798,55.857 -37.52,42.906 -37.908,29.93C-37.997,27.345 -40.619,9.702 -35.375,5.813C-27.499,-0.029 -10.634,0.143 0,0Z" style="fill:none;fill-rule:nonzero;stroke:black;stroke-width:48.85px;stroke-linecap:butt;stroke-miterlimit:2;"/>
                    <path d="M0,0C1.326,-0.032 1.326,-0.032 2.678,-0.065C8.916,-0.097 15.821,0.781 18.875,5C21.929,9.219 20.813,21.375 21,25.25C21.051,26.303 18.837,49.261 18.832,59.789C18.829,61.328 18.825,62.868 18.822,64.407C18.816,67.605 18.814,70.804 18.815,74.002C18.815,78.064 18.801,82.126 18.784,86.188C18.773,89.357 18.771,92.526 18.771,95.696C18.77,97.192 18.766,98.689 18.758,100.185C18.719,108.388 19.94,117.493 20.516,124.404C20.995,130.162 21.783,135.891 22.211,141.654C22.611,146.689 21.952,159.336 25,162.25C27.253,164.405 45.67,161.892 54.572,161.755C59.149,161.684 63.726,161.61 68.303,161.526C72.718,161.446 77.134,161.376 81.55,161.312C83.236,161.286 84.922,161.257 86.608,161.224C88.966,161.178 99.36,160.562 102.696,164.849C104.882,167.659 104.549,172.733 104.563,173.75C104.683,180.361 106.105,188.151 106.552,192.964C106.852,196.179 107.346,203.251 107.266,206.148C107.18,209.24 106.968,211.811 105,213.25C103.032,214.689 98.783,214.611 95.458,214.781C94.319,214.844 94.319,214.844 93.157,214.907C85.76,215.295 78.36,215.519 70.955,215.696C68.587,215.752 66.219,215.812 63.851,215.873C58.817,216.002 53.783,216.105 48.75,216.25C37.871,216.563 23.658,216.823 -1.422,217.75C-2.22,217.785 -3.018,217.821 -3.841,217.857C-8.278,218.081 -13.432,218.966 -17,219.25C-19.743,219.468 -22.491,219.524 -25.25,219.563C-25.956,219.592 -26.663,219.621 -27.391,219.65C-30.541,219.689 -33.478,219.439 -34.965,217.633C-36.452,215.826 -36.362,212.199 -36.313,208.813C-36.303,208.158 -36.294,207.504 -36.285,206.83C-36.134,200.547 -35.21,194.337 -34.787,188.082C-34.302,180.912 -33.635,171.927 -33.375,163.813C-33.335,162.581 -33.295,161.35 -33.254,160.082C-32.943,149.351 -33.25,136.996 -33.438,127.875C-33.592,120.363 -34.176,112.871 -34.381,105.355C-34.717,93.158 -35.247,80.991 -36,68.813C-36.798,55.857 -37.52,42.906 -37.908,29.93C-37.997,27.345 -40.619,9.702 -35.375,5.813C-27.499,-0.029 -10.634,0.143 0,0Z" style="fill:rgb(255,209,80);fill-rule:nonzero;"/>
                </g>
                <g transform="matrix(1,0,0,1,939.089,856.307)">
                    <path d="M0,0C3.628,-0.02 7.257,0.035 10.88,-0.145C14.205,-0.309 16.16,-0.346 17.856,-0.176C25.529,0.593 32.959,2.782 36.23,4.904C38.696,6.503 39.589,9.513 40.739,12.48C42.397,16.585 44.521,20.202 46.497,24.02C48.924,28.707 53.577,37.304 55.302,40.605C55.853,41.661 56.379,42.732 56.846,43.828C59.841,50.857 68.091,69.665 73.274,82.781C74.574,86.062 75.887,89.337 77.208,92.609C81.174,102.504 86.227,116.941 88.29,122.563C88.749,123.812 89.16,125.078 89.588,126.338C92.662,135.398 101.048,160.054 106.738,176.925C107.955,180.532 109.172,184.138 110.391,187.743C111.067,189.744 111.872,192.137 112.415,193.748C112.826,194.967 113.265,196.263 113.651,197.406C114.012,198.473 114.346,199.549 114.731,200.607C115.264,202.075 116.098,204.362 116.851,206.213C117.805,208.649 117.926,211.566 118.052,213.105C118.306,216.225 116.233,219.563 114.739,220.48C113.245,221.398 110.651,220.822 109.138,220.9C107.98,220.96 106.819,220.941 105.659,220.949C104.453,220.957 103.153,220.945 101.899,220.949C100.63,220.953 99.326,220.969 98.04,220.972C96.049,220.978 92.648,220.987 89.952,220.981C86.501,220.976 83.051,221.006 79.599,221.047C76.303,221.079 71.985,221.061 69.712,221.074C68.461,221.081 67.166,221.12 65.959,221.124C64.796,221.127 63.561,221.153 62.47,221.096C56.998,220.808 54.11,217.761 52.739,215.48C51.368,213.2 51.554,210.202 51.177,207.418C50.943,205.903 50.643,204.007 50.466,202.875C50.348,202.124 50.279,201.365 50.111,200.624C49.582,198.278 47.852,191.658 47.29,188.801C46.946,187.051 47.251,184.006 44.816,183.628C41.992,183.191 18.497,187.254 5.974,187.989C2.911,188.169 -0.15,188.364 -3.212,188.561C-13.91,189.229 -31.642,185.996 -35.834,191.496C-38.686,195.238 -42.856,210.816 -46.261,215.48C-48.377,218.38 -54.39,220.251 -59.261,220.48C-64.917,220.747 -79.934,220.37 -90.237,219.736C-92.419,219.603 -94.602,219.485 -96.784,219.367C-98.196,219.283 -99.682,219.193 -101.019,219.113C-102.28,219.038 -103.564,219.138 -104.804,218.891C-107.011,218.452 -111.445,218.622 -113.314,216.544C-114.233,215.522 -113.614,211.355 -113.261,210.48C-112.542,208.699 -111.66,204.717 -110.948,201.793C-109.378,195.558 -107.68,189.431 -105.573,183.355C-103.996,178.782 -102.823,173.158 -101.751,169.584C-100.974,166.997 -99.96,164.487 -99.139,161.914C-97.747,157.548 -95.467,149.512 -93.397,143.387C-91.275,137.105 -89.115,130.53 -86.405,124.223C-85.435,121.898 -84.591,119.601 -83.823,117.203C-81.618,110.33 -78.885,103.64 -76.261,96.918C-75.455,94.85 -74.65,92.781 -73.846,90.713C-73.117,88.839 -72.386,86.965 -71.655,85.092C-70.682,82.571 -69.725,80.048 -68.784,77.515C-67.296,73.537 -65.014,68.017 -64.081,65.684C-63.791,64.958 -63.486,64.239 -63.188,63.517C-62.572,62.025 -61.32,58.992 -60.386,56.73C-59.767,55.231 -59.149,53.731 -58.53,52.23C-55.855,45.745 -53.171,39.264 -50.452,32.797C-48.851,28.959 -46.967,23.605 -46.073,21.168C-45.711,20.181 -45.379,19.182 -45.089,18.172C-44.631,16.578 -44.335,13.634 -43.323,11.605C-42.019,8.99 -40.788,3.425 -37.261,2.48C-30.04,0.546 -12.144,0.04 0,0ZM-1.261,58.48C-1.807,59.414 -2.234,62.761 -2.536,64.084C-2.714,64.862 -2.9,65.658 -3.073,66.418C-3.242,67.16 -3.406,67.904 -3.575,68.646C-3.745,69.391 -3.881,70.148 -4.093,70.883C-4.737,73.118 -6.19,78.358 -7.439,82.059C-7.971,83.627 -8.636,85.6 -9.029,86.765C-9.285,87.525 -9.541,88.286 -9.795,89.047C-10.481,91.103 -12.035,95.747 -13.146,99.1C-13.745,100.914 -14.346,102.729 -14.948,104.543C-15.861,107.252 -17.074,110.887 -17.67,112.674C-17.957,113.537 -18.315,114.38 -18.522,115.266C-19.16,117.986 -21.205,125.958 -21.494,128.994C-21.642,130.538 -21.803,133.317 -20.261,133.48C-13.222,134.228 15.333,140.065 20.739,133.48C26.146,126.896 21.03,120.435 12.178,93.973C11.301,91.354 10.432,88.732 9.565,86.109C9,84.397 8.434,82.685 7.868,80.973C5.625,74.213 2.572,64.374 1.384,60.625C1.158,59.914 1.18,58.838 0.739,58.48C0.299,58.123 -0.924,57.905 -1.261,58.48Z" style="fill:none;stroke:black;stroke-width:48.85px;stroke-linecap:butt;stroke-miterlimit:2;"/>
                    <path d="M0,0C3.628,-0.02 7.257,0.035 10.88,-0.145C14.205,-0.309 16.16,-0.346 17.856,-0.176C25.529,0.593 32.959,2.782 36.23,4.904C38.696,6.503 39.589,9.513 40.739,12.48C42.397,16.585 44.521,20.202 46.497,24.02C48.924,28.707 53.577,37.304 55.302,40.605C55.853,41.661 56.379,42.732 56.846,43.828C59.841,50.857 68.091,69.665 73.274,82.781C74.574,86.062 75.887,89.337 77.208,92.609C81.174,102.504 86.227,116.941 88.29,122.563C88.749,123.812 89.16,125.078 89.588,126.338C92.662,135.398 101.048,160.054 106.738,176.925C107.955,180.532 109.172,184.138 110.391,187.743C111.067,189.744 111.872,192.137 112.415,193.748C112.826,194.967 113.265,196.263 113.651,197.406C114.012,198.473 114.346,199.549 114.731,200.607C115.264,202.075 116.098,204.362 116.851,206.213C117.805,208.649 117.926,211.566 118.052,213.105C118.306,216.225 116.233,219.563 114.739,220.48C113.245,221.398 110.651,220.822 109.138,220.9C107.98,220.96 106.819,220.941 105.659,220.949C104.453,220.957 103.153,220.945 101.899,220.949C100.63,220.953 99.326,220.969 98.04,220.972C96.049,220.978 92.648,220.987 89.952,220.981C86.501,220.976 83.051,221.006 79.599,221.047C76.303,221.079 71.985,221.061 69.712,221.074C68.461,221.081 67.166,221.12 65.959,221.124C64.796,221.127 63.561,221.153 62.47,221.096C56.998,220.808 54.11,217.761 52.739,215.48C51.368,213.2 51.554,210.202 51.177,207.418C50.943,205.903 50.643,204.007 50.466,202.875C50.348,202.124 50.279,201.365 50.111,200.624C49.582,198.278 47.852,191.658 47.29,188.801C46.946,187.051 47.251,184.006 44.816,183.628C41.992,183.191 18.497,187.254 5.974,187.989C2.911,188.169 -0.15,188.364 -3.212,188.561C-13.91,189.229 -31.642,185.996 -35.834,191.496C-38.686,195.238 -42.856,210.816 -46.261,215.48C-48.377,218.38 -54.39,220.251 -59.261,220.48C-64.917,220.747 -79.934,220.37 -90.237,219.736C-92.419,219.603 -94.602,219.485 -96.784,219.367C-98.196,219.283 -99.682,219.193 -101.019,219.113C-102.28,219.038 -103.564,219.138 -104.804,218.891C-107.011,218.452 -111.445,218.622 -113.314,216.544C-114.233,215.522 -113.614,211.355 -113.261,210.48C-112.542,208.699 -111.66,204.717 -110.948,201.793C-109.378,195.558 -107.68,189.431 -105.573,183.355C-103.996,178.782 -102.823,173.158 -101.751,169.584C-100.974,166.997 -99.96,164.487 -99.139,161.914C-97.747,157.548 -95.467,149.512 -93.397,143.387C-91.275,137.105 -89.115,130.53 -86.405,124.223C-85.435,121.898 -84.591,119.601 -83.823,117.203C-81.618,110.33 -78.885,103.64 -76.261,96.918C-75.455,94.85 -74.65,92.781 -73.846,90.713C-73.117,88.839 -72.386,86.965 -71.655,85.092C-70.682,82.571 -69.725,80.048 -68.784,77.515C-67.296,73.537 -65.014,68.017 -64.081,65.684C-63.791,64.958 -63.486,64.239 -63.188,63.517C-62.572,62.025 -61.32,58.992 -60.386,56.73C-59.767,55.231 -59.149,53.731 -58.53,52.23C-55.855,45.745 -53.171,39.264 -50.452,32.797C-48.851,28.959 -46.967,23.605 -46.073,21.168C-45.711,20.181 -45.379,19.182 -45.089,18.172C-44.631,16.578 -44.335,13.634 -43.323,11.605C-42.019,8.99 -40.788,3.425 -37.261,2.48C-30.04,0.546 -12.144,0.04 0,0ZM-1.261,58.48C-1.807,59.414 -2.234,62.761 -2.536,64.084C-2.714,64.862 -2.9,65.658 -3.073,66.418C-3.242,67.16 -3.406,67.904 -3.575,68.646C-3.745,69.391 -3.881,70.148 -4.093,70.883C-4.737,73.118 -6.19,78.358 -7.439,82.059C-7.971,83.627 -8.636,85.6 -9.029,86.765C-9.285,87.525 -9.541,88.286 -9.795,89.047C-10.481,91.103 -12.035,95.747 -13.146,99.1C-13.745,100.914 -14.346,102.729 -14.948,104.543C-15.861,107.252 -17.074,110.887 -17.67,112.674C-17.957,113.537 -18.315,114.38 -18.522,115.266C-19.16,117.986 -21.205,125.958 -21.494,128.994C-21.642,130.538 -21.803,133.317 -20.261,133.48C-13.222,134.228 15.333,140.065 20.739,133.48C26.146,126.896 21.03,120.435 12.178,93.973C11.301,91.354 10.432,88.732 9.565,86.109C9,84.397 8.434,82.685 7.868,80.973C5.625,74.213 2.572,64.374 1.384,60.625C1.158,59.914 1.18,58.838 0.739,58.48C0.299,58.123 -0.924,57.905 -1.261,58.48Z" style="fill:rgb(255,209,80);"/>
                </g>
                <g transform="matrix(1,0,0,1,1958.17,853.475)">
                    <path d="M0,0C1.1,-0.015 2.199,0.02 3.299,0.033C7.631,0.086 18.426,0.209 25.989,0.319C28.552,0.356 31.115,0.39 33.679,0.421C91.704,1.15 94.493,5.454 110.547,19.051C126.6,32.647 133.881,54.608 130,82C127.143,102.163 113.666,119.63 96.12,126.38C93.479,127.396 85.226,131.628 85,135C84.475,142.836 105.608,165.768 112.691,177.289C118.043,185.993 125.434,198.64 127.5,204.125C128.268,206.164 126.989,209.139 125.086,210.199C122.523,211.626 117.039,212.634 112.125,212.688C110.378,212.73 100.458,213.593 98.508,213.504C91.619,213.189 70.72,214.053 63,211C57.062,208.652 54.257,198.344 52.188,195.188C51.545,194.207 51.111,193.105 50.584,192.059C49.039,188.992 45.44,181.892 42.915,176.785C41.295,173.514 32.979,151.975 27.656,147.106C25.982,145.576 11.507,135.379 2,141C-2.789,143.832 -1.484,152.889 0.05,169.405C0.966,179.254 1.136,180 1.924,187.826C2.308,191.641 4.442,207.422 -0.171,213.865C-2.316,216.861 -7.119,216.17 -9.137,216.539C-9.812,216.663 -10.509,216.568 -11.196,216.575C-12.621,216.589 -15.523,216.619 -17.688,216.625C-20.525,216.647 -37.782,218.172 -41.904,218.545C-45.591,218.879 -51.492,219.342 -53.592,217.915C-57.715,215.114 -56.658,194.537 -56.695,190.859C-56.732,188.299 -56.77,185.738 -56.81,183.178C-56.901,177.108 -56.979,171.038 -57.05,164.968C-57.186,153.498 -57.876,142.024 -57.518,130.559C-56.967,112.965 -55.809,102.594 -54.95,82.292C-54.508,71.845 -58.888,27.862 -58.79,23.125C-58.764,21.72 -58.743,20.315 -58.73,18.91C-58.709,16.982 -59.733,6.246 -54,2C-49.751,-1.148 -8.203,0.108 0,0ZM2,50C-2.741,53.116 0.492,69.113 0.587,72.982C0.696,77.457 1.948,90.799 5,93C18.664,102.852 48.001,91.252 61,77.188C63.571,74.405 64.564,69.45 63,66C61.009,61.61 52.221,51.13 38.807,51C32.244,50.936 7.039,46.688 2,50Z" style="fill:none;stroke:black;stroke-width:48.85px;stroke-linecap:butt;stroke-miterlimit:2;"/>
                    <path d="M0,0C1.1,-0.015 2.199,0.02 3.299,0.033C7.631,0.086 18.426,0.209 25.989,0.319C28.552,0.356 31.115,0.39 33.679,0.421C91.704,1.15 94.493,5.454 110.547,19.051C126.6,32.647 133.881,54.608 130,82C127.143,102.163 113.666,119.63 96.12,126.38C93.479,127.396 85.226,131.628 85,135C84.475,142.836 105.608,165.768 112.691,177.289C118.043,185.993 125.434,198.64 127.5,204.125C128.268,206.164 126.989,209.139 125.086,210.199C122.523,211.626 117.039,212.634 112.125,212.688C110.378,212.73 100.458,213.593 98.508,213.504C91.619,213.189 70.72,214.053 63,211C57.062,208.652 54.257,198.344 52.188,195.188C51.545,194.207 51.111,193.105 50.584,192.059C49.039,188.992 45.44,181.892 42.915,176.785C41.295,173.514 32.979,151.975 27.656,147.106C25.982,145.576 11.507,135.379 2,141C-2.789,143.832 -1.484,152.889 0.05,169.405C0.966,179.254 1.136,180 1.924,187.826C2.308,191.641 4.442,207.422 -0.171,213.865C-2.316,216.861 -7.119,216.17 -9.137,216.539C-9.812,216.663 -10.509,216.568 -11.196,216.575C-12.621,216.589 -15.523,216.619 -17.688,216.625C-20.525,216.647 -37.782,218.172 -41.904,218.545C-45.591,218.879 -51.492,219.342 -53.592,217.915C-57.715,215.114 -56.658,194.537 -56.695,190.859C-56.732,188.299 -56.77,185.738 -56.81,183.178C-56.901,177.108 -56.979,171.038 -57.05,164.968C-57.186,153.498 -57.876,142.024 -57.518,130.559C-56.967,112.965 -55.809,102.594 -54.95,82.292C-54.508,71.845 -58.888,27.862 -58.79,23.125C-58.764,21.72 -58.743,20.315 -58.73,18.91C-58.709,16.982 -59.733,6.246 -54,2C-49.751,-1.148 -8.203,0.108 0,0ZM2,50C-2.741,53.116 0.492,69.113 0.587,72.982C0.696,77.457 1.948,90.799 5,93C18.664,102.852 48.001,91.252 61,77.188C63.571,74.405 64.564,69.45 63,66C61.009,61.61 52.221,51.13 38.807,51C32.244,50.936 7.039,46.688 2,50Z" style="fill:rgb(255,209,80);"/>
                </g>
                <g transform="matrix(1,0,0,1,2193.16,845.787)">
                    <path d="M0,0C0.797,0.006 1.593,0.012 2.414,0.018C14.298,0.133 24.726,1.301 35.851,5.712C38.881,6.855 41.945,7.816 45.039,8.773C76.48,18.576 82.313,22.624 85.676,30.476C88.107,36.151 81.53,47.109 79.875,50.125C76.618,55.944 72.972,61.43 69.125,66.875C68.609,67.606 68.094,68.337 67.562,69.09C63.026,75.425 62.458,76.255 60.438,77.688C59.078,78.652 56.771,78.188 55.438,77.688C54.113,77.191 37.387,63.781 20.023,59.844C14.98,58.7 10.233,57.505 4.688,57.5C3.527,57.482 3.527,57.482 2.344,57.463C-5.124,57.444 -22.417,58.12 -21.563,67.688C-20.539,79.155 33.357,82.302 45.438,88.688C46.568,89.266 47.699,89.845 48.863,90.441C67.573,100.688 87.342,123.146 93.438,138.688C99.001,152.871 93.368,170.023 85.438,183.688C75.461,199.038 61.169,211.852 44.199,215.738C21.223,221 -24.483,225.882 -52.418,215.258C-60.026,212.2 -67.151,208.384 -74.188,204.188C-74.934,203.749 -75.68,203.311 -76.448,202.859C-81.317,199.856 -87.148,196.995 -88.563,191.688C-90.019,186.221 -87.993,176.325 -83.648,167.598C-81.393,163.066 -72.539,148.148 -70.563,145.688C-67.337,141.673 -64.43,139.438 -58.137,140.318C-55.757,140.651 -50.817,143.854 -48.563,144.688C-37.645,148.725 -12.917,166.422 10.944,164.913C18.316,164.246 30.242,162.103 31.438,158.688C32.92,154.452 28.272,150.782 25.016,148.375C21.182,145.542 14.247,143.393 8.438,141.688C7.49,141.409 6.542,141.13 5.565,140.843C-5.249,137.694 -20.847,133.985 -27.109,132.293C-28.768,131.845 -29.563,131.688 -32.008,130.691C-34.881,129.562 -37.855,129.393 -40.688,128.438C-58.276,122.506 -75.372,108.772 -81.563,89.688C-81.962,88.455 -85.04,75.804 -85,70.313C-85.02,69.335 -85.04,68.358 -85.061,67.352C-85.056,60.315 -79.848,46.993 -79.48,46.12C-72.232,29.062 -50.445,10.759 -27.83,4.429C-18.784,1.897 -10.083,-0.151 0,0Z" style="fill:none;fill-rule:nonzero;stroke:black;stroke-width:48.85px;stroke-linecap:butt;stroke-miterlimit:2;"/>
                    <path d="M0,0C0.797,0.006 1.593,0.012 2.414,0.018C14.298,0.133 24.726,1.301 35.851,5.712C38.881,6.855 41.945,7.816 45.039,8.773C76.48,18.576 82.313,22.624 85.676,30.476C88.107,36.151 81.53,47.109 79.875,50.125C76.618,55.944 72.972,61.43 69.125,66.875C68.609,67.606 68.094,68.337 67.562,69.09C63.026,75.425 62.458,76.255 60.438,77.688C59.078,78.652 56.771,78.188 55.438,77.688C54.113,77.191 37.387,63.781 20.023,59.844C14.98,58.7 10.233,57.505 4.688,57.5C3.527,57.482 3.527,57.482 2.344,57.463C-5.124,57.444 -22.417,58.12 -21.563,67.688C-20.539,79.155 33.357,82.302 45.438,88.688C46.568,89.266 47.699,89.845 48.863,90.441C67.573,100.688 87.342,123.146 93.438,138.688C99.001,152.871 93.368,170.023 85.438,183.688C75.461,199.038 61.169,211.852 44.199,215.738C21.223,221 -24.483,225.882 -52.418,215.258C-60.026,212.2 -67.151,208.384 -74.188,204.188C-74.934,203.749 -75.68,203.311 -76.448,202.859C-81.317,199.856 -87.148,196.995 -88.563,191.688C-90.019,186.221 -87.993,176.325 -83.648,167.598C-81.393,163.066 -72.539,148.148 -70.563,145.688C-67.337,141.673 -64.43,139.438 -58.137,140.318C-55.757,140.651 -50.817,143.854 -48.563,144.688C-37.645,148.725 -12.917,166.422 10.944,164.913C18.316,164.246 30.242,162.103 31.438,158.688C32.92,154.452 28.272,150.782 25.016,148.375C21.182,145.542 14.247,143.393 8.438,141.688C7.49,141.409 6.542,141.13 5.565,140.843C-5.249,137.694 -20.847,133.985 -27.109,132.293C-28.768,131.845 -29.563,131.688 -32.008,130.691C-34.881,129.562 -37.855,129.393 -40.688,128.438C-58.276,122.506 -75.372,108.772 -81.563,89.688C-81.962,88.455 -85.04,75.804 -85,70.313C-85.02,69.335 -85.04,68.358 -85.061,67.352C-85.056,60.315 -79.848,46.993 -79.48,46.12C-72.232,29.062 -50.445,10.759 -27.83,4.429C-18.784,1.897 -10.083,-0.151 0,0Z" style="fill:rgb(255,209,80);fill-rule:nonzero;"/>
                </g>
            </g>
        </g>
    </g>
</svg>
