<?xml version="1.0" encoding="UTF-8" standalone="no"?>
<!DOCTYPE svg PUBLIC "-//W3C//DTD SVG 1.1//EN" "http://www.w3.org/Graphics/SVG/1.1/DTD/svg11.dtd">
<svg width="100%" height="100%" viewBox="0 0 127 126" version="1.1" xmlns="http://www.w3.org/2000/svg" xmlns:xlink="http://www.w3.org/1999/xlink" xml:space="preserve" xmlns:serif="http://www.serif.com/" style="fill-rule:evenodd;clip-rule:evenodd;stroke-linejoin:round;stroke-miterlimit:2;">
    <g transform="matrix(1,0,0,1,-23.2125,-68.0005)">
        <g transform="matrix(1.0062,0,0,1.0062,580.436,-0.421886)">
            <g transform="matrix(0.156105,0,0,0.156105,-436.732,131.324)">
                <path d="M0,-9.045C0.176,-21.102 -0.819,-36.244 -2.802,-51.34C-5.831,-74.414 -11.31,-96.882 -18.971,-118.843C-39.684,-178.223 -74.834,-227.843 -121.325,-269.683C-145.167,-291.139 -172.135,-307.928 -201.236,-321.318C-228.84,-334.018 -257.679,-342.799 -287.573,-348.112C-302.388,-350.746 -317.327,-352.444 -332.371,-353.017C-354.965,-353.876 -377.452,-352.642 -399.843,-349.438C-416.173,-347.102 -432.294,-343.827 -448.12,-339.182C-483.568,-328.777 -516.302,-312.663 -546.757,-291.858C-585.053,-265.696 -616.36,-232.704 -641.849,-194.076C-664.372,-159.943 -680.148,-122.92 -689.179,-83.044C-692.716,-67.431 -695.104,-51.631 -696.374,-35.658C-697.287,-24.166 -697.872,-12.662 -697.626,-1.144C-697.438,7.646 -696.868,16.432 -696.273,25.207C-695.407,37.989 -693.398,50.623 -690.85,63.17C-686.027,86.914 -678.494,109.804 -669.198,132.152C-657.832,159.475 -643.455,185.027 -625.161,208.349C-607.187,231.264 -586.383,251.303 -563.666,269.431C-506.489,315.058 -441.46,340.082 -368.324,343.578C-339.8,344.942 -311.419,343.402 -283.259,338.281C-248.187,331.903 -215.012,320.25 -183.763,303.109C-153.817,286.683 -127.107,265.961 -102.644,242.216C-59.506,200.345 -30.563,150.003 -13.517,92.634C-3.974,60.521 0.087,27.589 0,-9.045M-749.847,-2.515C-749.589,-64.861 -736.709,-124.362 -709.651,-180.662C-693.172,-214.949 -671.589,-245.752 -646.052,-273.864C-610.128,-313.409 -568.374,-345.125 -519.945,-367.89C-488.962,-382.454 -456.636,-392.877 -422.947,-398.966C-397.071,-403.643 -370.952,-405.83 -344.658,-405.635C-229.338,-404.78 -124.836,-353.66 -55.839,-279.604C-13.261,-233.904 16.78,-180.904 35.288,-121.316C41.321,-101.893 45.761,-82.086 48.57,-61.947C51.892,-38.135 53.084,-14.207 52.071,9.841C51.492,23.598 50.477,37.308 48.608,50.939C44.333,82.114 36.536,112.385 24.898,141.644C8.152,183.744 -14.429,222.361 -43.879,256.875C-75.278,293.672 -112.483,323.301 -154.709,346.765C-189.351,366.016 -226.039,379.736 -264.84,387.763C-278.153,390.517 -291.578,392.582 -305.111,393.986C-321.835,395.72 -338.587,396.785 -355.401,396.47C-440.672,394.87 -517.787,369.017 -586.535,318.473C-612.016,299.739 -635.37,278.675 -655.755,254.409C-679.789,225.801 -699.011,194.209 -714.367,160.205C-726.315,133.747 -735.649,106.424 -741.641,77.989C-744.645,63.738 -746.866,49.377 -748.163,34.864C-749.274,22.427 -749.906,9.976 -749.847,-2.515" style="fill:white;fill-rule:nonzero;"/>
            </g>
            <g transform="matrix(0.156105,0,0,0.156105,-464.514,123.938)">
                <path d="M0,86.476C0.792,86.899 1.325,87.243 1.901,87.483C7.202,89.695 12.585,91.73 17.798,94.131C24.18,97.07 30.43,100.296 36.721,103.429C40.731,105.426 44.757,107.405 49.164,108.345C51.017,108.74 52.969,108.97 54.852,108.861C58.808,108.634 61.286,106.135 61.705,102.179C61.873,100.595 61.914,98.981 61.826,97.391C61.444,90.489 61.997,83.667 63.306,76.886C63.603,75.349 63.993,73.748 63.21,71.992C62.325,72.205 61.423,72.415 60.525,72.64C58.05,73.261 55.61,74.128 53.098,74.463C47.403,75.223 41.681,75.805 35.957,76.308C28.321,76.978 20.642,77.243 13.152,79.103C9.081,80.114 5.216,81.578 1.932,84.269C1.233,84.84 0.721,85.639 0,86.476M-144.689,-99.344C-144.401,-99.506 -144.114,-99.667 -143.827,-99.829C-142.158,-97.915 -140.431,-96.047 -138.83,-94.078C-127.289,-79.877 -120.831,-63.685 -119.52,-45.389C-118.767,-34.879 -120.021,-24.672 -122.888,-14.566C-124.5,-8.886 -126.112,-3.145 -126.954,2.679C-129.195,18.189 -124.655,31.432 -112.716,41.895C-108.967,45.181 -104.837,47.906 -100.454,50.259C-94.375,53.522 -87.976,56.006 -81.41,58.095C-64.519,63.47 -47.115,65.816 -29.49,66.603C-16.222,67.195 -2.95,67.085 10.307,65.884C23.073,64.728 35.682,62.693 48.149,59.779C53.45,58.54 58.593,56.768 63.397,54.126C68.884,51.107 73.102,46.927 75.772,41.182C78.751,34.773 81.127,28.164 82.537,21.245C83.109,18.439 83.412,15.546 83.504,12.681C83.655,8.018 81.773,4.282 77.659,1.874C75.592,0.665 73.471,-0.458 71.334,-1.54C67.483,-3.49 63.564,-5.309 59.749,-7.325C57.78,-8.365 55.898,-9.61 54.114,-10.946C52.141,-12.423 50.87,-14.457 50.335,-16.898C49.985,-18.496 50.918,-19.884 52.572,-19.829C54.139,-19.776 55.714,-19.412 57.25,-19.04C66.333,-16.839 75.503,-15.797 84.845,-16.791C86.908,-17.011 88.937,-17.308 90.781,-18.366C90.86,-18.932 91.018,-19.401 90.975,-19.851C90.449,-25.357 88.151,-30.052 83.953,-33.601C81.161,-35.961 78.076,-38.012 74.967,-39.952C68.455,-44.015 61.827,-47.891 55.271,-51.883C39.699,-61.365 24.145,-70.875 8.572,-80.357C7.098,-81.255 5.552,-82.033 4.117,-82.823C3.689,-82.362 3.379,-82.173 3.289,-81.91C1.571,-76.854 -2.271,-75.271 -7.215,-75.35C-11.44,-75.417 -15.429,-76.543 -19.361,-77.918C-28.163,-80.996 -36.384,-85.248 -44.147,-90.393C-44.702,-90.761 -45.682,-90.936 -45.288,-92.137C-44.19,-91.925 -43.093,-91.781 -42.034,-91.495C-37.065,-90.153 -31.98,-89.583 -26.867,-89.299C-22.369,-89.049 -17.906,-89.44 -13.605,-90.886C-10.67,-91.873 -8.106,-93.46 -6.227,-96C-4.422,-98.44 -3.697,-100.995 -4.614,-104.085C-6.844,-111.599 -10.507,-118.223 -16.063,-123.779C-19.591,-127.307 -23.512,-130.357 -27.839,-132.803C-32.706,-135.554 -37.63,-138.242 -42.697,-140.597C-58.355,-147.875 -74.092,-154.985 -89.805,-162.144C-90.344,-162.39 -90.96,-162.468 -91.595,-162.639C-92.592,-161.353 -93.458,-160.216 -94.346,-159.096C-99.672,-152.384 -105.957,-146.766 -113.38,-142.454C-114.014,-142.085 -114.685,-141.446 -115.522,-142.353C-114.261,-144.364 -112.973,-146.383 -111.72,-148.424C-108.951,-152.937 -106.514,-157.619 -105.089,-162.743C-100.485,-179.298 -103.951,-193.794 -116.555,-205.696C-119.667,-208.635 -123.307,-211.075 -126.92,-213.411C-131.493,-216.367 -136.499,-218.534 -141.594,-220.469C-162.495,-228.409 -184.213,-231.75 -206.473,-231.545C-226.581,-231.36 -246.288,-228.255 -265.471,-222.128C-280.323,-217.384 -294.439,-211.058 -307.319,-202.174C-324.736,-190.16 -338.46,-174.738 -349.16,-156.568C-359.772,-138.548 -367.549,-119.33 -373.213,-99.23C-379.076,-78.423 -382.851,-57.175 -386.664,-35.931C-388.781,-24.132 -390.884,-12.322 -393.433,-0.613C-397.813,19.512 -406.152,37.884 -418.797,54.23C-421.831,58.152 -424.792,62.131 -427.767,66.099C-428.701,67.345 -429.571,68.641 -431,70.662C-429.148,70.072 -428.1,69.84 -427.138,69.415C-409.115,61.454 -392.884,50.804 -378.734,37.051C-368.694,27.293 -360.147,16.364 -353.054,4.292C-352.478,3.312 -352.213,1.962 -350.471,1.563C-351.019,5.332 -351.493,8.802 -352.033,12.261C-355.222,32.702 -360.105,52.719 -367.742,71.97C-378.127,98.145 -392.022,122.014 -413.93,140.453C-414.419,140.865 -415.255,141.385 -414.449,142.443C-411.845,141.582 -409.539,140.16 -407.161,138.904C-365.392,116.836 -334.497,84.487 -315.027,41.363C-311.935,34.515 -308.97,27.609 -305.981,20.715C-301.846,11.179 -297.674,1.66 -292.655,-7.458C-285.189,-21.024 -275.94,-33.199 -264.364,-43.536C-255.202,-51.718 -244.886,-58.029 -233.384,-62.373C-232.431,-62.733 -231.456,-63.458 -230.174,-62.296C-231.308,-61.093 -232.371,-59.936 -233.465,-58.808C-242.718,-49.263 -251.389,-39.225 -259.289,-28.521C-283.993,4.949 -297.63,42.441 -300.047,83.954C-301.4,107.199 -300.102,130.294 -295.697,153.213C-290.904,178.158 -283.073,202.087 -272.417,225.116C-271.76,226.534 -270.972,227.891 -270.246,229.277C-269.824,228.311 -269.933,227.549 -270.107,226.803C-271.78,219.624 -272.957,212.366 -273.304,205.001C-273.817,194.107 -273.413,183.258 -271.464,172.492C-269.69,162.693 -267.041,153.173 -262.739,144.162C-260.178,138.796 -257.065,133.776 -253.011,129.393C-252.577,128.924 -252.192,127.922 -250.976,128.705C-251.161,129.87 -251.302,131.128 -251.565,132.361C-253.332,140.656 -254.669,149.008 -255.437,157.466C-256.954,174.196 -255.653,190.708 -251.75,207.004C-245.636,232.527 -232.942,254.414 -214.676,273.139C-197.605,290.639 -177.527,303.872 -155.64,314.509C-155.257,314.695 -154.8,314.729 -154.038,314.918C-154.664,313.044 -156.062,312.195 -157.105,311.113C-166.137,301.751 -174.183,291.639 -180.752,280.381C-193.659,258.257 -198.795,234.43 -196.437,208.961C-196.357,208.093 -195.997,207.251 -195.758,206.361C-195.303,206.541 -195.09,206.556 -195.015,206.665C-194.121,207.978 -193.214,209.283 -192.373,210.631C-174.608,239.103 -150.115,259.162 -118.154,269.794C-96.465,277.008 -74.122,279.061 -51.402,277.799C-51.218,277.788 -51.056,277.392 -50.665,276.901C-60.461,271.742 -69.871,266.057 -78.566,259.261C-87.172,252.534 -94.982,244.998 -101.846,236.492C-108.812,227.861 -114.639,218.518 -119.325,208.471C-123.99,198.469 -127.64,188.125 -129.995,177.167C-129.216,176.806 -128.688,176.411 -128.11,176.315C-113.942,173.959 -99.738,173.671 -85.632,176.501C-54.039,182.84 -29.054,199.346 -10.694,225.852C-10.383,226.302 -9.856,226.602 -9.004,227.341C-8.862,226.185 -8.672,225.603 -8.742,225.054C-9.267,220.93 -9.642,216.775 -10.436,212.702C-16.068,183.792 -33.006,164.62 -60.71,154.949C-65.369,153.323 -70.217,152.034 -75.084,151.249C-86.444,149.416 -97.866,147.961 -109.269,146.399C-121.641,144.704 -133.858,142.331 -145.843,138.748C-166.605,132.542 -184.258,121.531 -198.495,105.14C-200.803,102.483 -203.11,99.824 -205.367,97.124C-207.521,94.547 -209.596,91.904 -211.735,89.314C-212.204,88.747 -212.53,87.877 -213.869,88.144C-213.869,89.021 -213.906,89.939 -213.863,90.853C-213.503,98.546 -212.318,106.12 -210.506,113.596C-207.624,125.486 -202.936,136.674 -197.106,147.386C-193.744,153.565 -190.123,159.602 -186.637,165.713C-186.27,166.356 -185.564,166.985 -186.357,168.015C-187.125,167.46 -187.917,166.939 -188.653,166.348C-195.162,161.125 -201.13,155.341 -206.414,148.878C-225.915,125.024 -235.7,97.401 -237.777,66.913C-238.925,50.063 -237.4,33.354 -233.891,16.835C-231.327,4.769 -227.79,-7.011 -223.187,-18.457C-222.75,-19.543 -222.739,-21.045 -221.033,-21.592C-221.033,-20.453 -220.975,-19.411 -221.042,-18.377C-222.179,-0.699 -221.015,16.804 -216.683,34.008C-208.59,66.155 -190.398,90.861 -161.78,107.732C-147.61,116.085 -132.365,121.721 -116.321,125.251C-103.647,128.04 -90.766,129.443 -77.898,130.888C-67.389,132.067 -57.016,133.88 -46.809,136.657C-14.194,145.529 13.149,162.609 34.595,188.886C35.505,190.001 36.414,191.122 37.4,192.168C37.771,192.561 38.362,192.748 39.042,193.138C39.099,192.306 39.222,191.822 39.149,191.37C38.026,184.429 37.178,177.428 35.677,170.569C31.908,153.343 25.03,137.448 14.627,123.12C3.631,107.974 -10.486,96.851 -27.761,89.679C-38.29,85.307 -49.201,82.238 -60.379,80.128C-73.588,77.636 -86.692,74.757 -99.443,70.441C-114.05,65.496 -127.993,59.18 -140.713,50.355C-148.912,44.667 -156.285,38.085 -162.507,30.254C-173.741,16.116 -179.371,-0.068 -180.061,-18.033C-180.09,-18.778 -180.726,-19.934 -179.13,-20.428C-178.503,-18.946 -177.874,-17.496 -177.275,-16.035C-174.297,-8.775 -171.007,-1.674 -166.738,4.938C-162.981,10.758 -158.573,16.007 -153.126,20.324C-151.776,21.394 -150.311,22.319 -148.837,23.355C-147.973,21.792 -148.74,20.646 -149.045,19.489C-150.828,12.728 -151.028,5.933 -149.8,-0.952C-148.67,-7.29 -146.51,-13.294 -144.245,-19.279C-142.377,-24.212 -140.499,-29.141 -138.72,-34.106C-134.916,-44.726 -134.45,-55.667 -135.65,-66.773C-136.724,-76.713 -139.485,-86.195 -143.208,-95.431C-143.729,-96.724 -144.196,-98.039 -144.689,-99.344M-168.905,-285.938C-94.717,-286.059 -28.758,-262.482 30.201,-217.768C86.867,-174.793 130.082,-108.898 147.564,-41.695C152.245,-23.703 155.518,-5.487 156.926,13.068C158.468,33.378 158.282,53.681 156.494,73.946C150.393,143.076 124.404,203.783 78.989,256.231C55.999,282.78 30,305.801 0.01,324.204C-31.944,343.812 -66.366,357.06 -103.096,364.456C-132.267,370.33 -161.707,372.535 -191.39,370.822C-218.656,369.25 -245.293,364.07 -271.282,355.648C-310.472,342.948 -346.404,324.15 -378.506,298.216C-411.676,271.419 -438.052,238.978 -458.551,201.677C-474.282,173.051 -485.914,142.872 -492.708,110.883C-496.204,94.428 -498.326,77.802 -499.134,60.985C-499.802,47.058 -499.674,33.144 -498.753,19.254C-494.756,-41.069 -475.748,-96.137 -440.586,-145.463C-419.348,-175.256 -394.523,-201.564 -364.617,-222.843C-332.826,-245.462 -298.491,-262.928 -260.851,-273.601C-243.276,-278.584 -225.393,-281.939 -207.227,-283.904C-194.484,-285.283 -181.718,-285.898 -168.905,-285.938" style="fill:white;fill-rule:nonzero;"/>
            </g>
            <g transform="matrix(0.156105,0,0,0.156105,-499.623,115.098)">
                <path d="M0,-130.354C-6.215,-118.886 -7.225,-106.894 -4.762,-94.474C-2.308,-82.1 2.937,-71.176 13.159,-62.366C10.765,-62.326 9.188,-62.945 7.604,-63.377C0.943,-65.195 -5.837,-66.396 -12.729,-66.438C-29.417,-66.54 -45.003,-62.527 -59.106,-53.353C-67.768,-47.718 -75.13,-40.672 -81.614,-32.671C-88.08,-24.692 -93.605,-16.081 -98.237,-6.937C-101.988,0.47 -105.358,8.07 -108.885,15.591C-109.554,17.019 -110.169,18.473 -111.036,19.843C-111.21,17.199 -110.497,14.726 -109.931,12.234C-107.589,1.919 -104.323,-8.093 -99.904,-17.707C-85,-50.134 -60.465,-71.809 -26.695,-83.142C-24.908,-83.742 -23.13,-84.367 -21.297,-84.998C-21.962,-90.858 -22.88,-96.375 -23.136,-101.924C-23.385,-107.334 -23.025,-112.778 -22.806,-118.202C-22.581,-123.808 -21.615,-129.33 -20.295,-134.768C-19.018,-140.03 -17.536,-145.248 -14.645,-150.197C-11.691,-149.902 -8.841,-149.676 -6.006,-149.324C3.232,-148.177 12.242,-146.088 20.855,-142.501C39.494,-134.739 52.144,-121.363 58.482,-102.127C58.764,-101.27 58.894,-100.364 59.344,-98.383C57.565,-100.134 56.547,-101.06 55.615,-102.065C51.26,-106.759 46.73,-111.263 41.713,-115.258C30.38,-124.283 17.536,-129.43 3.043,-130.346C2.108,-130.405 1.166,-130.354 0,-130.354" style="fill:white;fill-rule:nonzero;"/>
            </g>
        </g>
    </g>
</svg>
